<svg xmlns="http://www.w3.org/2000/svg" xmlns:xlink="http://www.w3.org/1999/xlink" width="505" height="307" viewBox="0 0 505 307">
  <defs>
    <clipPath id="clip-path">
      <rect id="Rectangle_415388" data-name="Rectangle 415388" width="505" height="307" transform="translate(180.051 3998)" fill="#fff" stroke="#707070" stroke-width="1"/>
    </clipPath>
    <clipPath id="clip-path-2">
      <path id="Path_901445" data-name="Path 901445" d="M422.411,170.646V373.762H16.07V261.856c42.287-.149,84.7-1.313,126.141-9.434a318.688,318.688,0,0,0,73.716-23.75c11.311-5.289,22.24-11.238,33.513-16.6q16.886-8.031,34.283-15.129c13.148-5.332,26.792-10.3,40.757-14.493.537-.161,1.076-.318,1.613-.476q1.282-.379,2.566-.749,1.58-.453,3.169-.892c.376-.1.753-.21,1.13-.314q2-.547,4.011-1.074l.414-.11q2.2-.569,4.4-1.111c.052-.013.1-.028.158-.04q2.227-.546,4.464-1.062l.236-.054q2.132-.489,4.268-.948l.588-.125q1.924-.411,3.853-.794l1.162-.229q1.619-.315,3.242-.613.975-.178,1.951-.349,1.217-.215,2.435-.417,1.471-.246,2.944-.475.723-.112,1.447-.222,2.064-.31,4.128-.588l.276-.038a230.3,230.3,0,0,1,30.172-2.053c6.438,0,12.879.3,19.3.926" transform="translate(-16.07 -169.72)" fill="none"/>
    </clipPath>
  </defs>
  <g id="Group_1098718" data-name="Group 1098718" transform="translate(-180.051 -3998)" clip-path="url(#clip-path)">
    <rect id="Rectangle_404545" data-name="Rectangle 404545" width="525.051" height="307" transform="translate(180 3998.065)" fill="#12263f"/>
    <g id="Group_1175128" data-name="Group 1175128" transform="translate(177.438 3997.8)">
      <g id="Group_1111858" data-name="Group 1111858" transform="translate(2.562 -37.2)">
        <rect id="agronomist-checks-yield-with-tablet-harvest-success-with-new-technologies-generative-ai" width="524" height="347.453" transform="translate(0)" fill="#f4f9ff"/>
        <g id="Group_1175129" data-name="Group 1175129" transform="translate(0)">
          <g id="Group_1111857" data-name="Group 1111857" transform="translate(0.229 0)">
            <g id="Group_1111856" data-name="Group 1111856">
              <g id="Group_1111855" data-name="Group 1111855">
                <g id="Group_1111850" data-name="Group 1111850" transform="translate(0)">
                  <g id="Group_1111849" data-name="Group 1111849">
                    <path id="Path_901434" data-name="Path 901434" d="M16.933,157.3c-3.11-9.557,2.477-21.04,11.974-24.608,8.407-3.158,18.113-.508,26.639-3.334,10.273-3.4,16.322-13.8,20.19-23.8S82.5,84.7,90.013,76.994c9.659-9.91,24.714-12.305,38.637-12.563s28.284,1.007,41.393-3.632c12.235-4.33,22.076-13.359,33.218-19.966s25.581-10.7,36.9-4.394V176.656H16.8Z" transform="translate(289.579 -5.345)" fill="#e4f7fa"/>
                    <path id="Path_901435" data-name="Path 901435" d="M307.951.705a29.382,29.382,0,0,1,29.642,10.9c8.678,11.856,7.713,29.762,19.2,39,8.663,6.97,21.062,6.207,32.2,5.377s23.776-.839,31.638,7c6.5,6.488,7.648,16.332,9.4,25.3s5.446,18.888,14.045,22.23c7.583,2.947,16.559-.32,24.122,2.678,6.5,2.577,10.485,9.385,11.569,16.223s-.238,13.8-1.556,20.6H292.37V0h13.187" transform="translate(-292.37)" fill="#e4f7fa"/>
                    <path id="Path_901436" data-name="Path 901436" d="M416.069,209.052a329.922,329.922,0,0,1-62.989-6.906c-29.454-5.944-58.071-14.75-86.565-23.648-29.85-9.322-59.986-17.461-91.106-22.518-52.835-8.587-106.915-8.831-159.339.947V392.885H435.812V208.4q-9.843.71-19.744.653" transform="translate(-16.068 -24.007)" fill="#72ac78"/>
                    <path id="Path_901437" data-name="Path 901437" d="M384.7,171.841l-.285.039q-2.133.285-4.264.606l-1.5.229q-1.521.237-3.041.491-1.258.21-2.516.431-1.007.178-2.016.361-1.675.309-3.348.633l-1.2.237q-1.993.4-3.98.82c-.2.042-.4.086-.606.129q-2.207.475-4.41.979l-.243.055q-2.311.534-4.611,1.1c-.055.013-.109.028-.164.04q-2.277.56-4.546,1.148l-.427.112q-2.075.543-4.144,1.11c-.39.106-.779.216-1.167.323q-1.639.456-3.274.923-1.327.383-2.65.773c-.556.165-1.112.327-1.666.493-14.427,4.333-28.519,9.462-42.1,14.97q-17.979,7.29-35.414,15.628c-11.645,5.538-22.935,11.683-34.618,17.147A329.247,329.247,0,0,1,146.37,255.15c-42.8,8.389-86.619,9.592-130.3,9.746v115.6H435.812V170.677a223.569,223.569,0,0,0-51.109,1.164" transform="translate(-16.068 -27.242)" fill="#324241"/>
                    <path id="Path_901438" data-name="Path 901438" d="M384.7,171.841l-.285.039q-2.133.285-4.264.606l-1.5.229q-1.521.237-3.041.491-1.258.21-2.516.431-1.007.178-2.016.361-1.675.309-3.348.633l-1.2.237q-1.993.4-3.98.82c-.2.042-.4.086-.606.129q-2.207.475-4.41.979l-.243.055q-2.311.534-4.611,1.1c-.055.013-.109.028-.164.04q-2.277.56-4.546,1.148l-.427.112q-2.075.543-4.144,1.11c-.39.106-.779.216-1.167.323q-1.639.456-3.274.923-1.327.383-2.65.773c-.556.165-1.112.327-1.666.493-14.427,4.333-28.519,9.462-42.1,14.97q-17.979,7.29-35.414,15.628c-11.645,5.538-22.935,11.683-34.618,17.147A329.247,329.247,0,0,1,146.37,255.15c-42.8,8.389-86.619,9.592-130.3,9.746v115.6H545.812V170.677c-17.03-1.667-144.154-1.078-161.109,1.164" transform="translate(-16.068 -27.242)" fill="#324241"/>
                  </g>
                </g>
                <g id="Group_1111852" data-name="Group 1111852" transform="translate(13.404 139.028)">
                  <g id="Group_1111851" data-name="Group 1111851" clip-path="url(#clip-path-2)">
                    <path id="Path_901439" data-name="Path 901439" d="M81.3,194.228c4.4,4.56,9.011,8.924,13.557,13.342,5.916,5.747,11.771,11.557,17.449,17.539,6.9,7.266,13.538,14.774,19.851,22.553,7.538,9.29,14.641,18.935,21.215,28.931a350.175,350.175,0,0,1,20.107,34.8q1.235,2.449,2.432,4.917c.927,1.909.584,4.481-1.458,5.56-1.824.963-4.568.583-5.56-1.458a353.762,353.762,0,0,0-19.931-35.688q-4.983-7.813-10.383-15.352-2.536-3.54-5.159-7.016-.63-.834-1.265-1.665-.315-.412-.631-.824l-.271-.351c-.348-.453.6.774,0,.007q-1.252-1.61-2.518-3.209c-6.326-7.965-13-15.651-19.944-23.082-5.757-6.158-11.705-12.13-17.738-18.017-4.71-4.6-9.492-9.122-14.111-13.809q-.7-.709-1.392-1.427a4.063,4.063,0,0,1,5.746-5.747" transform="translate(182.542 -174.093)" fill="#d0e9bb"/>
                    <path id="Path_901440" data-name="Path 901440" d="M17.265,181.047a83.66,83.66,0,0,1,8.341,5.7c3.95,2.983,7.787,6.111,11.543,9.337,9.2,7.9,17.974,16.306,26.436,24.992,9.809,10.07,19.2,20.561,28.013,31.515a291.668,291.668,0,0,1,24.394,34.625c6.115,10.389,11.621,21.527,14.483,33.295q.455,1.87.8,3.763c.384,2.084-.571,4.483-2.838,5-1.993.454-4.587-.6-5-2.838A82.783,82.783,0,0,0,118.82,310.9c-.241-.609-.491-1.214-.741-1.819-.317-.767.4.922.067.158l-.175-.407q-.243-.562-.49-1.122-.918-2.074-1.907-4.115c-1.35-2.794-2.791-5.544-4.3-8.256-3.229-5.8-6.769-11.43-10.5-16.92q-2.906-4.27-5.964-8.435-1.569-2.138-3.171-4.251-.8-1.062-1.618-2.117c-.138-.18-.42-.62.146.189-.1-.145-.219-.283-.328-.423q-.491-.634-.987-1.265C80.181,251.048,70.9,240.465,61.193,230.3c-8.563-8.97-17.46-17.643-26.767-25.842-3.664-3.227-7.395-6.383-11.235-9.4q-.319-.251-.641-.5l-.254-.2c-.52-.406.767.588.382.295-.432-.328-.861-.66-1.294-.986q-1.162-.876-2.342-1.728c-1.347-.97-2.714-1.915-4.116-2.8q-.87-.553-1.762-1.073a4.064,4.064,0,1,1,4.1-7.017" transform="translate(278.982 -171.74)" fill="#d0e9bb"/>
                    <path id="Path_901441" data-name="Path 901441" d="M6.11,170.793c6.29,3.169,11.994,7.563,17.5,11.906a271.481,271.481,0,0,1,21.62,19.136,285.015,285.015,0,0,1,21.908,23.9A180.288,180.288,0,0,1,85.315,251.96c4.293,7.763,8.077,16.229,9.325,25.081.174,1.234.332,2.467.422,3.709A4.083,4.083,0,0,1,91,284.814a4.163,4.163,0,0,1-4.063-4.063q-.049-.677-.119-1.352c-.023-.212-.05-.424-.073-.636-.067-.623.076.546.074.532-.026-.152-.043-.306-.066-.459q-.207-1.4-.5-2.791a55.989,55.989,0,0,0-1.593-5.847q-.5-1.537-1.083-3.048-.266-.7-.546-1.391c-.107-.267-.22-.531-.328-.8-.163-.408.225.527.2.47-.074-.166-.142-.335-.215-.5-.906-2.1-1.9-4.163-2.95-6.192A135.323,135.323,0,0,0,72.208,246.1q-2.148-3.226-4.436-6.354-1.182-1.62-2.4-3.217-.276-.363-.553-.725l-.238-.31c-.438-.572.143.144.157.2-.119-.505-.966-1.239-1.291-1.65A276.518,276.518,0,0,0,42.04,210.109a283.472,283.472,0,0,0-21.632-19.628q-1.223-.995-2.461-1.972-.6-.474-1.2-.943c-.721-.562.631.483.108.084l-.706-.541q-2.265-1.725-4.588-3.372a86.581,86.581,0,0,0-7.911-5.06q-.811-.449-1.638-.866a4.091,4.091,0,0,1-1.458-5.56,4.163,4.163,0,0,1,5.56-1.458" transform="translate(324.331 -169.825)" fill="#d0e9bb"/>
                    <path id="Path_901442" data-name="Path 901442" d="M12.189,158.131a170.861,170.861,0,0,1,39.762,36.751q4.854,6.233,9.23,12.81a4.093,4.093,0,0,1-1.458,5.56,4.158,4.158,0,0,1-5.56-1.458q-3.628-5.472-7.6-10.7l-.4-.516c.6.781-.067-.085-.16-.2q-.449-.575-.9-1.145-1.057-1.329-2.139-2.637Q40.9,194.1,38.751,191.7a161.7,161.7,0,0,0-18.724-17.8q-.786-.635-1.579-1.261l-.532-.419c-.082-.064-.981-.759-.25-.2q-1.491-1.146-3.005-2.262-3.235-2.381-6.573-4.614a4.141,4.141,0,0,1-1.458-5.56c1.132-1.755,3.673-2.725,5.56-1.458" transform="translate(352.733 -167.441)" fill="#d0e9bb"/>
                    <path id="Path_901443" data-name="Path 901443" d="M137.355,214.187A119.754,119.754,0,0,1,152.919,229.5c6.124,6.979,11.838,14.32,17.35,21.789q8.677,11.758,16.667,24,7.6,11.567,14.655,23.478c3.816,6.456,7.523,12.987,10.925,19.673q.5.992,1,1.989a4.146,4.146,0,0,1-1.458,5.56c-1.835.969-4.553.576-5.56-1.458-3.179-6.422-6.682-12.684-10.287-18.875q-6.816-11.7-14.2-23.057Q174.106,270.4,165.6,258.6q-2.114-2.916-4.273-5.8-1.042-1.392-2.1-2.775-.5-.657-1.007-1.313c-.084-.109-.168-.217-.251-.326,0,0,.492.635.216.28l-.587-.755q-4.121-5.291-8.467-10.4a137.96,137.96,0,0,0-15.746-16.13q-.875-.736-1.774-1.444c-1.677-1.321-1.487-4.381,0-5.746,1.78-1.634,3.957-1.41,5.746,0" transform="translate(99.402 -177.835)" fill="#d0e9bb"/>
                    <path id="Path_901444" data-name="Path 901444" d="M195.14,230.712c8.232,10.63,15.68,21.885,23.048,33.121,8.741,13.332,17.279,26.823,25.235,40.641a191.156,191.156,0,0,1,9.052,17.1c.866,1.935.625,4.459-1.458,5.56-1.772.936-4.632.614-5.56-1.458-2.269-5.068-4.98-9.943-7.717-14.769-3.715-6.549-7.6-13-11.555-19.405q-12.522-20.282-26-39.962-3.057-4.448-6.194-8.842-1.359-1.9-2.745-3.773-.619-.838-1.247-1.67-.272-.36-.545-.718l-.265-.346c-.539-.705.586.756.2.264a4.448,4.448,0,0,1-1.191-2.873,4.134,4.134,0,0,1,1.191-2.874c1.453-1.334,4.357-1.8,5.746,0" transform="translate(13.505 -180.924)" fill="#d0e9bb"/>
                  </g>
                </g>
                <g id="Group_1111854" data-name="Group 1111854" transform="translate(0 77.87)">
                  <g id="Group_1111853" data-name="Group 1111853">
                    <path id="Path_901446" data-name="Path 901446" d="M16.069,301.055a4.631,4.631,0,0,1,4.119-3.623c1.926-.095,5.552,2.361,6.148,4.279a17.322,17.322,0,0,1,11.556-10.248c5.094-1.28,11.222-.38,15.232,3.146a13.816,13.816,0,0,1,10.124-5.534c3.92-.225,6.178.228,8.917,3.171a17.873,17.873,0,0,1,13.273-9.866c5.594-.79,11.42.468,15.217,4.838a15.179,15.179,0,0,1,13.456-8.127A14.664,14.664,0,0,1,127.1,287.4c8.868-3.6,19.929.462,24.83,8.993a13.817,13.817,0,0,1,9.529-9.532c4.464-1.156,9.815-.447,13.027,3a13.355,13.355,0,0,1,3.8-12.483c3.3-3.027,8.7-4.383,12.8-2.754,10.831-5.815,25.849-.289,32.782,10.18,3.474-5.191,12.4-6.662,16.484-1.988,3.9-4.254,8.731-7.889,14.286-8.867s12.27.314,15.04,5.447a20.341,20.341,0,0,1,18.746-7.242c6.874,1.14,12.363,8.813,15.023,15.541a12.227,12.227,0,0,1,12.457-4.774c4.559,1.08,9.074,5.861,10.006,10.653a13.957,13.957,0,0,1,11.569-6.191c4.507.066,8.308,1.658,10.79,5.594,3.391-5.313,7.825-10.287,13.638-12.239s12.58-1.294,15.309,4.421a12,12,0,0,1,10.829-6.554c4.392.154,7.56,3.724,9.359,7.919a12.8,12.8,0,0,1,7.71-8.625c3.688-1.362,8.575-.151,11.759,2.224a12.194,12.194,0,0,1,8.977-5.9c3.638-.4,127.424,1.043,129.958,3.8v59.623H16.069Z" transform="translate(-16.069 -136.164)" fill="#d0e9bb"/>
                    <path id="Path_901447" data-name="Path 901447" d="M16.354,468.876H545.326V333.33s-208.857-18.919-318.341-21.581c-124.849-3.037-210.63,21.581-210.63,21.581Z" transform="translate(-15.82 -142.518)" fill="#d2984e"/>
                    <path id="Path_901448" data-name="Path 901448" d="M305.974,447.812a5.525,5.525,0,0,0-5.008-.361,5.608,5.608,0,0,0-3.2,3.911c-3.784-4.866-11.017-7.009-16.586-4.426" transform="translate(-108.792 -164.081)" fill="none" stroke="#f3d171" stroke-linecap="round" stroke-linejoin="round" stroke-width="1"/>
                    <path id="Path_901449" data-name="Path 901449" d="M80.967,468.773a8.009,8.009,0,0,0-5.741,2.868,9.734,9.734,0,0,0-10.169-7.322" transform="translate(297.653 -167.041)" fill="none" stroke="#f3d171" stroke-linecap="round" stroke-linejoin="round" stroke-width="1"/>
                    <path id="Path_901450" data-name="Path 901450" d="M487.389,474.127a8.208,8.208,0,0,0-9.206,3.2c-.3-1.333-1.3-1.53-2.6-1.911a3.871,3.871,0,0,0-3.754.965c-1.852-4.413-7.76-7.59-12.423-6.675" transform="translate(-439.821 -167.888)" fill="none" stroke="#f3d171" stroke-linecap="round" stroke-linejoin="round" stroke-width="1"/>
                    <path id="Path_901451" data-name="Path 901451" d="M489.491,445.723a6.668,6.668,0,0,0-3.1-4.739,6.549,6.549,0,0,0-5.605-.518,9.485,9.485,0,0,0-4.6-6.242,9.878,9.878,0,0,0-7.906-.749" transform="translate(-449.372 -162.018)" fill="none" stroke="#f3d171" stroke-linecap="round" stroke-linejoin="round" stroke-width="1"/>
                    <path id="Path_901452" data-name="Path 901452" d="M57.012,426.671A15.036,15.036,0,0,0,44,433.2a9.909,9.909,0,0,0-13.451-.724" transform="translate(350.578 -161.003)" fill="none" stroke="#f3d171" stroke-linecap="round" stroke-linejoin="round" stroke-width="1"/>
                    <path id="Path_901453" data-name="Path 901453" d="M45.853,356.212A11.519,11.519,0,0,0,34.7,359.168" transform="translate(358.247 -149.63)" fill="none" stroke="#f3d171" stroke-linecap="round" stroke-linejoin="round" stroke-width="1"/>
                    <path id="Path_901454" data-name="Path 901454" d="M241.33,377.9a4.945,4.945,0,0,0-5.1,2.214,7.023,7.023,0,0,0-6.987-3.775" transform="translate(-0.545 -152.922)" fill="none" stroke="#f3d171" stroke-linecap="round" stroke-linejoin="round" stroke-width="1"/>
                    <path id="Path_901455" data-name="Path 901455" d="M330.7,348.339a11.829,11.829,0,0,0-11.214,4.061c-2.858-3.439-7.214-4.08-11.371-2.485" transform="translate(-156.128 -148.4)" fill="none" stroke="#f3d171" stroke-linecap="round" stroke-linejoin="round" stroke-width="1"/>
                    <path id="Path_901456" data-name="Path 901456" d="M315.925,400.246c0,8.282,36.64,15,81.839,15s81.839-6.713,81.839-15-36.641-15-81.839-15-81.839,6.713-81.839,15" transform="translate(-311.585 -154.357)"/>
                    <path id="Path_901457" data-name="Path 901457" d="M270.018,288.358s12.321-4.295,13.887-4.522,8.519-1.945,8.688-.264-8.162,5.578-8.162,5.578.653.552,5.367,2.21c4.219,1.483,19.545,2.105,19.608,3.62.155,3.749-11.523,1.987-13.2,2.158s-4.054-.013-2.666.976,15.281,2.769,15.8,3.464,1.206,3.728-4.992,3c0,0,1.409,2.989-2.357,2.525-1.869-.231-5.3.022-10.1-1.114,0,0,7.523,2.049,7.4,3.729s-9.613-.782-14.706-1.9-19.355-9.62-19.355-9.62Z" transform="translate(-99.083 -137.92)" fill="#8f7d81"/>
                    <path id="Path_901458" data-name="Path 901458" d="M330.638,274.984c.079-6.434,3.973-13.913,11.355-11.564,3.529,1.122,13.988,6.885,23.947,12.595-2.555,4.661-4.8,9.439-7.143,14.061-13.747-4.557-28.214-10.546-28.159-15.092" transform="translate(-210.273 -134.731)" fill="#eec3ae"/>
                    <path id="Path_901459" data-name="Path 901459" d="M283.1,308.39s-9.125-1.389-11.543-1.772" transform="translate(-77.838 -141.736)" fill="none" stroke="#000" stroke-linecap="round" stroke-linejoin="round" stroke-width="1"/>
                    <path id="Path_901460" data-name="Path 901460" d="M287.525,310.9a28.78,28.78,0,0,1-4.318-.932" transform="translate(-92.04 -142.274)" fill="none" stroke="#000" stroke-linecap="round" stroke-linejoin="round" stroke-width="1"/>
                    <path id="Path_901461" data-name="Path 901461" d="M335.751,290.67l-4.073,8.374c-.325.249-14.014-2.674-26.258-6.732,2.345-4.623,5.268-10.749,7.824-15.41,10.883,6.24,22.508,13.768,22.508,13.768" transform="translate(-158.912 -136.966)" fill="#8f7d81"/>
                    <path id="Path_901462" data-name="Path 901462" d="M364.851,267.188l-5.17,17.326L352.6,281.15Z" transform="translate(-227.618 -135.407)"/>
                    <path id="Path_901463" data-name="Path 901463" d="M401.228,245.638s3.686.726,3.974,3.83-10.237,23.555-19.274,20.834-11.52-7.1-11.52-7.1-22.029-28.528-21.791-38.392-7.641-15.2,8.261-30.293S389.105,205.3,390.161,211.7s11.068,33.942,11.068,33.942" transform="translate(-266.529 -122.996)" fill="#fff"/>
                    <path id="Path_901464" data-name="Path 901464" d="M447.235,386.844s-20.4-7.667-30.5-9.144c-20.094-2.937-14.25-2.97-51.53-6.156-1.817-.155-4.653,11.315-2.8,12.2,37.515,17.886,36.41,26.691,80.548,26.39,17.27-6.378,12.949-19.467,4.281-23.286" transform="translate(-325.316 -152.157)"/>
                    <path id="Path_901465" data-name="Path 901465" d="M428.093,369.1s-10.587,19.627-10.27,28c2.1,1.148,5.667,1.621,9.193-4.812,4.227-7.711,16.658-10.986,17.011-10.447.29.436,26.865,13.9,36.777,18.915l11.926-28.226c-12.062-4.2-43.656-6.771-44.59-11.432-.654-3.274-6.28-6.349-10.48-8.22L432.9,364.153Z" transform="translate(-410.248 -149.161)" fill="#f3d171"/>
                    <path id="Path_901466" data-name="Path 901466" d="M417.086,406.37s9.171-21.707,11.949-28.284a13,13,0,0,0-3.7-1.8l-11.926,28.226,3.674,1.855" transform="translate(-342.856 -152.919)" fill="#324241"/>
                    <path id="Path_901467" data-name="Path 901467" d="M500.53,350.671l-4.271,10.112,1.973.834-4.371,4.84L484.2,389.316s-1.818,5.189.07,6.716a7.18,7.18,0,0,0,1.065.714c-.317-8.373,10.269-28,10.269-28l4.8-4.948,4.763-11.274c-2.593-1.156-4.645-1.853-4.645-1.853" transform="translate(-477.763 -148.807)" fill="#324241"/>
                    <path id="Path_901468" data-name="Path 901468" d="M315.845,330.758c-1.974-3.189,13.209-46.847,14.666-47.6s51,11.58,51,11.58c-.091.273-.674,7-1.586,14.8,53.485,25.483,71.988,36.793,76.872,46.665,3.366,6.8-.179,14.449-5.07,18.779a6.388,6.388,0,0,1-3.613,2.761,139.943,139.943,0,0,1-24.947,4.8c-3,6.482-10.224,10.96-15.21,9.476a321.25,321.25,0,0,1-31.986-11.363c-2.877.17-6,.437-9.422.833-.729.084-1.607-2.576-2.353-6.036-25.833-12.079-39.643-23.1-39.643-23.1a22.691,22.691,0,0,1-8.705-21.593" transform="translate(-289.823 -137.965)"/>
                    <path id="Path_901469" data-name="Path 901469" d="M463.612,220.114c-5.819,33.23-23.3,45.426-25.837,70.423-.3,3.008-52.838-1.2-59.73-8.4-4.758-4.971,2.144-64.582,28.831-94.762,9.91-11.208,29.074-11.417,43.073-2.522,13.264,8.428,14.256,31.873,13.663,35.258" transform="translate(-346.699 -121.179)" fill="#fff"/>
                    <path id="Path_901470" data-name="Path 901470" d="M380.965,208.354c.285.574-3.805,22.973-6.355,29.749" transform="translate(-262.226 -125.963)" fill="none" stroke="#000" stroke-linecap="round" stroke-linejoin="round" stroke-width="1"/>
                    <path id="Path_901471" data-name="Path 901471" d="M370.868,257.157s-7.406,12.1-15.188,16.116" transform="translate(-236.223 -133.797)" fill="none" stroke="#000" stroke-linecap="round" stroke-linejoin="round" stroke-width="1"/>
                    <path id="Path_901472" data-name="Path 901472" d="M378.313,254.327c-1.038,1.033-10.642,9.533-20.313,12.749" transform="translate(-245.616 -133.343)" fill="none" stroke="#000" stroke-linecap="round" stroke-linejoin="round" stroke-width="1"/>
                    <path id="Path_901473" data-name="Path 901473" d="M405.767,197.077s-9.83,1.683-16.421-3.156" transform="translate(-299.385 -123.647)" fill="none" stroke="#000" stroke-linecap="round" stroke-linejoin="round" stroke-width="1"/>
                    <path id="Path_901474" data-name="Path 901474" d="M411.7,214.879s-20.56-2.3-25.179-3.083c-13.644,61.127-46.56,59.855-57.407,68.439-19.561,15.483,80.557,77.992,80.557,77.992a40.911,40.911,0,0,0,16.844-5.874c7.223-4.579,9.048-9.25,16.57-13.346a36.623,36.623,0,0,1,14.146-4.212,287.707,287.707,0,0,0-24.391-16.93c-13.36-8.553-29.051-17.283-38.37-17.989,4.627-.57,2.605-4.967,2.605-4.967s7.986-10.2,14.624-80.03" transform="translate(-298.159 -126.516)" fill="#87767a"/>
                    <path id="Path_901475" data-name="Path 901475" d="M391.212,214.332a1.377,1.377,0,0,0,1.375-1.31c.04-.784.844-19.333-8.85-29.959a1.378,1.378,0,1,0-2.036,1.858c8.914,9.77,8.142,27.785,8.132,27.965a1.38,1.38,0,0,0,1.31,1.444c.022,0,.045,0,.068,0" transform="translate(-279.516 -121.832)" fill="#87767a"/>
                    <path id="Path_901476" data-name="Path 901476" d="M431.761,209.058a1.378,1.378,0,0,0,1.284-1.284c.055-.821,1.237-20.2-8.152-26.81-4.06-2.86-6.934-2.707-13.359.089a19.98,19.98,0,0,0-2.962,1.715c5.483-2.384,11.513-1.818,14.733.45,8.136,5.73,7,24.187,6.989,24.372a1.378,1.378,0,0,0,1.283,1.467,1.341,1.341,0,0,0,.184,0" transform="translate(-342.789 -121.234)" fill="#87767a"/>
                    <path id="Path_901477" data-name="Path 901477" d="M481.187,316.258c.076-3.559,7.43-12.963,12.048-18.056l.123-.138,2.246.73-1.27-1.806,3.866-4.263-5.072,2.549c-.141-.2-.358-.5-.64-.872l1.744-.473c-.46-1.7-4.683-16.627-11.2-18.075-1.457-.319-3.676-.132-6,2.614a7.61,7.61,0,0,0-2.05,6.211c-1.62,1.472-2.638,4.181-3.091,8.193-.427,3.776.475,6.471,2.681,8.008,3.311,2.308,8.755,1.228,12.862-.148-3.763,4.6-8.922,11.6-9.005,15.467Zm8.651-19.4c-3.879,1.664-10.68,3.862-13.69,1.762-1.311-.914-1.822-2.743-1.517-5.436a14.47,14.47,0,0,1,1.505-5.536c2.905,4.616,10.244,7.878,13.7,9.21m-11.413-10.732c2.579.013,6.407,3.508,9.368,6.877-3.568-1.659-7.693-4.108-9.368-6.877m3.527-7.637a2.059,2.059,0,0,1,.479.059c3.244.719,6.621,8.114,8.464,13.828-3.12-3.789-8.673-9.569-13.224-8.955a5.516,5.516,0,0,1,1.467-3.171c1.266-1.5,2.234-1.761,2.814-1.761" transform="translate(-461.028 -136.779)" fill="#87767a"/>
                    <path id="Path_901478" data-name="Path 901478" d="M477.642,317.663a36.985,36.985,0,0,1,7.328-14.425l-2.071-1.82a39.307,39.307,0,0,0-7.947,15.646Z" transform="translate(-450.451 -140.901)" fill="#87767a"/>
                    <path id="Path_901479" data-name="Path 901479" d="M442.872,316.718s-22.168,6.777-42.04,4.249" transform="translate(-346.132 -143.357)" fill="none" stroke="#000" stroke-linecap="round" stroke-linejoin="round" stroke-width="1"/>
                    <path id="Path_901480" data-name="Path 901480" d="M449.726,309.951s-32.851,3.963-51.083-3.905" transform="translate(-351.148 -141.644)" fill="none" stroke="#000" stroke-linecap="round" stroke-linejoin="round" stroke-width="1"/>
                    <path id="Path_901481" data-name="Path 901481" d="M443.657,294.565s13.236-7.236,27.468-9.955" transform="translate(-410.336 -138.203)" fill="none" stroke="#000" stroke-linecap="round" stroke-linejoin="round" stroke-width="1"/>
                    <path id="Path_901482" data-name="Path 901482" d="M477.318,293.147a4.687,4.687,0,0,0-2.276,3.514c-.291-.249-.707.289-.818.656a1.618,1.618,0,0,0,.193,1.107,13.2,13.2,0,0,0,5.693,6.1" transform="translate(-444.951 -139.574)" fill="none" stroke="#000" stroke-linecap="round" stroke-linejoin="round" stroke-width="1"/>
                    <path id="Path_901483" data-name="Path 901483" d="M478.987,301.361a11.291,11.291,0,0,0,1.066,7.874" transform="translate(-448.683 -140.892)" fill="none" stroke="#000" stroke-linecap="round" stroke-linejoin="round" stroke-width="1"/>
                    <path id="Path_901484" data-name="Path 901484" d="M497.39,287.687a4.672,4.672,0,0,0-3.011,2.489" transform="translate(-479.182 -138.697)" fill="none" stroke="#000" stroke-linecap="round" stroke-linejoin="round" stroke-width="1"/>
                    <path id="Path_901485" data-name="Path 901485" d="M499.43,284.924a6.053,6.053,0,0,0-2.593,1.57" transform="translate(-483.285 -138.254)" fill="none" stroke="#000" stroke-linecap="round" stroke-linejoin="round" stroke-width="1"/>
                    <path id="Path_901486" data-name="Path 901486" d="M484.983,303.24a6.652,6.652,0,0,1-3.993,1.657" transform="translate(-455.535 -141.194)" fill="none" stroke="#000" stroke-linecap="round" stroke-linejoin="round" stroke-width="1"/>
                    <path id="Path_901487" data-name="Path 901487" d="M383.854,215.432l-2.727-.5" transform="translate(-270.571 -127.019)" fill="none" stroke="#000" stroke-linecap="round" stroke-linejoin="round" stroke-width="1"/>
                    <path id="Path_901488" data-name="Path 901488" d="M411.04,212.157l-2.57-.319" transform="translate(-320.712 -126.523)" fill="none" stroke="#000" stroke-linecap="round" stroke-linejoin="round" stroke-width="1"/>
                    <path id="Path_901489" data-name="Path 901489" d="M424.167,195.829c15.841,7.484,19.4,66.131,19.135,71.651-.185,3.91-3.312,10.369-12.582,3.194-5.028-3.886-14.785-9.974-25.966-62-.8-3.741,8.073-18.206,19.413-12.848" transform="translate(-349.825 -123.764)" fill="#a5cbee"/>
                    <path id="Path_901490" data-name="Path 901490" d="M379.319,277.026c1.046-6.349,6.022-13.156,12.968-9.722,3.518,1.739,13.952,9.806,23.392,17.344-2.491,4.473-6.2,8.022-9.208,12.34-13.365-6.7-27.921-15.291-27.151-19.961" transform="translate(-300.854 -135.277)" fill="#eec3ae"/>
                    <path id="Path_901491" data-name="Path 901491" d="M411.042,272.989s-2.785,12.558-7.355,17.289l-5.6-3.611,10.968-14.825Z" transform="translate(-312.002 -136.154)"/>
                    <path id="Path_901492" data-name="Path 901492" d="M319.907,300.531c3.014-4.318,7.981-9.988,10.472-14.461a180.545,180.545,0,0,0,15.115,10.864c3.961,0,11.028.1,12.28.108,1.509.011,8.318-.61,8.236,1s-8.5,4.09-8.5,4.09.536.614,4.744,2.855c3.768,2.006,18.136,4.8,17.978,6.234-.392,3.557-11.155.218-12.765.137s-3.823-.594-2.656.538,14.019,4.809,14.409,5.539.6,3.69-5.139,2.11c0,0,.9,3.021-2.586,2.043-1.73-.486-5-.741-9.368-2.5,0,0,6.8,3.013,6.449,4.581s-8.957-2.12-13.6-3.9c-3.917-1.505-14.053-7.51-16.877-9.793-4.283-1.488-10.924-5.8-18.188-9.44" transform="translate(-215.554 -138.438)" fill="#8f7d81"/>
                    <path id="Path_901493" data-name="Path 901493" d="M337.871,325.307s-8.409-2.623-10.635-3.33" transform="translate(-179.347 -144.201)" fill="none" stroke="#000" stroke-linecap="round" stroke-linejoin="round" stroke-width="1"/>
                    <path id="Path_901494" data-name="Path 901494" d="M342.5,326.2a27.427,27.427,0,0,1-3.94-1.5" transform="translate(-193.485 -144.639)" fill="none" stroke="#000" stroke-linecap="round" stroke-linejoin="round" stroke-width="1"/>
                    <line id="Line_574" data-name="Line 574" x1="10.413" y2="13.465" transform="translate(107.463 150.141)" fill="none" stroke="#000" stroke-linecap="round" stroke-linejoin="round" stroke-width="1"/>
                    <path id="Path_901495" data-name="Path 901495" d="M442.4,248.593s3.6,1.172,3.6,4.606-12.372,24.8-21.117,20.893-10.814-8.96-10.814-8.96-19.3-33.539-18.148-44.336-6.2-17.46,11.027-32.392,27.107,14.7,27.566,21.824,7.884,38.364,7.884,38.364" transform="translate(-344.638 -122.095)" fill="#fff"/>
                    <path id="Path_901496" data-name="Path 901496" d="M446.681,277.822s-10.758-1.964-17.261-18.313-14.941-45.639-9.689-54.713" transform="translate(-364.425 -125.392)" fill="none" stroke="#000" stroke-linecap="round" stroke-linejoin="round" stroke-width="1"/>
                    <path id="Path_901497" data-name="Path 901497" d="M419.079,261.168s-14.306,4.365-18.626,10.107" transform="translate(-322.02 -134.441)" fill="none" stroke="#000" stroke-linecap="round" stroke-linejoin="round" stroke-width="1"/>
                    <path id="Path_901498" data-name="Path 901498" d="M424.489,257.422s-14.817-1.263-22.973,1.723" transform="translate(-328.323 -133.797)" fill="none" stroke="#000" stroke-linecap="round" stroke-linejoin="round" stroke-width="1"/>
                    <path id="Path_901499" data-name="Path 901499" d="M432.7,198.908s-9.764-9.239-19.183-4.513" transform="translate(-346.611 -123.507)" fill="none" stroke="#000" stroke-linecap="round" stroke-linejoin="round" stroke-width="1"/>
                    <path id="Path_901500" data-name="Path 901500" d="M409.772,170.835c-.171.18-4,8.538-6.073,13.081a4.53,4.53,0,0,1-4.808,2.588c-3.843-.575-10.068-2.321-14.6-7.6a4.539,4.539,0,0,1-.31-5.509l16.3-23.939Z" transform="translate(-298.228 -116.51)" fill="#eec3ae"/>
                    <path id="Path_901501" data-name="Path 901501" d="M379.482,128.5c21.666,7.738,7.063,40.641,7.063,40.641l-3.249-1s-6.272,13.814-6.943,13.6c-8.992-2.865-15.474-10.193-15.936-11.811-.243-.725-.426-6.561.833-9.618.378-.026-10.923-7.182-3.14-24.422,1.919-3.62,14.105-9.987,21.372-7.392" transform="translate(-256.452 -113.049)" fill="#eec3ae"/>
                    <path id="Path_901502" data-name="Path 901502" d="M395.4,140.947c-9.7,1.964-6.031,1.723-12.521-.8s-4.275,4.315-4.275,4.315-5.573,8.549-6.369,7.057a27.757,27.757,0,0,1-1.569-4.984s-1.579-3.155-3.775-1.938-4.966,2.391-4.746,7.088a17.794,17.794,0,0,1-2.191,8.793l-7.351-3.318s2.408-19.978,5.012-26.431c13.022-32.277,47.435,8.27,37.786,10.222" transform="translate(-259.847 -111.508)" fill="#324241"/>
                    <path id="Path_901503" data-name="Path 901503" d="M373.576,177.638a4.373,4.373,0,0,1-3.384-3.185" transform="translate(-251.114 -120.522)" fill="none" stroke="#000" stroke-linecap="round" stroke-linejoin="round" stroke-width="1"/>
                    <path id="Path_901504" data-name="Path 901504" d="M365.814,163.08a.923.923,0,1,0,1.112-.686.924.924,0,0,0-1.112.686" transform="translate(-241.478 -118.582)"/>
                    <path id="Path_901505" data-name="Path 901505" d="M361.174,157.216c.307.479,2.034-.122,3.841.272s3.131,1.654,3.609,1.347-.513-2.78-3.172-3.356-4.587,1.261-4.279,1.738" transform="translate(-238.679 -117.458)"/>
                    <path id="Path_901506" data-name="Path 901506" d="M389.441,183.536l-2.17-2.346s.583,4.015.756,5.089c1.155-2.242,1.414-2.743,1.414-2.743" transform="translate(-281.317 -121.603)" fill="#1c1e23"/>
                    <path id="Path_901507" data-name="Path 901507" d="M390.837,154.886s-2.782-5.645-5.466,0" transform="translate(-281.117 -116.979)"/>
                    <path id="Path_901508" data-name="Path 901508" d="M390.837,154.886s-2.782-5.645-5.466,0" transform="translate(-281.117 -116.979)" fill="none" stroke="#000" stroke-linecap="round" stroke-linejoin="round" stroke-width="1"/>
                    <path id="Path_901509" data-name="Path 901509" d="M375.283,151.217s-.207,3.9-.586,6.025l-19.329-12.1Z" transform="translate(-240.376 -115.818)" fill="#1c1e23"/>
                    <path id="Path_901510" data-name="Path 901510" d="M357.865,130.144l2.165-4.19-5.26-2.292c3.527-5.608,8.5-11.577,13.59-11.393,9.537.344,21.551,3.652,24.661,7.634s.977,17.515.977,17.515c-4.669,4.167-20.189,3.686-20.189,3.686L349.7,133.186s.87-2.025,2.349-4.812Z" transform="translate(-255.047 -110.54)" fill="#f3d171"/>
                    <path id="Path_901511" data-name="Path 901511" d="M367.253,151.15c-2.661,3.379-9.312,6.447-25.881-.918l-8.123-4.318,20.189-3.687,12.12,3.648a3.357,3.357,0,0,1,1.695,5.275" transform="translate(-214.487 -115.349)" fill="#fff"/>
                    <path id="Path_901512" data-name="Path 901512" d="M382.826,114.493s-7.738.46-13.309,23.283" transform="translate(-259.797 -110.898)" fill="none" stroke="#000" stroke-linecap="round" stroke-linejoin="round" stroke-width="1"/>
                    <path id="Path_901513" data-name="Path 901513" d="M276.53,319.64s9.679-30.583-1.607-35.69S269.328,312.1,276,319.4" transform="translate(-72.561 -138.012)" fill="#72ac78"/>
                    <path id="Path_901514" data-name="Path 901514" d="M254.962,337.157s19.665-10.015,14.966-18.962-18.6,7.518-14.966,18.962" transform="translate(-50.952 -143.183)" fill="#72ac78"/>
                    <path id="Path_901515" data-name="Path 901515" d="M294.154,340.954s-12.669-29.314-19.544-16.178,14.951,17.849,19.544,16.178" transform="translate(-90.336 -144.107)" fill="#72ac78"/>
                    <path id="Path_901516" data-name="Path 901516" d="M244.875,349.487s28.493-3.752,23.077-13.491-22.843,9.086-23.077,13.491" transform="translate(-40.973 -146.008)" fill="#72ac78"/>
                    <path id="Path_901517" data-name="Path 901517" d="M300.112,353.513s-24.1-22.785-26.19-8.083c-1.633,11.459,20.789,13.31,26.19,8.083" transform="translate(-96.761 -147.172)" fill="#72ac78"/>
                    <path id="Path_901518" data-name="Path 901518" d="M246.22,358.89s18.662-1.879,22.4-6.482-10.311-3.111-22.4,6.482" transform="translate(-42.695 -148.683)" fill="#72ac78"/>
                    <path id="Path_901519" data-name="Path 901519" d="M273.372,374.331s8.229-51.1.192-82.759" transform="translate(-73.345 -139.321)" fill="none" stroke="#324241" stroke-linecap="round" stroke-linejoin="round" stroke-width="1"/>
                    <path id="Path_901520" data-name="Path 901520" d="M289.522,341.714s-11.142-4.356-15.507-13.262" transform="translate(-86.32 -145.24)" fill="none" stroke="#324241" stroke-linecap="round" stroke-linejoin="round" stroke-width="1"/>
                    <path id="Path_901521" data-name="Path 901521" d="M271.1,319.759s-10.805,9.57-12.069,14.933" transform="translate(-55.311 -143.845)" fill="none" stroke="#324241" stroke-linecap="round" stroke-linejoin="round" stroke-width="1"/>
                    <path id="Path_901522" data-name="Path 901522" d="M294.663,355.167s-15.281-1.639-20.107-7.5" transform="translate(-91.915 -148.325)" fill="none" stroke="#324241" stroke-linecap="round" stroke-linejoin="round" stroke-width="1"/>
                    <line id="Line_575" data-name="Line 575" x1="19.549" y2="12.058" transform="translate(203.409 191.42)" fill="none" stroke="#324241" stroke-linecap="round" stroke-linejoin="round" stroke-width="1"/>
                    <line id="Line_576" data-name="Line 576" x1="19.69" y2="6.729" transform="translate(202.809 203.478)" fill="none" stroke="#324241" stroke-linecap="round" stroke-linejoin="round" stroke-width="1"/>
                    <path id="Path_901523" data-name="Path 901523" d="M246.315,424.288c0,2.623,9.673,4.751,21.607,4.751s21.606-2.127,21.606-4.751-9.673-4.751-21.606-4.751-21.607,2.126-21.607,4.751" transform="translate(-63.072 -159.861)"/>
                    <path id="Path_901524" data-name="Path 901524" d="M291.421,370.2H246.315L250.6,406.44a12.574,12.574,0,0,0,12.487,11.1h11.571a12.574,12.574,0,0,0,12.487-11.1Z" transform="translate(-64.965 -151.941)" fill="#8b6800"/>
                    <rect id="Rectangle_404741" data-name="Rectangle 404741" width="49.58" height="19.384" rx="7.993" transform="translate(179.113 214.901)" fill="#8b6800"/>
                    <line id="Line_577" data-name="Line 577" x1="41.32" transform="translate(183.243 234.285)" fill="none" stroke="#000" stroke-linecap="round" stroke-linejoin="round" stroke-width="1"/>
                    <path id="Path_901525" data-name="Path 901525" d="M45.217,401.948c0,8.282,36.64,14.995,81.839,14.995S208.9,410.23,208.9,401.948s-36.641-14.995-81.839-14.995-81.839,6.713-81.839,14.995" transform="translate(186.38 -154.63)"/>
                    <path id="Path_901526" data-name="Path 901526" d="M169.493,268.575c2.241-11.273,7.3-34.292,15.19-56.013,3.69-10.182,22.953-10.79,8.64,24.684-1.342,3.33-6.095,28.957-9.626,39.418a9.021,9.021,0,0,1-.735,1.993c-.55,1.338-1.059,2.2-1.5,2.392-.071.031-.142.056-.212.086a8.372,8.372,0,0,1-4.461,2.723c-4.329.773-18.081-.317-36.367-1.306A88.486,88.486,0,0,0,138.4,270.9c9.965-1.434,20.84-2.709,31.1-2.326" transform="translate(118.509 -125.67)" fill="#eec3ae"/>
                    <path id="Path_901527" data-name="Path 901527" d="M123.86,242.147l30.914,3.672s22.168-45.368,1.085-49.318c-25.28-4.738-32,45.646-32,45.646" transform="translate(164.299 -124.01)" fill="#a5cbee"/>
                    <path id="Path_901528" data-name="Path 901528" d="M179.093,280.574,181.243,296l3.157-.228Z" transform="translate(98.488 -137.556)"/>
                    <path id="Path_901529" data-name="Path 901529" d="M192.7,289.425c-.964.315-8.742,2.839-9.349,1.513-.641-1.413.395-2.05,5.594-4.453s16.923-6.046,16.923-6.046-7.849-3.612-7.612-5.121c.515-3.294,6.83-1.179,9.715-.2,2.035.682,13.114,4.208,13.309,4.2,11.36-.651,15.053-.812,21.2-1.487a168.164,168.164,0,0,1,2.485,18.557c-8.735-.473-10.911.154-23.279-1.7,0,0-26.9,6.357-30.29,5.887-4.447-.615.58-3.021.855-3.13-.412.076-6.773,2.986-7.7,1.106-.749-1.509,3.9-3.54,5.238-3.863-1.556.3-6.1,2.473-6.885.313-.844-2.314,8.852-5.2,9.8-5.569" transform="translate(34.762 -136.427)" fill="#f3d171"/>
                    <line id="Line_578" data-name="Line 578" x1="7.045" y2="3.062" transform="translate(224.552 150.942)" fill="none" stroke="#000" stroke-linecap="round" stroke-linejoin="round" stroke-width="1"/>
                    <line id="Line_579" data-name="Line 579" y1="3.182" x2="8.466" transform="translate(224.552 155.073)" fill="none" stroke="#000" stroke-linecap="round" stroke-linejoin="round" stroke-width="1"/>
                    <path id="Path_901530" data-name="Path 901530" d="M227.687,290.129s-8.739,0-9.11-8.371" transform="translate(22.054 -137.746)" fill="none" stroke="#000" stroke-linecap="round" stroke-linejoin="round" stroke-width="1"/>
                    <line id="Line_580" data-name="Line 580" y1="2.694" x2="7.15" transform="translate(227.016 158.317)" fill="none" stroke="#000" stroke-linecap="round" stroke-linejoin="round" stroke-width="1"/>
                    <line id="Line_581" data-name="Line 581" x2="1.767" y2="18.083" transform="translate(274.145 141.716)" fill="none" stroke="#000" stroke-linecap="round" stroke-linejoin="round" stroke-width="1"/>
                    <path id="Path_901531" data-name="Path 901531" d="M57.545,358.153c11.795-1.969,41.363.64,42.961-3.517,1.121-2.917,6.8-4.869,10.97-5.934,2.576-.657,4.579-.977,4.579-.977l2.348,10.008-1.953.459,3.271,5.157,5.306,22.621s.859,5.077-1.124,6.188a6.708,6.708,0,0,1-1.1.493c-2.116.729-5.487.6-7.726-5.892-2.685-7.785-13.642-12.769-14.054-12.328-.335.358-26.99,8.594-36.93,11.655l-3.683,1.133-6.566-27.992a12.193,12.193,0,0,1,3.7-1.075" transform="translate(262.817 -148.334)"/>
                    <path id="Path_901532" data-name="Path 901532" d="M78.792,385.908s26.356-7.585,39.286-9.018c25.743-2.85,18.3-2.91,65.955-5.933,2.322-.148.9,17.038-1.627,17.713-49.155,13.149-42.991,21.072-99.229,20.573-10.9-.1-15.607-19.551-4.385-23.335" transform="translate(187.291 -152.063)" fill="#324241"/>
                    <path id="Path_901533" data-name="Path 901533" d="M96.868,375.636s6.675,19.787,5.061,27.466c-2.116.729-5.488.6-7.727-5.892-2.685-7.785-13.642-12.769-14.054-12.329-.334.359-26.99,8.594-36.929,11.656L36.665,368.6c11.795-1.969,41.363.639,42.962-3.517,1.12-2.917,6.8-4.869,10.97-5.933l2.618,11.157Z" transform="translate(300.274 -150.168)" fill="#f3d171"/>
                    <path id="Path_901534" data-name="Path 901534" d="M113.467,399.477,106.9,371.485a12.221,12.221,0,0,1,3.7-1.075l6.553,27.934-3.683,1.133" transform="translate(226.342 -151.975)" fill="#324241"/>
                    <path id="Path_901535" data-name="Path 901535" d="M38.681,357.989,41.029,368l-1.953.459,3.271,5.157,5.306,22.621s.859,5.077-1.124,6.188a6.717,6.717,0,0,1-1.1.493c1.614-7.679-5.061-27.466-5.061-27.466l-3.652-5.325L34.1,358.967c2.576-.658,4.579-.978,4.579-.978" transform="translate(356.769 -149.981)" fill="#324241"/>
                    <path id="Path_901536" data-name="Path 901536" d="M43.246,407.373l-1.606-2.248" transform="translate(355.032 -157.547)" fill="none" stroke="#000" stroke-linecap="round" stroke-linejoin="round" stroke-width="1"/>
                    <path id="Path_901537" data-name="Path 901537" d="M41.776,404.917l-1.284-2.088" transform="translate(357.466 -157.179)" fill="none" stroke="#000" stroke-linecap="round" stroke-linejoin="round" stroke-width="1"/>
                    <path id="Path_901538" data-name="Path 901538" d="M69.03,386.953l-4.818,2.409" transform="translate(310.299 -154.63)" fill="none" stroke="#000" stroke-linecap="round" stroke-linejoin="round" stroke-width="1"/>
                    <path id="Path_901539" data-name="Path 901539" d="M73.453,387.527l-3.694,2.408" transform="translate(301.22 -154.723)" fill="none" stroke="#000" stroke-linecap="round" stroke-linejoin="round" stroke-width="1"/>
                    <path id="Path_901540" data-name="Path 901540" d="M89.7,343.029c26.84-14.88,41.484-27.539,47.007-32.116,3.366-8.511,7.4-18.449,9.591-25.348,5.643-17.786,38.689-16.18,43.507.147,1.987,6.731,11.377,28.6,14.985,38.548,3.707,10.221-4.548,19.673-5.93,21.29a27.44,27.44,0,0,1-10.99,8.267,14.537,14.537,0,0,1-2.906,1.949c-11.818,5.883-31.519,14.96-49.426,23.069-20.028,9.072-36.379,13.948-38.5,14.311C93.433,393.765,84.58,390,83.613,383c-2.637.69-4.671.648-6.476-.3-18.074-9.464-9.177-27.623,12.565-39.677" transform="translate(170.881 -136.314)" fill="#324241"/>
                    <path id="Path_901541" data-name="Path 901541" d="M165.242,383.206s-38.675,19.492-48.833,20.87" transform="translate(170.268 -154.029)" fill="none" stroke="#000" stroke-linecap="round" stroke-linejoin="round" stroke-width="1"/>
                    <path id="Path_901542" data-name="Path 901542" d="M210.163,374.141s-17.821,14.812-15.8,24.69" transform="translate(60.042 -152.574)" fill="none" stroke="#000" stroke-linecap="round" stroke-linejoin="round" stroke-width="1"/>
                    <path id="Path_901543" data-name="Path 901543" d="M103.31,192.347c-7.759,2.508-16.729,14.919-20,24.161-3.465,9.8-7.107,14.042,6.585,36.149,3.115,20.516,1.861,32.5,5.394,33.167,13.669,2.576,57.905,2.024,48.576-14.916,1.556-13.517,3.475-29.75,3.475-29.75s3.695-30.774-1.261-39.789c-3.673-6.681-13.823-9.674-24.27-11.123a46.436,46.436,0,0,0-18.5,2.1" transform="translate(217.304 -123.021)" fill="#a5cbee"/>
                    <path id="Path_901544" data-name="Path 901544" d="M111.181,297.095c-1.58-.975,3.821-5.024,3.821-5.024s4.978-5.128-8.576-44.26c-3.929-11.342-6.3-17.634,4.593-38.594l.284.013a24.369,24.369,0,0,1,15.651-17.4l3.639-.267c-9.531,3.318-14.333,13.035-16.172,17.808,5.575.254,16.7.751,23.376.964,1.331-4.925,4.739-14.2,12.139-17.846a9.957,9.957,0,0,1,9.4.107,23.67,23.67,0,0,1,5.878,3.387c-5.629-2.993-9.962-3.041-14.054-1.026-6.1,3-9.191,10.888-10.524,15.5a2.584,2.584,0,0,1,2.042,2.354c3.688,55.16,17.227,50.765,26.547,57.608,1.629-4.907,5.285-14.005,10.3-15.12,1.455-.319,3.675-.13,6,2.614a7.614,7.614,0,0,1,2.051,6.211c1.619,1.473,2.637,4.182,3.09,8.193.427,3.776-.474,6.471-2.681,8.008-3.311,2.305-8.754,1.226-12.862-.149,3.763,4.6,8.923,11.6,9.005,15.467l-2.757.06c-.057-2.692-4.289-8.739-8.345-13.729-.028.1-.054.2-.083.3a35.968,35.968,0,0,1,4.088,10.114l-2.691.6a31.419,31.419,0,0,0-2.69-7.3C159.818,311.58,98.288,356.24,98.288,356.24A78.262,78.262,0,0,1,59.56,333.88c6.609-5.472,13.732-11.043,51.621-36.786m72.24-37.4c-1.733-2.051-2.908-1.79-3.292-1.7-3.245.719-6.622,8.114-8.465,13.828,2.967-3.606,8.141-9,12.552-9a5.107,5.107,0,0,1,.672.044,5.506,5.506,0,0,0-1.467-3.17m-8.7,12.772c3.579-1.66,7.732-4.116,9.412-6.9-2.555,0-6.342,3.376-9.412,6.9m11.687,5.6c1.312-.913,1.823-2.743,1.519-5.437a14.471,14.471,0,0,0-1.506-5.536c-2.735,4.345-9.4,7.49-13.052,8.956.044.191.087.38.118.576,3.951,1.6,10.1,3.411,12.922,1.441" transform="translate(192.464 -123.234)" fill="#63993f"/>
                    <path id="Path_901545" data-name="Path 901545" d="M142.36,300.2s-10.346,22.9-54.33,14.63" transform="translate(216.974 -140.706)" fill="none" stroke="#000" stroke-linecap="round" stroke-linejoin="round" stroke-width="1"/>
                    <path id="Path_901546" data-name="Path 901546" d="M114.121,294.16s-9.763,13.286-26.09,13.452" transform="translate(245.214 -139.736)" fill="none" stroke="#000" stroke-linecap="round" stroke-linejoin="round" stroke-width="1"/>
                    <path id="Path_901547" data-name="Path 901547" d="M129.762,249.762s8.959,17.8,19.871,26.3" transform="translate(174.668 -132.61)" fill="none" stroke="#000" stroke-linecap="round" stroke-linejoin="round" stroke-width="1"/>
                    <path id="Path_901548" data-name="Path 901548" d="M83.569,301.451a9.375,9.375,0,0,0-.214-9.215c1-1.627-.019-3.991-1.511-5.181" transform="translate(279.852 -138.596)" fill="none" stroke="#000" stroke-linecap="round" stroke-linejoin="round" stroke-width="1"/>
                    <path id="Path_901549" data-name="Path 901549" d="M64.891,277.922a5.7,5.7,0,0,1-1.482,3.365" transform="translate(315.113 -137.13)" fill="none" stroke="#000" stroke-linecap="round" stroke-linejoin="round" stroke-width="1"/>
                    <path id="Path_901550" data-name="Path 901550" d="M67.824,276.773a4.86,4.86,0,0,1-1.135,2.4" transform="translate(309.426 -136.945)" fill="none" stroke="#000" stroke-linecap="round" stroke-linejoin="round" stroke-width="1"/>
                    <path id="Path_901551" data-name="Path 901551" d="M82.287,296.926c-1.178-.856-3.317-2.173-4.494-3.03a4.312,4.312,0,0,0,2.911-1.609" transform="translate(285.641 -139.436)" fill="none" stroke="#000" stroke-linecap="round" stroke-linejoin="round" stroke-width="1"/>
                    <path id="Path_901552" data-name="Path 901552" d="M123.187,214.159q-1.847-.161-3.694-.322" transform="translate(209.735 -126.844)" fill="none" stroke="#000" stroke-linecap="round" stroke-linejoin="round" stroke-width="1"/>
                    <path id="Path_901553" data-name="Path 901553" d="M153.03,212.641l-3.7-.293" transform="translate(154.839 -126.605)" fill="none" stroke="#000" stroke-linecap="round" stroke-linejoin="round" stroke-width="1"/>
                    <path id="Path_901554" data-name="Path 901554" d="M157.444,227.419a8.035,8.035,0,0,0-1.606,3.694" transform="translate(144.966 -129.024)" fill="none" stroke="#000" stroke-linecap="round" stroke-linejoin="round" stroke-width="1"/>
                    <path id="Path_901555" data-name="Path 901555" d="M155.08,230.1a10.792,10.792,0,0,0-.963,4.336" transform="translate(148.775 -129.453)" fill="none" stroke="#000" stroke-linecap="round" stroke-linejoin="round" stroke-width="1"/>
                    <path id="Path_901556" data-name="Path 901556" d="M199.664,343.71a1.284,1.284,0,0,0,.81-.287c.211-.17,20.864-17.176,7.4-34.052-2.435-3.052-5.324-4.708-8.586-4.919-3.031-.2-7.95.824-14.132,6.8-.086.082-.151.147-.2.189a1.292,1.292,0,0,0,1.269,2.228,2.2,2.2,0,0,0,.724-.559c5.5-5.319,9.652-6.242,12.17-6.08s4.77,1.492,6.733,3.952c11.859,14.867-6.23,29.8-7.006,30.431a1.292,1.292,0,0,0,.813,2.3" transform="translate(65.965 -141.384)" fill="#d0e9bb"/>
                    <path id="Path_901557" data-name="Path 901557" d="M195.079,335.906l6.253-19.549,5.495,11.032,32.78,14.073c-.578-1.436-.961-2.418-1-2.586-.176-.8-10.2-16.907-10.2-16.907l8.541-4.255,8.481-4.225,8.542-4.254s6.819,17.7,7.351,18.324,11,18.51,11,18.51l-8.542,4.254-8.481,4.225-8.542,4.254s-.814-1.954-1.927-4.634l-40.5-22.428Z" transform="translate(-2.854 -142.156)" fill="#d0e9bb"/>
                    <rect id="Rectangle_404742" data-name="Rectangle 404742" width="1.59" height="31.808" transform="translate(224.339 180.64) rotate(-116.478)" fill="#d0e9bb"/>
                    <rect id="Rectangle_404743" data-name="Rectangle 404743" width="1.59" height="31.808" transform="translate(242.804 218.082) rotate(-116.478)" fill="#d0e9bb"/>
                    <rect id="Rectangle_404744" data-name="Rectangle 404744" width="1.59" height="26.507" transform="translate(191.45 196.544) rotate(-162.087)" fill="#d0e9bb"/>
                    <line id="Line_582" data-name="Line 582" x1="25.641" y2="12.539" transform="translate(225.556 167.274)" fill="none" stroke="#000" stroke-linecap="round" stroke-linejoin="round" stroke-width="1"/>
                    <line id="Line_583" data-name="Line 583" x1="25.123" y2="12.513" transform="translate(243.735 203.328)" fill="none" stroke="#000" stroke-linecap="round" stroke-linejoin="round" stroke-width="1"/>
                    <line id="Line_584" data-name="Line 584" x1="6.221" y2="19.245" transform="translate(192.374 174.437)" fill="none" stroke="#000" stroke-linecap="round" stroke-linejoin="round" stroke-width="1"/>
                    <path id="Path_901558" data-name="Path 901558" d="M85.77,280.125c6.513-3.2,16.2-7.71,25.928-10.4,1.462-12.552,4.772-36.019,11.052-58.58a10.531,10.531,0,0,1,7.176-7.418,6.676,6.676,0,0,1,6.634,1.948c4.291,4.584,4.056,15.311-.661,30.2-.541,1.714-1.985,10.225-3.381,18.457-3.491,20.583-4.489,25.552-5.339,26.587a14.151,14.151,0,0,1-2.331,2.286,7.948,7.948,0,0,1-2.068,1.687c-3.153,1.739-12.016,4.179-24.281,7.555-2.237.615-4.586,1.263-7.031,1.941l-1.1.3-.506-1.019a104.634,104.634,0,0,1-4.784-11.853l-.412-1.156Z" transform="translate(222.543 -125.186)" fill="#eec3ae"/>
                    <path id="Path_901559" data-name="Path 901559" d="M78.662,240.042l29.656,2.663s11.383-40.593-9.94-42.916C72.81,197,78.662,240.042,78.662,240.042" transform="translate(256.329 -124.568)" fill="#a5cbee"/>
                    <path id="Path_901560" data-name="Path 901560" d="M141.255,306.966c4.014-3.816,3.887-4.558,6.832-4.56a65.345,65.345,0,0,1,8.716,1.429c7.011-3.121,15.394-9.5,24.911-14.181,3.124,4.725,6.016,14.8,7.6,19.406-7.641,2.12-14.388,1.659-23.4,4.4,0,0-16.89,12.371-19.093,6.127-.353.2-2.408.694-3.279-.127a1.954,1.954,0,0,1-.745-2.3,3.186,3.186,0,0,1-3.5-.213c-1.472-1.308-1.055-1.88-.6-2.992-1.7-.909-1.451-3.177,2.562-6.991" transform="translate(128.322 -139.013)" fill="#f3d171"/>
                    <line id="Line_585" data-name="Line 585" x1="8.011" y2="7.874" transform="translate(267.014 166.11)" fill="none" stroke="#000" stroke-linecap="round" stroke-linejoin="round" stroke-width="1"/>
                    <line id="Line_586" data-name="Line 586" x1="6.077" y2="5.777" transform="translate(271.815 171.958)" fill="none" stroke="#000" stroke-linecap="round" stroke-linejoin="round" stroke-width="1"/>
                    <line id="Line_587" data-name="Line 587" x1="5.149" y2="4.606" transform="translate(276.526 175.97)" fill="none" stroke="#000" stroke-linecap="round" stroke-linejoin="round" stroke-width="1"/>
                    <path id="Path_901561" data-name="Path 901561" d="M141.7,291.108s6.263,16.571,6.63,18.976" transform="translate(165.952 -139.246)" fill="none" stroke="#000" stroke-linecap="round" stroke-linejoin="round" stroke-width="1"/>
                    <path id="Path_901562" data-name="Path 901562" d="M133.645,294.2l8.975,12.8-3.927,1.082Z" transform="translate(178.42 -139.743)"/>
                    <path id="Path_901563" data-name="Path 901563" d="M90.528,247.763l16.579,7.32.815-4.657Z" transform="translate(249.315 -132.289)"/>
                    <path id="Path_901564" data-name="Path 901564" d="M111.688,242.742l-29.656-2.663s-3.593-37.6,12.9-40.187" transform="translate(252.96 -124.605)" fill="none" stroke="#000" stroke-linecap="round" stroke-linejoin="round" stroke-width="1"/>
                    <path id="Path_901565" data-name="Path 901565" d="M117.223,176.2s19.182,1.922,24.848-1.6,7.415-2.215,11.027-2.9c4.281-.813,4.784-7.435,4.281-8.891-1.563-4.529-3.209-3.046-7.344-6.424s-7.351-15.783-9.343-19.459-6.54-12.557-19.657-13.17S98.1,126.971,92.291,141.826s.313,12.927,1.079,12.973,12.712-3.1,12.712-3.1,11.1,1.112,11.142,1.667,0,22.832,0,22.832" transform="translate(200.302 -112.375)" fill="#72ac78"/>
                    <path id="Path_901566" data-name="Path 901566" d="M113.1,177.582s2.748,13.752,2.869,14.875,13.932,3.9,17.894-5.148c-.536-1.914-7.357-24.87-7.357-24.87Z" transform="translate(204.42 -118.594)" fill="#eec3ae"/>
                    <path id="Path_901567" data-name="Path 901567" d="M128.959,128.612c-23.023,6.863-11.207,42.474-11.207,42.474l3.447-.861s5.284,13.17,5.994,12.986c9.534-2.488,18.283-10.259,18.853-11.917.293-.745,1.3-5.238.158-8.494-.4-.052,11.786-6.881,4.629-25.292-1.8-3.882-14.155-11.2-21.874-8.9" transform="translate(183.837 -113.093)" fill="#eec3ae"/>
                    <path id="Path_901568" data-name="Path 901568" d="M146.186,177.814a3.446,3.446,0,0,1-2.592,3.946" transform="translate(166.457 -121.061)" fill="none" stroke="#000" stroke-linecap="round" stroke-linejoin="round" stroke-width="1"/>
                    <path id="Path_901569" data-name="Path 901569" d="M148.712,168.156a.948.948,0,1,0,.186-1.327.95.95,0,0,0-.186,1.327" transform="translate(158.136 -119.268)"/>
                    <path id="Path_901570" data-name="Path 901570" d="M146.474,164.607c.529.243,1.688-1.232,3.466-1.895s3.618-.306,3.86-.836-1.982-2.115-4.6-1.14-3.261,3.628-2.73,3.871" transform="translate(156.597 -118.27)"/>
                    <path id="Path_901571" data-name="Path 901571" d="M125.951,156.852s.923-1.9,2.3-1.523c1.343.367,1.679,1.216,2.155,3.285" transform="translate(197.09 -117.445)"/>
                    <path id="Path_901572" data-name="Path 901572" d="M125.951,156.852s.923-1.9,2.3-1.523c1.343.367,1.679,1.216,2.155,3.285" transform="translate(197.09 -117.445)" fill="none" stroke="#000" stroke-linecap="round" stroke-linejoin="round" stroke-width="1"/>
                    <path id="Path_901573" data-name="Path 901573" d="M130.6,189.276l4.524-2.827-3.885,6.118Z" transform="translate(188.473 -122.448)"/>
                    <path id="Path_901574" data-name="Path 901574" d="M101.664,135.454s-7.991,13.182-4.365,13.966,10.469-1.561,14.2-1.875,7.055-.628,8.2,1.1-.546,5.282,3.172,4.909c0,0,2.445-5.536,5.2-5.38s5.871,2.03,5.871,5.38c0,4.181-3.418,6.587-3.189,7.827s-2.111,14.886.851,16.7,5.184,0,7.055-1.562c5.614-4.687,15.921-10.756,15.921-10.756l-11.438-23.083-7.484-11.934s-15.071-4.4-15.254-4.4-12.5,2.827-12.5,2.827Z" transform="translate(197.768 -112.8)" fill="#72ac78"/>
                    <path id="Path_901575" data-name="Path 901575" d="M111.248,182.461a6.2,6.2,0,0,0,2-9.5,8.983,8.983,0,0,0-.962-9.166" transform="translate(225.17 -118.811)" fill="none" stroke="#000" stroke-linecap="round" stroke-linejoin="round" stroke-width="1"/>
                    <path id="Path_901576" data-name="Path 901576" d="M98.168,157.61a7.442,7.442,0,0,1,1.393,7.948,6.477,6.477,0,0,1,6.113,4.708,6.592,6.592,0,0,1-3.019,7.184" transform="translate(244.958 -117.818)" fill="none" stroke="#000" stroke-linecap="round" stroke-linejoin="round" stroke-width="1"/>
                    <path id="Path_901577" data-name="Path 901577" d="M159.933,150.823s-22.825,4.83-32.451,5.022a163.684,163.684,0,0,1-22.253-1.667l.689-3.355,52.726-2.408Z" transform="translate(184.964 -116.343)"/>
                    <path id="Path_901578" data-name="Path 901578" d="M109.394,133.89s-13.871,5.4-19.242,6.315-9.8,3.388-.02,6.869,31.434,6.082,52.048,2.9,29.213-.57,31.994.082c0,0,.967-1.408-2.359-6.058s-17.6-9.143-17.6-9.143-28.161,3.836-44.822-.963" transform="translate(188.126 -114.011)" fill="#d2984e"/>
                    <path id="Path_901579" data-name="Path 901579" d="M108.272,130.089s2.435-11.561,7.869-16.2,9.252-.836,21.158-3.49c8.277-1.846,14.682,10.539,15.794,20.657,0,0-29.85,6.851-44.822-.963" transform="translate(189.247 -110.21)" fill="#f3d171"/>
                    <path id="Path_901580" data-name="Path 901580" d="M153.094,134.854s-34.044,6.518-44.822-.963" transform="translate(189.247 -114.011)" fill="none" stroke="#000" stroke-linecap="round" stroke-linejoin="round" stroke-width="1"/>
                    <path id="Path_901581" data-name="Path 901581" d="M152.825,119.8,152,122.45" transform="translate(152.811 -111.749)" fill="none" stroke="#000" stroke-linecap="round" stroke-linejoin="round" stroke-width="1"/>
                    <path id="Path_901582" data-name="Path 901582" d="M150.691,120.589q-.829,2.32-1.656,4.639" transform="translate(157.43 -111.876)" fill="none" stroke="#000" stroke-linecap="round" stroke-linejoin="round" stroke-width="1"/>
                    <path id="Path_901583" data-name="Path 901583" d="M94.99,147.908l-3.976-2.651" transform="translate(261.839 -115.836)" fill="none" stroke="#000" stroke-linecap="round" stroke-linejoin="round" stroke-width="1"/>
                    <path id="Path_901584" data-name="Path 901584" d="M105.237,142.84a15.336,15.336,0,0,0-6.143-3.29" transform="translate(244.81 -114.92)" fill="none" stroke="#000" stroke-linecap="round" stroke-linejoin="round" stroke-width="1"/>
                    <path id="Path_901585" data-name="Path 901585" d="M423.5,433.508c0,2.414,10.681,4.371,23.856,4.371s23.857-1.957,23.857-4.371-10.681-4.371-23.857-4.371-23.856,1.957-23.856,4.371" transform="translate(-393.502 -161.402)"/>
                    <path id="Path_901586" data-name="Path 901586" d="M468.609,378.771a15.046,15.046,0,0,0-6.371-11.231c-6.37-4.694-10.562-3.018-10.562-3.018a34.322,34.322,0,0,0-6.705-2.514c-4.694-.841-10.562.335-13.915,6.2a33.074,33.074,0,0,0-4.023,10.562l17.937,9.052Z" transform="translate(-393.865 -150.587)" fill="#d2984e"/>
                    <path id="Path_901587" data-name="Path 901587" d="M440.714,367.78c0,.156.267.283.6.283s.6-.127.6-.283-.268-.283-.6-.283-.6.127-.6.283" transform="translate(-378.649 -151.508)" fill="#f3d171"/>
                    <path id="Path_901588" data-name="Path 901588" d="M457.938,372.146c0,.416.577.755,1.289.755s1.289-.338,1.289-.755-.577-.755-1.289-.755-1.289.338-1.289.755" transform="translate(-411.715 -152.133)" fill="#f3d171"/>
                    <path id="Path_901589" data-name="Path 901589" d="M461.907,365.49c0,.173.366.314.818.314s.817-.141.817-.314-.366-.315-.817-.315-.818.14-.818.315" transform="translate(-418.073 -151.135)" fill="#f3d171"/>
                    <path id="Path_901590" data-name="Path 901590" d="M464.454,367.236c0,.1.192.188.429.188s.429-.084.429-.188-.191-.189-.429-.189-.429.084-.429.189" transform="translate(-421.982 -151.435)" fill="#f3d171"/>
                    <path id="Path_901591" data-name="Path 901591" d="M433.375,374.413c0,.139.3.251.661.251s.66-.112.66-.251-.3-.251-.66-.251-.661.112-.661.251" transform="translate(-365.275 -152.577)" fill="#f3d171"/>
                    <path id="Path_901592" data-name="Path 901592" d="M470.992,376.233H424.513l5.158,43.671a5.791,5.791,0,0,0,5.751,5.113h24.66a5.793,5.793,0,0,0,5.752-5.113Z" transform="translate(-394.132 -152.91)" fill="#72ac78"/>
                    <path id="Path_901593" data-name="Path 901593" d="M446.572,398.664c24.727,0,26.305-21,26.319-21.217a.839.839,0,0,0-.786-.889.829.829,0,0,0-.891.785c-.051.8-1.521,19.642-24.642,19.642-23.157,0-24.312-18.829-24.35-19.63a.823.823,0,0,0-.878-.8.84.84,0,0,0-.8.878c.01.212,1.288,21.23,26.028,21.23" transform="translate(-392.699 -152.961)" fill="#d0e9bb"/>
                    <rect id="Rectangle_404745" data-name="Rectangle 404745" width="49.161" height="2.222" transform="translate(29.438 223.323)" fill="#324241"/>
                    <path id="Path_901594" data-name="Path 901594" d="M470.4,413.707q.247,2.69.493,5.379" transform="translate(-432.561 -158.925)" fill="none" stroke="#000" stroke-linecap="round" stroke-linejoin="round" stroke-width="1"/>
                    <line id="Line_588" data-name="Line 588" y2="4.597" transform="translate(39.82 257.128)" fill="none" stroke="#000" stroke-linecap="round" stroke-linejoin="round" stroke-width="1"/>
                    <line id="Line_589" data-name="Line 589" x1="45.479" transform="translate(31.115 225.537)" fill="none" stroke="#000" stroke-linecap="round" stroke-linejoin="round" stroke-width="1"/>
                    <path id="Path_901595" data-name="Path 901595" d="M435.529,415l-1.657,6.848" transform="translate(-366.526 -159.132)" fill="none" stroke="#000" stroke-linecap="round" stroke-linejoin="round" stroke-width="1"/>
                    <path id="Path_901596" data-name="Path 901596" d="M437.365,407.527q-1.315,6.427-3.2,12.722" transform="translate(-368.61 -157.933)" fill="none" stroke="#000" stroke-linecap="round" stroke-linejoin="round" stroke-width="1"/>
                    <path id="Path_901597" data-name="Path 901597" d="M448.356,372.107a2.7,2.7,0,0,0-3.169-2.424,2.658,2.658,0,0,0-1.019-1.861,2.348,2.348,0,0,0-1.913-.568" transform="translate(-386.39 -151.464)" fill="none" stroke="#000" stroke-linecap="round" stroke-linejoin="round" stroke-width="1"/>
                    <path id="Path_901598" data-name="Path 901598" d="M459.493,367.494a3.775,3.775,0,0,0-3.078,3.392" transform="translate(-409.414 -151.507)" fill="none" stroke="#000" stroke-linecap="round" stroke-linejoin="round" stroke-width="1"/>
                    <path id="Path_901599" data-name="Path 901599" d="M153.644,445.458c-5.74,4.483-13.054,5.309-17.23,5.369a3.532,3.532,0,0,1-3.579-3.439c-.107-4.175.426-11.516,4.678-17.43a63.4,63.4,0,0,1,10.644-11.587,2.061,2.061,0,0,1,3.113.58l2.076,3.688a16.777,16.777,0,0,0,6.98,6.706l3.768,1.927a2.061,2.061,0,0,1,.7,3.088,63.387,63.387,0,0,1-11.153,11.1" transform="translate(156.509 -159.597)" fill="#a5cbee"/>
                    <line id="Line_590" data-name="Line 590" y1="18.59" x2="17.863" transform="translate(294.603 267.31)" fill="none" stroke="#000" stroke-linecap="round" stroke-linejoin="round" stroke-width="1"/>
                    <rect id="Rectangle_404746" data-name="Rectangle 404746" width="2.861" height="11.883" transform="matrix(-0.721, -0.693, 0.693, -0.721, 317.239, 264.406)" fill="#a5cbee"/>
                    <rect id="Rectangle_404747" data-name="Rectangle 404747" width="2.861" height="1.837" transform="matrix(-0.721, -0.693, 0.693, -0.721, 319.206, 262.36)"/>
                    <path id="Path_901600" data-name="Path 901600" d="M143.727,431.765a11.17,11.17,0,0,1-5.636,2.919,2.291,2.291,0,0,1-2.749-2.641,11.183,11.183,0,0,1,2.692-5.749c2.418-2.516,4.249-2.788,5-2.773l3.129-3.256a1.333,1.333,0,0,1,1.885-.038l1.347,1.294a1.333,1.333,0,0,1,.038,1.885l-3.13,3.256c.045.745-.154,2.586-2.571,5.1" transform="translate(169.848 -159.912)" fill="#e2a8be"/>
                    <path id="Path_901601" data-name="Path 901601" d="M124.014,404.945c-2.309,1.587-6.462,1.9-7.141,4.621a6.227,6.227,0,0,1-3.759,3.792l-.64-.615L110.662,411l-.64-.615a6.227,6.227,0,0,1,3.638-3.908c2.689-.787,2.837-4.949,4.332-7.319s3.491-4.656,6.2-5.377a5.129,5.129,0,0,1,3.452.24l.1-.1a19.351,19.351,0,0,1,1.115,1.071l-.1.107a5.127,5.127,0,0,1,.378,3.439c-.613,2.734-2.816,4.821-5.125,6.409" transform="translate(211.598 -155.696)" fill="#e2a8be"/>
                    <path id="Path_901602" data-name="Path 901602" d="M113.217,403.266,115.578,401" transform="translate(222.612 -156.885)" fill="none" stroke="#000" stroke-linecap="round" stroke-linejoin="round" stroke-width="1"/>
                    <path id="Path_901603" data-name="Path 901603" d="M113.688,401.543l2.18-2.079" transform="translate(221.927 -156.639)" fill="none" stroke="#000" stroke-linecap="round" stroke-linejoin="round" stroke-width="1"/>
                    <path id="Path_901604" data-name="Path 901604" d="M140.423,425.327l-1.451,1.51" transform="translate(176.146 -160.79)" fill="none" stroke="#000" stroke-linecap="round" stroke-linejoin="round" stroke-width="1"/>
                    <path id="Path_901605" data-name="Path 901605" d="M132.857,455.1c4.082-4.492,8.265-8.991,13.348-12.307s11.23-5.382,17.234-4.493,11.566,4.022,12.942,9.934a19.8,19.8,0,0,1,21.376,8.414Z" transform="translate(123.945 -162.839)" fill="#d2984e"/>
                    <path id="Path_901606" data-name="Path 901606" d="M180.057,456.913a11.94,11.94,0,0,0-15.99-8.461,13.03,13.03,0,0,0-18.768-6.717c-.127-2.471-4.349-4.082-6.463-2.8" transform="translate(136.627 -162.902)" fill="none" stroke="#f3d171" stroke-linecap="round" stroke-linejoin="round" stroke-width="1"/>
                    <rect id="Rectangle_404748" data-name="Rectangle 404748" width="27.655" height="2.981" transform="translate(120.542 283.348) rotate(-126.412)" fill="#a5cbee"/>
                    <rect id="Rectangle_404749" data-name="Rectangle 404749" width="1.914" height="2.981" transform="translate(114.231 274.792) rotate(-126.399)"/>
                    <path id="Path_901607" data-name="Path 901607" d="M398.562,404.02c1.223,2.651.814,6.972,3.487,8.148a6.488,6.488,0,0,1,3.231,4.529l-.744.549-2.11,1.556-.745.549a6.491,6.491,0,0,1-3.372-4.426c-.333-2.9-4.582-3.787-6.753-5.74s-4.167-4.407-4.43-7.315a5.351,5.351,0,0,1,.855-3.5l-.087-.123a3.322,3.322,0,0,1,.639-.492,3.274,3.274,0,0,1,.658-.464l.092.12a5.349,5.349,0,0,1,3.6.218c2.7,1.111,4.455,3.742,5.678,6.394" transform="translate(-297.016 -156.274)" fill="#e2a8be"/>
                    <path id="Path_901608" data-name="Path 901608" d="M400.483,403.919l-1.914-2.825" transform="translate(-301.843 -156.9)" fill="none" stroke="#000" stroke-linecap="round" stroke-linejoin="round" stroke-width="1"/>
                    <path id="Path_901609" data-name="Path 901609" d="M402.173,403.913l-1.752-2.606" transform="translate(-305.088 -156.934)" fill="none" stroke="#000" stroke-linecap="round" stroke-linejoin="round" stroke-width="1"/>
                    <path id="Path_901610" data-name="Path 901610" d="M378.365,444.41a23.792,23.792,0,0,1,1.9,4.995,1.144,1.144,0,0,1-2.053.93c-.238-.353-.478-.705-.725-1.053-1.247-1.757-6.846-9.129-8.768-10.1a5.643,5.643,0,0,0-6.087.362s7.473,10.343,9.584,16.277a1.143,1.143,0,0,1-1.756,1.3c-5.045-3.771-12.718-13.967-12.718-13.967a5.645,5.645,0,0,0-2.145,5.709c.363,2.124,5.75,9.651,7.06,11.362.26.339.526.673.792,1a1.144,1.144,0,0,1-1.5,1.687,23.816,23.816,0,0,1-4.209-3.293c-2.452-2.471-8.36-11.535-8.008-15,.374-3.67,3.373-7.037,6.58-8.862,2.691-2.524,6.469-4.156,10.086-3.428,3.412.687,10.326,9.01,11.961,12.082" transform="translate(-240.665 -161.886)" fill="#a5cbee"/>
                    <path id="Path_901611" data-name="Path 901611" d="M384.092,450.117a8.211,8.211,0,0,1-.314-4.315" transform="translate(-272.906 -164.076)" fill="none" stroke="#000" stroke-linecap="round" stroke-linejoin="round" stroke-width="1"/>
                    <path id="Path_901612" data-name="Path 901612" d="M382.426,448.318a3.519,3.519,0,0,1,.322-2.439" transform="translate(-270.482 -164.089)" fill="none" stroke="#000" stroke-linecap="round" stroke-linejoin="round" stroke-width="1"/>
                    <path id="Path_901613" data-name="Path 901613" d="M370.958,441.793l1.3-.876" transform="translate(-250.442 -163.292)" fill="none" stroke="#000" stroke-linecap="round" stroke-linejoin="round" stroke-width="1"/>
                    <path id="Path_901614" data-name="Path 901614" d="M361.226,440.794a10.394,10.394,0,0,0-2.848-3.328" transform="translate(-228.846 -162.738)" fill="none" stroke="#000" stroke-linecap="round" stroke-linejoin="round" stroke-width="1"/>
                    <path id="Path_901615" data-name="Path 901615" d="M384.327,470.764H343.788c3.215-4.114,7.044-7.986,11.913-9.87s11.077-2.021,14.677,1.761a9.532,9.532,0,0,1,13.717-9.7Z" transform="translate(-239.699 -165.069)" fill="#d2984e"/>
                    <path id="Path_901616" data-name="Path 901616" d="M391.72,452.24a13.567,13.567,0,0,0-16.138,10.741c-2.313-2.814-6.227-4.82-9.851-4.455a17.752,17.752,0,0,0-9.723,4.586,42.5,42.5,0,0,0-6.944,8.394c-.963-1.429-2.362-1.609-4.085-1.625a5.433,5.433,0,0,0-4.419,2.273" transform="translate(-244.382 -165.064)" fill="none" stroke="#f3d171" stroke-linecap="round" stroke-linejoin="round" stroke-width="1"/>
                  </g>
                </g>
              </g>
            </g>
          </g>
        </g>
      </g>
    </g>
  </g>
</svg>
