<svg xmlns="http://www.w3.org/2000/svg" xmlns:xlink="http://www.w3.org/1999/xlink" width="113" height="113" viewBox="0 0 113 113">
  <defs>
    <filter id="Path_982547" x="0" y="0" width="113" height="113" filterUnits="userSpaceOnUse">
      <feOffset dy="3" input="SourceAlpha"/>
      <feGaussianBlur stdDeviation="3" result="blur"/>
      <feFlood flood-opacity="0.161"/>
      <feComposite operator="in" in2="blur"/>
      <feComposite in="SourceGraphic"/>
    </filter>
  </defs>
  <g id="Group_1175437" data-name="Group 1175437" transform="translate(-586.25 -8920.061)">
    <g id="Group_1175117" data-name="Group 1175117" transform="translate(314.25 7915.008)">
      <g id="Group_1174859" data-name="Group 1174859" transform="translate(281 1011.053)">
        <g id="Group_1167343" data-name="Group 1167343" transform="translate(0)">
          <g id="Group_1166777" data-name="Group 1166777" transform="translate(0)">
            <g id="Group_1164305" data-name="Group 1164305">
              <g id="Group_1163948" data-name="Group 1163948">
                <g id="Group_1158168" data-name="Group 1158168">
                  <g id="Group_1152576" data-name="Group 1152576">
                    <g id="Group_1148633" data-name="Group 1148633">
                      <g id="Group_1148525" data-name="Group 1148525">
                        <g transform="matrix(1, 0, 0, 1, -9, -6)" filter="url(#Path_982547)">
                          <g id="Path_982547-2" data-name="Path 982547" transform="translate(9 6)" fill="#f4f9ff">
                            <path d="M 47.5 93.5 C 41.28937149047852 93.5 35.26533508300781 92.28397369384766 29.59518623352051 89.88570404052734 C 24.11771965026855 87.56893157958984 19.19813346862793 84.25196075439453 14.97309303283691 80.02691650390625 C 10.74804019927979 75.80186462402344 7.431066513061523 70.88229370117188 5.114293098449707 65.40481567382812 C 2.716026782989502 59.73468017578125 1.5 53.71062850952148 1.5 47.5 C 1.5 41.28937149047852 2.716026782989502 35.26533508300781 5.114293098449707 29.59518623352051 C 7.431066513061523 24.11771965026855 10.74804019927979 19.19813346862793 14.97309303283691 14.97309303283691 C 19.19813346862793 10.74804019927979 24.11771965026855 7.431066513061523 29.59518623352051 5.114293098449707 C 35.26533508300781 2.716026782989502 41.28937149047852 1.5 47.5 1.5 C 53.71062850952148 1.5 59.73468017578125 2.716026782989502 65.40481567382812 5.114293098449707 C 70.88229370117188 7.431066513061523 75.80186462402344 10.74804019927979 80.02691650390625 14.97309303283691 C 84.25196075439453 19.19813346862793 87.56893157958984 24.11771965026855 89.88570404052734 29.59518623352051 C 92.28397369384766 35.26533508300781 93.5 41.28937149047852 93.5 47.5 C 93.5 53.71062850952148 92.28397369384766 59.73468017578125 89.88570404052734 65.40481567382812 C 87.56893157958984 70.88229370117188 84.25196075439453 75.80186462402344 80.02691650390625 80.02691650390625 C 75.80186462402344 84.25196075439453 70.88229370117188 87.56893157958984 65.40481567382812 89.88570404052734 C 59.73468017578125 92.28397369384766 53.71062850952148 93.5 47.5 93.5 Z" stroke="none"/>
                            <path d="M 47.5 3 C 41.49121475219727 3 35.66376876831055 4.176155090332031 30.17950439453125 6.495796203613281 C 24.88084411621094 8.736953735351562 20.12152099609375 11.94598388671875 16.03375244140625 16.03375244140625 C 11.94598388671875 20.12152099609375 8.736953735351562 24.88084411621094 6.495796203613281 30.17950439453125 C 4.176155090332031 35.66376876831055 3 41.49121475219727 3 47.5 C 3 53.50878524780273 4.176155090332031 59.33624649047852 6.495796203613281 64.82049560546875 C 8.736953735351562 70.11917114257812 11.94598388671875 74.87849426269531 16.03375244140625 78.96626281738281 C 20.12152099609375 83.05403137207031 24.88084411621094 86.2630615234375 30.17950439453125 88.50419616699219 C 35.66376876831055 90.82384490966797 41.49121475219727 92 47.5 92 C 53.50878524780273 92 59.33624649047852 90.82384490966797 64.82049560546875 88.50419616699219 C 70.11917114257812 86.2630615234375 74.87849426269531 83.05403137207031 78.96626281738281 78.96626281738281 C 83.05403137207031 74.87849426269531 86.2630615234375 70.11917114257812 88.50419616699219 64.82049560546875 C 90.82384490966797 59.33624649047852 92 53.50878524780273 92 47.5 C 92 41.49121475219727 90.82384490966797 35.66376876831055 88.50419616699219 30.17950439453125 C 86.2630615234375 24.88084411621094 83.05403137207031 20.12152099609375 78.96626281738281 16.03375244140625 C 74.87849426269531 11.94598388671875 70.11917114257812 8.736953735351562 64.82049560546875 6.495796203613281 C 59.33624649047852 4.176155090332031 53.50878524780273 3 47.5 3 M 47.5 0 C 73.73353576660156 0 95 21.2664794921875 95 47.5 C 95 73.73353576660156 73.73353576660156 95 47.5 95 C 21.2664794921875 95 0 73.73353576660156 0 47.5 C 0 21.2664794921875 21.2664794921875 0 47.5 0 Z" stroke="none" fill="#719acc"/>
                          </g>
                        </g>
                      </g>
                    </g>
                  </g>
                </g>
              </g>
            </g>
          </g>
        </g>
      </g>
    </g>
    <g id="gardener_360446" transform="translate(613.601 8937.09)">
      <path id="SVGCleanerId_0" d="M133.542,310.326V312.6a1.885,1.885,0,0,0,1.16,1.74l7.526,3.136a4.618,4.618,0,0,1,2.625,4.185v9.076H112.805v-9.076a4.618,4.618,0,0,1,2.625-4.185l7.526-3.136a1.885,1.885,0,0,0,1.16-1.74v-2.278Z" transform="translate(-100.181 -267.776)" fill="#89cd37"/>
      <path id="SVGCleanerId_1" d="M213.876,316.163v5.825a4.72,4.72,0,0,0,4.707,4.7h0a4.729,4.729,0,0,0,4.719-4.7v-5.825Z" transform="translate(-189.941 -272.959)" fill="#febba0"/>
      <ellipse id="Ellipse_11648" data-name="Ellipse 11648" cx="19.378" cy="4.462" rx="19.378" ry="4.462" transform="translate(9.27 21.614)" fill="#e59752"/>
      <path id="SVGCleanerId_2" d="M141.166,79.976V76.569a10.5,10.5,0,1,1,21.007,0h.041v3.407a2.619,2.619,0,0,1,0,5.239v1.955a5.137,5.137,0,0,1-2.148,3.921l-6.332,3.62a3.633,3.633,0,0,1-4.089,0l-6.313-3.62a5.155,5.155,0,0,1-2.167-3.921V85.215a2.619,2.619,0,0,1,0-5.239Z" transform="translate(-123.042 -50.851)" fill="#febba0"/>
      <rect id="SVGCleanerId_3" width="11.341" height="14.266" transform="translate(37.703 48.699)" fill="#0f8ee3"/>
      <path id="SVGCleanerId_4" d="M153.79,41.271A66.643,66.643,0,0,0,140.911,42.4c1.271-6.548,6.55-11.458,12.872-11.458s11.6,4.909,12.872,11.456A66.677,66.677,0,0,0,153.79,41.271Z" transform="translate(-125.141 -19.657)" fill="#eeb45d"/>
      <path id="SVGCleanerId_5" d="M45.34,36.87c-4.091.916-6.66-1.653-5.744-5.744C43.687,30.21,46.256,32.779,45.34,36.87Z" transform="translate(-35 -19.657)" fill="#89cd37"/>
      <path id="SVGCleanerId_6" d="M435.159,19.458c.916,4.091-1.653,6.66-5.744,5.744C428.5,21.111,431.067,18.542,435.159,19.458Z" transform="translate(-381.193 -9.295)" fill="#89cd37"/>
      <path id="SVGCleanerId_7" d="M25.436,239.119a2.211,2.211,0,0,0-2.153-2.208,2.209,2.209,0,0,0-3.123-3.123,2.209,2.209,0,0,0-4.416,0,2.209,2.209,0,0,0-3.123,3.123,2.209,2.209,0,0,0,0,4.416,2.209,2.209,0,0,0,3.123,3.123,2.209,2.209,0,0,0,4.416,0,2.209,2.209,0,0,0,3.123-3.123A2.21,2.21,0,0,0,25.436,239.119Z" transform="translate(-9.297 -197.891)" fill="#ffaf18"/>
      <circle id="Ellipse_11649" data-name="Ellipse 11649" cx="2.573" cy="2.573" r="2.573" transform="translate(6.083 38.666)" fill="#ff5957"/>
      <path id="SVGCleanerId_8" d="M492.128,484.632h-.015a1.169,1.169,0,1,1,0-2.339h.015a1.169,1.169,0,1,1,0,2.339Z" transform="translate(-436 -420.497)"/>
      <path id="SVGCleanerId_9" d="M1.185,484.633H1.169a1.169,1.169,0,1,1,0-2.339h.015a1.169,1.169,0,1,1,0,2.339Z" transform="translate(0 -420.498)"/>
      <path id="SVGCleanerId_10" d="M207.512,205.934a1.307,1.307,0,1,1,1.307-1.307A1.309,1.309,0,0,1,207.512,205.934Z" transform="translate(-183.128 -172.745)"/>
      <path id="SVGCleanerId_11" d="M283.722,205.934a1.307,1.307,0,1,1,1.307-1.307A1.309,1.309,0,0,1,283.722,205.934Z" transform="translate(-250.809 -172.745)"/>
      <path id="SVGCleanerId_12" d="M237.6,256.028a2.315,2.315,0,0,1-2.312-2.312,1.169,1.169,0,0,1,1.169-1.169h2.285a1.169,1.169,0,0,1,1.169,1.169A2.315,2.315,0,0,1,237.6,256.028Z" transform="translate(-208.955 -216.463)"/>
      <path id="SVGCleanerId_13" d="M246.658,427.384a1.169,1.169,0,0,1-1.169-1.169V426.2a1.169,1.169,0,0,1,2.339,0v.015A1.169,1.169,0,0,1,246.658,427.384Z" transform="translate(-218.016 -369.643)"/>
      <path id="SVGCleanerId_14" d="M34.443,28.932a5.463,5.463,0,0,1-3.975-1.524,6.077,6.077,0,0,1-1.309-5.832,1.17,1.17,0,0,1,.886-.886A6.077,6.077,0,0,1,35.877,22a6.077,6.077,0,0,1,1.309,5.832,1.17,1.17,0,0,1-.886.886A8.515,8.515,0,0,1,34.443,28.932Zm1.6-1.357h0Zm-4.729-4.73a3.469,3.469,0,0,0,.807,2.909,3.468,3.468,0,0,0,2.908.807,3.469,3.469,0,0,0-.806-2.909A3.468,3.468,0,0,0,31.315,22.846Z" transform="translate(-25.705 -10.362)"/>
      <path id="SVGCleanerId_15" d="M421.722,17.264a8.51,8.51,0,0,1-1.857-.216,1.17,1.17,0,0,1-.886-.886,6.078,6.078,0,0,1,1.309-5.832,6.078,6.078,0,0,1,5.832-1.308,1.169,1.169,0,0,1,.885.886A6.077,6.077,0,0,1,425.7,15.74,5.465,5.465,0,0,1,421.722,17.264Zm-.588-2.371a3.469,3.469,0,0,0,2.909-.807,3.467,3.467,0,0,0,.806-2.908,3.469,3.469,0,0,0-2.909.807A3.469,3.469,0,0,0,421.134,14.893Z" transform="translate(-371.898)"/>
      <path id="SVGCleanerId_16" d="M47.648,272.658a3.742,3.742,0,1,1,3.742-3.742A3.746,3.746,0,0,1,47.648,272.658Zm0-5.145a1.4,1.4,0,1,0,1.4,1.4A1.4,1.4,0,0,0,47.648,267.513Z" transform="translate(-38.992 -227.678)"/>
      <path id="SVGCleanerId_17" d="M17.328,229.839a3.361,3.361,0,0,0-1.643-2.9,3.387,3.387,0,0,0-4.106-4.106,3.387,3.387,0,0,0-5.807,0,3.387,3.387,0,0,0-4.106,4.106,3.387,3.387,0,0,0,0,5.808,3.387,3.387,0,0,0,4.106,4.106,3.354,3.354,0,0,0,1.734,1.437v4.837a1.169,1.169,0,0,0,2.339,0v-4.837a3.353,3.353,0,0,0,1.734-1.437,3.387,3.387,0,0,0,4.106-4.106A3.36,3.36,0,0,0,17.328,229.839Zm-3.354,1.039a1.169,1.169,0,0,0-.818,1.972,1.04,1.04,0,0,1-1.47,1.47,1.169,1.169,0,0,0-1.972.817,1.039,1.039,0,0,1-2.078,0,1.169,1.169,0,0,0-1.972-.817,1.04,1.04,0,0,1-1.47-1.47,1.169,1.169,0,0,0-.818-1.972,1.039,1.039,0,0,1,0-2.078,1.169,1.169,0,0,0,.817-1.972,1.04,1.04,0,0,1,1.47-1.47,1.169,1.169,0,0,0,1.972-.817,1.039,1.039,0,0,1,2.078,0,1.169,1.169,0,0,0,1.972.817,1.04,1.04,0,0,1,1.47,1.47,1.169,1.169,0,0,0,.817,1.972,1.039,1.039,0,0,1,0,2.078Z" transform="translate(-0.02 -188.611)"/>
      <path id="SVGCleanerId_18" d="M68.062,443.527a1.169,1.169,0,0,1-1.169-1.169v-.015a1.169,1.169,0,1,1,2.339,0v.015A1.169,1.169,0,0,1,68.062,443.527Z" transform="translate(-59.407 -383.979)"/>
      <path id="SVGCleanerId_19" d="M430.76,234.826c-3.541-2.245-3.54-5.878,0-8.123C434.3,228.947,434.3,232.58,430.76,234.826Z" transform="translate(-380.195 -193.51)" fill="#89cd37"/>
      <path id="SVGCleanerId_20" d="M421.482,226.715a1.166,1.166,0,0,1-.626-.182,5.585,5.585,0,0,1,0-10.1,1.169,1.169,0,0,1,1.252,0,5.585,5.585,0,0,1,0,10.1A1.167,1.167,0,0,1,421.482,226.715Zm0-7.858a3.065,3.065,0,1,0,1.486,2.627A3.469,3.469,0,0,0,421.482,218.857Z" transform="translate(-370.916 -184.23)"/>
      <path id="SVGCleanerId_21" d="M87.117,61.06,85.63,59.573a1.169,1.169,0,0,0-1.685,1.619l-3.57,4.052V59.079a1.169,1.169,0,0,0-1.169-1.169H70.03l-4.9-2.041a.714.714,0,0,1-.441-.661V53.392l3.074-1.757.064-.039A6.307,6.307,0,0,0,70.5,46.788c0-.03,0-.059,0-.089v-.971a3.782,3.782,0,0,0,2.352-4.994c4.369-1.006,6.5-2.412,6.5-4.278,0-2-2.523-3-3.352-3.326a23.158,23.158,0,0,0-3.35-.994,15.966,15.966,0,0,0-4.739-8.068,13.4,13.4,0,0,0-18.226,0,15.966,15.966,0,0,0-4.739,8.07,23.083,23.083,0,0,0-3.351,1c-.826.328-3.338,1.326-3.338,3.321,0,1.866,2.132,3.272,6.5,4.278a3.782,3.782,0,0,0,2.352,4.994V46.7c0,.03,0,.06,0,.089A6.314,6.314,0,0,0,49.807,51.6l.063.039,3.057,1.753v1.821a.714.714,0,0,1-.44.661L44.96,59a5.762,5.762,0,0,0-3.345,5.265v7.906H35.13a1.169,1.169,0,0,0,0,2.339H82.492a1.169,1.169,0,0,0,0-2.339H80.375V68.782l5.237-5.943a1.169,1.169,0,0,0,1.505-1.778ZM71.462,34.267c4.142.849,5.408,1.874,5.549,2.188-.151.35-1.512,1.412-6,2.275a3.752,3.752,0,0,0-.513-.212V36.1a9.873,9.873,0,0,0-.217-2.05C70.68,34.116,71.454,34.266,71.462,34.267ZM58.8,22.832c5.073,0,9.591,3.615,11.284,8.81-.021,0-1.025-.155-1.227-.183h-.012a79.678,79.678,0,0,0-20.118.006h-.016c-.393.054-1.182.177-1.2.179C49.21,26.448,53.728,22.832,58.8,22.832Zm-18.2,13.624c.141-.313,1.4-1.337,5.532-2.185.009,0,.779-.151,1.171-.22a10.761,10.761,0,0,0-.194,2.046V38.52a3.772,3.772,0,0,0-.513.212C42.119,37.868,40.758,36.806,40.607,36.456ZM51.068,49.625a4.025,4.025,0,0,1-1.614-2.974V44.743a1.169,1.169,0,0,0-1.169-1.169,1.45,1.45,0,1,1,0-2.9A1.169,1.169,0,0,0,49.454,39.5V36.1a8.406,8.406,0,0,1,.347-2.415,78.247,78.247,0,0,1,17.977,0,8.049,8.049,0,0,1,.385,2.42V39.5a1.169,1.169,0,0,0,1.169,1.169,1.45,1.45,0,0,1,0,2.9,1.169,1.169,0,0,0-1.169,1.169v1.908a3.963,3.963,0,0,1-1.594,2.974l-6.3,3.6-.064.039a2.474,2.474,0,0,1-2.8,0l-.063-.039Zm4.2,5.1.888.509a4.809,4.809,0,0,0,5.311,0l.889-.508v4.679a3.544,3.544,0,0,1-7.087,0v-4.68ZM66.7,68.5a2.574,2.574,0,0,1,0-4.585Zm0-9.425V61.44a4.912,4.912,0,0,0,0,9.542v1.192H59.972V70.734a1.169,1.169,0,0,0-2.339,0v1.441H43.954V64.269a3.466,3.466,0,0,1,1.906-3.106l7.067-2.944v1.19a5.882,5.882,0,0,0,11.764,0v-1.19l2.005.836C66.7,59.062,66.7,59.07,66.7,59.079Zm11.342,13.1h-9V60.248h9Z" transform="translate(-30.16 -10.379)"/>
      <g id="Group_1175415" data-name="Group 1175415" transform="translate(12.624 42.55)">
        <path id="SVGCleanerId_0_1_" d="M133.542,310.326V312.6a1.885,1.885,0,0,0,1.16,1.74l7.526,3.136a4.618,4.618,0,0,1,2.625,4.185v9.076H112.805v-9.076a4.618,4.618,0,0,1,2.625-4.185l7.526-3.136a1.885,1.885,0,0,0,1.16-1.74v-2.278Z" transform="translate(-112.805 -310.326)" fill="#89cd37"/>
      </g>
      <g id="Group_1175416" data-name="Group 1175416" transform="translate(23.935 43.204)">
        <path id="SVGCleanerId_1_1_" d="M213.876,316.163v5.825a4.72,4.72,0,0,0,4.707,4.7h0a4.729,4.729,0,0,0,4.719-4.7v-5.825Z" transform="translate(-213.876 -316.163)" fill="#febba0"/>
      </g>
      <ellipse id="Ellipse_11650" data-name="Ellipse 11650" cx="19.378" cy="4.462" rx="19.378" ry="4.462" transform="translate(9.27 21.614)" fill="#e59752"/>
      <g id="Group_1175417" data-name="Group 1175417" transform="translate(15.505 15.215)">
        <path id="SVGCleanerId_2_1_" d="M141.166,79.976V76.569a10.5,10.5,0,1,1,21.007,0h.041v3.407a2.619,2.619,0,0,1,0,5.239v1.955a5.137,5.137,0,0,1-2.148,3.921l-6.332,3.62a3.633,3.633,0,0,1-4.089,0l-6.313-3.62a5.155,5.155,0,0,1-2.167-3.921V85.215a2.619,2.619,0,0,1,0-5.239Z" transform="translate(-138.547 -66.066)" fill="#febba0"/>
      </g>
      <g id="Group_1175418" data-name="Group 1175418" transform="translate(37.703 48.699)">
        <rect id="SVGCleanerId_3_1_" width="11.341" height="14.266" fill="#0f8ee3"/>
      </g>
      <g id="Group_1175419" data-name="Group 1175419" transform="translate(15.77 11.284)">
        <path id="SVGCleanerId_4_1_" d="M153.79,41.271A66.643,66.643,0,0,0,140.911,42.4c1.271-6.548,6.55-11.458,12.872-11.458s11.6,4.909,12.872,11.456A66.677,66.677,0,0,0,153.79,41.271Z" transform="translate(-140.911 -30.941)" fill="#eeb45d"/>
      </g>
      <g id="Group_1175420" data-name="Group 1175420" transform="translate(4.411 11.284)">
        <path id="SVGCleanerId_5_1_" d="M45.34,36.87c-4.091.916-6.66-1.653-5.744-5.744C43.687,30.21,46.256,32.779,45.34,36.87Z" transform="translate(-39.411 -30.941)" fill="#89cd37"/>
      </g>
      <g id="Group_1175421" data-name="Group 1175421" transform="translate(48.036 9.978)">
        <path id="SVGCleanerId_6_1_" d="M435.159,19.458c.916,4.091-1.653,6.66-5.744,5.744C428.5,21.111,431.067,18.542,435.159,19.458Z" transform="translate(-429.229 -19.273)" fill="#89cd37"/>
      </g>
      <g id="Group_1175422" data-name="Group 1175422" transform="translate(1.172 33.744)">
        <path id="SVGCleanerId_7_1_" d="M25.436,239.119a2.211,2.211,0,0,0-2.153-2.208,2.209,2.209,0,0,0-3.123-3.123,2.209,2.209,0,0,0-4.416,0,2.209,2.209,0,0,0-3.123,3.123,2.209,2.209,0,0,0,0,4.416,2.209,2.209,0,0,0,3.123,3.123,2.209,2.209,0,0,0,4.416,0,2.209,2.209,0,0,0,3.123-3.123A2.21,2.21,0,0,0,25.436,239.119Z" transform="translate(-10.469 -231.635)" fill="#ffaf18"/>
      </g>
      <circle id="Ellipse_11651" data-name="Ellipse 11651" cx="2.573" cy="2.573" r="2.573" transform="translate(6.083 38.666)" fill="#ff5957"/>
      <g id="Group_1175423" data-name="Group 1175423" transform="translate(54.943 61.796)">
        <path id="SVGCleanerId_8_1_" d="M492.128,484.632h-.015a1.169,1.169,0,1,1,0-2.339h.015a1.169,1.169,0,1,1,0,2.339Z" transform="translate(-490.943 -482.293)"/>
      </g>
      <g id="Group_1175424" data-name="Group 1175424" transform="translate(0 61.796)">
        <path id="SVGCleanerId_9_1_" d="M1.185,484.633H1.169a1.169,1.169,0,1,1,0-2.339h.015a1.169,1.169,0,1,1,0,2.339Z" transform="translate(0 -482.294)"/>
      </g>
      <g id="Group_1175425" data-name="Group 1175425" transform="translate(23.077 30.575)">
        <path id="SVGCleanerId_10_1_" d="M207.512,205.934a1.307,1.307,0,1,1,1.307-1.307A1.309,1.309,0,0,1,207.512,205.934Z" transform="translate(-206.205 -203.32)"/>
      </g>
      <g id="Group_1175426" data-name="Group 1175426" transform="translate(31.606 30.575)">
        <path id="SVGCleanerId_11_1_" d="M283.722,205.934a1.307,1.307,0,1,1,1.307-1.307A1.309,1.309,0,0,1,283.722,205.934Z" transform="translate(-282.415 -203.32)"/>
      </g>
      <g id="Group_1175427" data-name="Group 1175427" transform="translate(26.332 36.084)">
        <path id="SVGCleanerId_12_1_" d="M237.6,256.028a2.315,2.315,0,0,1-2.312-2.312,1.169,1.169,0,0,1,1.169-1.169h2.285a1.169,1.169,0,0,1,1.169,1.169A2.315,2.315,0,0,1,237.6,256.028Z" transform="translate(-235.287 -252.547)"/>
      </g>
      <g id="Group_1175428" data-name="Group 1175428" transform="translate(27.473 55.387)">
        <path id="SVGCleanerId_13_1_" d="M246.658,427.384a1.169,1.169,0,0,1-1.169-1.169V426.2a1.169,1.169,0,0,1,2.339,0v.015A1.169,1.169,0,0,1,246.658,427.384Z" transform="translate(-245.489 -425.03)"/>
      </g>
      <g id="Group_1175429" data-name="Group 1175429" transform="translate(3.239 10.112)">
        <path id="SVGCleanerId_14_1_" d="M34.443,28.932a5.463,5.463,0,0,1-3.975-1.524,6.077,6.077,0,0,1-1.309-5.832,1.17,1.17,0,0,1,.886-.886A6.077,6.077,0,0,1,35.877,22a6.077,6.077,0,0,1,1.309,5.832,1.17,1.17,0,0,1-.886.886A8.515,8.515,0,0,1,34.443,28.932Zm1.6-1.357h0Zm-4.729-4.73a3.469,3.469,0,0,0,.807,2.909,3.468,3.468,0,0,0,2.908.807,3.469,3.469,0,0,0-.806-2.909A3.468,3.468,0,0,0,31.315,22.846Z" transform="translate(-28.944 -20.475)"/>
      </g>
      <g id="Group_1175430" data-name="Group 1175430" transform="translate(46.865 8.807)">
        <path id="SVGCleanerId_15_1_" d="M421.722,17.264a8.51,8.51,0,0,1-1.857-.216,1.17,1.17,0,0,1-.886-.886,6.078,6.078,0,0,1,1.309-5.832,6.078,6.078,0,0,1,5.832-1.308,1.169,1.169,0,0,1,.885.886A6.077,6.077,0,0,1,425.7,15.74,5.465,5.465,0,0,1,421.722,17.264Zm-.588-2.371a3.469,3.469,0,0,0,2.909-.807,3.467,3.467,0,0,0,.806-2.908,3.469,3.469,0,0,0-2.909.807A3.469,3.469,0,0,0,421.134,14.893Z" transform="translate(-418.763 -8.807)"/>
      </g>
      <g id="Group_1175431" data-name="Group 1175431" transform="translate(4.914 37.497)">
        <path id="SVGCleanerId_16_1_" d="M47.648,272.658a3.742,3.742,0,1,1,3.742-3.742A3.746,3.746,0,0,1,47.648,272.658Zm0-5.145a1.4,1.4,0,1,0,1.4,1.4A1.4,1.4,0,0,0,47.648,267.513Z" transform="translate(-43.906 -265.175)"/>
      </g>
      <g id="Group_1175432" data-name="Group 1175432" transform="translate(0.002 32.575)">
        <path id="SVGCleanerId_17_1_" d="M17.328,229.839a3.361,3.361,0,0,0-1.643-2.9,3.387,3.387,0,0,0-4.106-4.106,3.387,3.387,0,0,0-5.807,0,3.387,3.387,0,0,0-4.106,4.106,3.387,3.387,0,0,0,0,5.808,3.387,3.387,0,0,0,4.106,4.106,3.354,3.354,0,0,0,1.734,1.437v4.837a1.169,1.169,0,0,0,2.339,0v-4.837a3.353,3.353,0,0,0,1.734-1.437,3.387,3.387,0,0,0,4.106-4.106A3.36,3.36,0,0,0,17.328,229.839Zm-3.354,1.039a1.169,1.169,0,0,0-.818,1.972,1.04,1.04,0,0,1-1.47,1.47,1.169,1.169,0,0,0-1.972.817,1.039,1.039,0,0,1-2.078,0,1.169,1.169,0,0,0-1.972-.817,1.04,1.04,0,0,1-1.47-1.47,1.169,1.169,0,0,0-.818-1.972,1.039,1.039,0,0,1,0-2.078,1.169,1.169,0,0,0,.817-1.972,1.04,1.04,0,0,1,1.47-1.47,1.169,1.169,0,0,0,1.972-.817,1.039,1.039,0,0,1,2.078,0,1.169,1.169,0,0,0,1.972.817,1.04,1.04,0,0,1,1.47,1.47,1.169,1.169,0,0,0,.817,1.972,1.039,1.039,0,0,1,0,2.078Z" transform="translate(-0.022 -221.186)"/>
      </g>
      <g id="Group_1175433" data-name="Group 1175433" transform="translate(7.486 57.194)">
        <path id="SVGCleanerId_18_1_" d="M68.062,443.527a1.169,1.169,0,0,1-1.169-1.169v-.015a1.169,1.169,0,1,1,2.339,0v.015A1.169,1.169,0,0,1,68.062,443.527Z" transform="translate(-66.893 -441.173)"/>
      </g>
      <g id="Group_1175434" data-name="Group 1175434" transform="translate(47.91 33.192)">
        <path id="SVGCleanerId_19_1_" d="M430.76,234.826c-3.541-2.245-3.54-5.878,0-8.123C434.3,228.947,434.3,232.58,430.76,234.826Z" transform="translate(-428.105 -226.702)" fill="#89cd37"/>
      </g>
      <g id="Group_1175435" data-name="Group 1175435" transform="translate(46.741 32.022)">
        <path id="SVGCleanerId_20_1_" d="M421.482,226.715a1.166,1.166,0,0,1-.626-.182,5.585,5.585,0,0,1,0-10.1,1.169,1.169,0,0,1,1.252,0,5.585,5.585,0,0,1,0,10.1A1.167,1.167,0,0,1,421.482,226.715Zm0-7.858a3.065,3.065,0,1,0,1.486,2.627A3.469,3.469,0,0,0,421.482,218.857Z" transform="translate(-417.657 -216.252)"/>
      </g>
      <g id="Group_1175436" data-name="Group 1175436" transform="translate(3.801 10.115)">
        <path id="SVGCleanerId_21_1_" d="M87.117,61.06,85.63,59.573a1.169,1.169,0,0,0-1.685,1.619l-3.57,4.052V59.079a1.169,1.169,0,0,0-1.169-1.169H70.03l-4.9-2.041a.714.714,0,0,1-.441-.661V53.392l3.074-1.757.064-.039A6.307,6.307,0,0,0,70.5,46.788c0-.03,0-.059,0-.089v-.971a3.782,3.782,0,0,0,2.352-4.994c4.369-1.006,6.5-2.412,6.5-4.278,0-2-2.523-3-3.352-3.326a23.158,23.158,0,0,0-3.35-.994,15.966,15.966,0,0,0-4.739-8.068,13.4,13.4,0,0,0-18.226,0,15.966,15.966,0,0,0-4.739,8.07,23.083,23.083,0,0,0-3.351,1c-.826.328-3.338,1.326-3.338,3.321,0,1.866,2.132,3.272,6.5,4.278a3.782,3.782,0,0,0,2.352,4.994V46.7c0,.03,0,.06,0,.089A6.314,6.314,0,0,0,49.807,51.6l.063.039,3.057,1.753v1.821a.714.714,0,0,1-.44.661L44.96,59a5.762,5.762,0,0,0-3.345,5.265v7.906H35.13a1.169,1.169,0,0,0,0,2.339H82.492a1.169,1.169,0,0,0,0-2.339H80.375V68.782l5.237-5.943a1.169,1.169,0,0,0,1.505-1.778ZM71.462,34.267c4.142.849,5.408,1.874,5.549,2.188-.151.35-1.512,1.412-6,2.275a3.752,3.752,0,0,0-.513-.212V36.1a9.873,9.873,0,0,0-.217-2.05C70.68,34.116,71.454,34.266,71.462,34.267ZM58.8,22.832c5.073,0,9.591,3.615,11.284,8.81-.021,0-1.025-.155-1.227-.183h-.012a79.678,79.678,0,0,0-20.118.006h-.016c-.393.054-1.182.177-1.2.179C49.21,26.448,53.728,22.832,58.8,22.832Zm-18.2,13.624c.141-.313,1.4-1.337,5.532-2.185.009,0,.779-.151,1.171-.22a10.761,10.761,0,0,0-.194,2.046V38.52a3.772,3.772,0,0,0-.513.212C42.119,37.868,40.758,36.806,40.607,36.456ZM51.068,49.625a4.025,4.025,0,0,1-1.614-2.974V44.743a1.169,1.169,0,0,0-1.169-1.169,1.45,1.45,0,1,1,0-2.9A1.169,1.169,0,0,0,49.454,39.5V36.1a8.406,8.406,0,0,1,.347-2.415,78.247,78.247,0,0,1,17.977,0,8.049,8.049,0,0,1,.385,2.42V39.5a1.169,1.169,0,0,0,1.169,1.169,1.45,1.45,0,0,1,0,2.9,1.169,1.169,0,0,0-1.169,1.169v1.908a3.963,3.963,0,0,1-1.594,2.974l-6.3,3.6-.064.039a2.474,2.474,0,0,1-2.8,0l-.063-.039Zm4.2,5.1.888.509a4.809,4.809,0,0,0,5.311,0l.889-.508v4.679a3.544,3.544,0,0,1-7.087,0v-4.68ZM66.7,68.5a2.574,2.574,0,0,1,0-4.585Zm0-9.425V61.44a4.912,4.912,0,0,0,0,9.542v1.192H59.972V70.734a1.169,1.169,0,0,0-2.339,0v1.441H43.954V64.269a3.466,3.466,0,0,1,1.906-3.106l7.067-2.944v1.19a5.882,5.882,0,0,0,11.764,0v-1.19l2.005.836C66.7,59.062,66.7,59.07,66.7,59.079Zm11.342,13.1h-9V60.248h9Z" transform="translate(-33.961 -20.494)"/>
      </g>
    </g>
  </g>
</svg>
