<svg xmlns="http://www.w3.org/2000/svg" xmlns:xlink="http://www.w3.org/1999/xlink" width="103" height="103" viewBox="0 0 103 103">
  <defs>
    <filter id="Path_982547" x="0" y="0" width="103" height="103" filterUnits="userSpaceOnUse">
      <feOffset dy="3" input="SourceAlpha"/>
      <feGaussianBlur stdDeviation="3" result="blur"/>
      <feFlood flood-opacity="0.161"/>
      <feComposite operator="in" in2="blur"/>
      <feComposite in="SourceGraphic"/>
    </filter>
  </defs>
  <g id="Group_1175170" data-name="Group 1175170" transform="translate(-214.551 -3548.869)">
    <g id="Group_1175088" data-name="Group 1175088" transform="translate(223.551 3554.869)">
      <g id="Group_1174859" data-name="Group 1174859" transform="translate(0 0)">
        <g id="Group_1167343" data-name="Group 1167343" transform="translate(0)">
          <g id="Group_1166777" data-name="Group 1166777" transform="translate(0)">
            <g id="Group_1164305" data-name="Group 1164305">
              <g id="Group_1163948" data-name="Group 1163948">
                <g id="Group_1158168" data-name="Group 1158168">
                  <g id="Group_1152576" data-name="Group 1152576">
                    <g id="Group_1148633" data-name="Group 1148633">
                      <g id="Group_1148525" data-name="Group 1148525">
                        <g transform="matrix(1, 0, 0, 1, -9, -6)" filter="url(#Path_982547)">
                          <g id="Path_982547-2" data-name="Path 982547" transform="translate(9 6)" fill="#f0f6eb">
                            <path d="M 42.5 83.5 C 36.96437835693359 83.5 31.59512901306152 82.41617584228516 26.54141235351562 80.27863311767578 C 21.65934181213379 78.21369171142578 17.27448272705078 75.25723266601562 13.50862312316895 71.49137878417969 C 9.742776870727539 67.72553253173828 6.786305904388428 63.34066009521484 4.721364498138428 58.45858764648438 C 2.583823442459106 53.40486907958984 1.5 48.03562164306641 1.5 42.5 C 1.5 36.96437835693359 2.583823442459106 31.59512901306152 4.721364498138428 26.54141235351562 C 6.786305904388428 21.65934181213379 9.742776870727539 17.27448272705078 13.50862312316895 13.50862312316895 C 17.27448272705078 9.742776870727539 21.65934181213379 6.786305904388428 26.54141235351562 4.721364498138428 C 31.59512901306152 2.583823442459106 36.96437835693359 1.5 42.5 1.5 C 48.03562164306641 1.5 53.40486907958984 2.583823442459106 58.45858764648438 4.721364498138428 C 63.34066009521484 6.786305904388428 67.72553253173828 9.742776870727539 71.49137878417969 13.50862312316895 C 75.25723266601562 17.27448272705078 78.21369171142578 21.65934181213379 80.27863311767578 26.54141235351562 C 82.41617584228516 31.59512901306152 83.5 36.96437835693359 83.5 42.5 C 83.5 48.03562164306641 82.41617584228516 53.40486907958984 80.27863311767578 58.45858764648438 C 78.21369171142578 63.34066009521484 75.25723266601562 67.72553253173828 71.49137878417969 71.49137878417969 C 67.72553253173828 75.25723266601562 63.34066009521484 78.21369171142578 58.45858764648438 80.27863311767578 C 53.40486907958984 82.41617584228516 48.03562164306641 83.5 42.5 83.5 Z" stroke="none"/>
                            <path d="M 42.5 3 C 37.16621398925781 3 31.99356079101562 4.043960571289062 27.125732421875 6.102882385253906 C 22.42246627807617 8.092185974121094 18.19785308837891 10.94070434570312 14.56928253173828 14.56928253173828 C 10.94070434570312 18.19785308837891 8.092185974121094 22.42246627807617 6.102882385253906 27.125732421875 C 4.043960571289062 31.99356079101562 3 37.16621398925781 3 42.5 C 3 47.83378601074219 4.043960571289062 53.00643920898438 6.102882385253906 57.874267578125 C 8.092185974121094 62.57753372192383 10.94070434570312 66.80214691162109 14.56928253173828 70.43071746826172 C 18.19785308837891 74.05929565429688 22.42246627807617 76.90781402587891 27.125732421875 78.89711761474609 C 31.99356079101562 80.95603942871094 37.16621398925781 82 42.5 82 C 47.83378601074219 82 53.00643920898438 80.95603942871094 57.874267578125 78.89711761474609 C 62.57753372192383 76.90781402587891 66.80214691162109 74.05929565429688 70.43071746826172 70.43071746826172 C 74.05929565429688 66.80214691162109 76.90781402587891 62.57753372192383 78.89711761474609 57.874267578125 C 80.95603942871094 53.00643920898438 82 47.83378601074219 82 42.5 C 82 37.16621398925781 80.95603942871094 31.99356079101562 78.89711761474609 27.125732421875 C 76.90781402587891 22.42246627807617 74.05929565429688 18.19785308837891 70.43071746826172 14.56928253173828 C 66.80214691162109 10.94070434570312 62.57753372192383 8.092185974121094 57.874267578125 6.102882385253906 C 53.00643920898438 4.043960571289062 47.83378601074219 3 42.5 3 M 42.5 0 C 65.97210693359375 0 85 19.02789306640625 85 42.5 C 85 65.97210693359375 65.97210693359375 85 42.5 85 C 19.02789306640625 85 0 65.97210693359375 0 42.5 C 0 19.02789306640625 19.02789306640625 0 42.5 0 Z" stroke="none" fill="#65a532"/>
                          </g>
                        </g>
                      </g>
                    </g>
                  </g>
                </g>
              </g>
            </g>
          </g>
        </g>
      </g>
    </g>
    <g id="smart_13144748" transform="translate(187.702 3555.288)">
      <path id="Path_1035627" data-name="Path 1035627" d="M209.264,161.012c3.872,2.181,4.758,7.743,4.758,7.743s-5.392,2.025-9.264-.156S200,160.855,200,160.855,205.392,158.83,209.264,161.012Z" transform="translate(-128.225 -128.224)" fill="#9dc45e"/>
      <g id="Group_1175141" data-name="Group 1175141" transform="translate(74.794 33.949)">
        <path id="Path_1035628" data-name="Path 1035628" d="M237.778,186.855a.873.873,0,0,1-.429-.113L228,181.476a.876.876,0,0,1,.86-1.527l9.348,5.266a.877.877,0,0,1-.431,1.64Z" transform="translate(-227.554 -179.836)" fill="#46572a"/>
      </g>
      <g id="Group_1175142" data-name="Group 1175142" transform="translate(78.567 35.064)">
        <path id="Path_1035629" data-name="Path 1035629" d="M262.869,194.808a.877.877,0,0,1-.22-1.725l1.6-.416-.422-1.538a.876.876,0,1,1,1.69-.464l.657,2.395a.876.876,0,0,1-.625,1.08l-2.459.64A.882.882,0,0,1,262.869,194.808Z" transform="translate(-261.993 -190.02)" fill="#46572a"/>
      </g>
      <g id="Group_1175143" data-name="Group 1175143" transform="translate(75.451 33.309)">
        <path id="Path_1035630" data-name="Path 1035630" d="M234.425,178.785a.877.877,0,0,1-.22-1.725l1.6-.416-.422-1.538a.876.876,0,1,1,1.69-.464l.657,2.395a.876.876,0,0,1-.625,1.08l-2.459.64A.882.882,0,0,1,234.425,178.785Z" transform="translate(-233.549 -173.997)" fill="#46572a"/>
      </g>
      <path id="Path_1035631" data-name="Path 1035631" d="M332.758,161.012c-3.872,2.181-4.758,7.743-4.758,7.743s5.392,2.025,9.264-.156,4.758-7.743,4.758-7.743S336.63,158.83,332.758,161.012Z" transform="translate(-242.202 -128.224)" fill="#9dc45e"/>
      <g id="Group_1175144" data-name="Group 1175144" transform="translate(85.701 33.949)">
        <path id="Path_1035632" data-name="Path 1035632" d="M327.987,186.855a.877.877,0,0,1-.431-1.64l9.348-5.266a.876.876,0,0,1,.86,1.527l-9.348,5.266A.872.872,0,0,1,327.987,186.855Z" transform="translate(-327.109 -179.836)" fill="#46572a"/>
      </g>
      <g id="Group_1175145" data-name="Group 1175145" transform="translate(88.817 35.064)">
        <path id="Path_1035633" data-name="Path 1035633" d="M358.892,194.809a.881.881,0,0,1-.221-.028l-2.459-.64a.876.876,0,0,1-.625-1.08l.657-2.395a.876.876,0,1,1,1.69.464l-.422,1.538,1.6.416a.877.877,0,0,1-.22,1.725Z" transform="translate(-355.556 -190.021)" fill="#46572a"/>
      </g>
      <g id="Group_1175146" data-name="Group 1175146" transform="translate(91.933 33.309)">
        <path id="Path_1035634" data-name="Path 1035634" d="M387.336,178.786a.881.881,0,0,1-.221-.028l-2.459-.64a.876.876,0,0,1-.625-1.08l.657-2.395a.876.876,0,1,1,1.69.464l-.422,1.538,1.6.416a.877.877,0,0,1-.22,1.725Z" transform="translate(-384 -173.998)" fill="#46572a"/>
      </g>
      <path id="Path_1035635" data-name="Path 1035635" d="M209.264,273.293c3.872,2.181,4.758,7.743,4.758,7.743s-5.392,2.025-9.264-.156S200,273.136,200,273.136,205.392,271.111,209.264,273.293Z" transform="translate(-128.225 -228.205)" fill="#9dc45e"/>
      <g id="Group_1175147" data-name="Group 1175147" transform="translate(74.794 46.249)">
        <path id="Path_1035636" data-name="Path 1035636" d="M237.778,299.137a.873.873,0,0,1-.429-.113L228,293.758a.876.876,0,0,1,.86-1.527l9.348,5.266a.877.877,0,0,1-.431,1.64Z" transform="translate(-227.554 -292.118)" fill="#46572a"/>
      </g>
      <g id="Group_1175148" data-name="Group 1175148" transform="translate(78.567 47.365)">
        <path id="Path_1035637" data-name="Path 1035637" d="M262.869,307.089a.877.877,0,0,1-.22-1.725l1.6-.416-.422-1.538a.876.876,0,1,1,1.69-.464l.657,2.395a.876.876,0,0,1-.625,1.08l-2.459.64A.882.882,0,0,1,262.869,307.089Z" transform="translate(-261.993 -302.302)" fill="#46572a"/>
      </g>
      <g id="Group_1175149" data-name="Group 1175149" transform="translate(75.451 45.61)">
        <path id="Path_1035638" data-name="Path 1035638" d="M234.425,291.066a.877.877,0,0,1-.22-1.725l1.6-.416-.422-1.538a.876.876,0,1,1,1.69-.464l.657,2.395a.876.876,0,0,1-.625,1.08l-2.459.64A.881.881,0,0,1,234.425,291.066Z" transform="translate(-233.549 -286.278)" fill="#46572a"/>
      </g>
      <path id="Path_1035639" data-name="Path 1035639" d="M332.758,273.293c-3.872,2.181-4.758,7.743-4.758,7.743s5.392,2.025,9.264-.156,4.758-7.743,4.758-7.743S336.63,271.111,332.758,273.293Z" transform="translate(-242.202 -228.205)" fill="#9dc45e"/>
      <g id="Group_1175150" data-name="Group 1175150" transform="translate(85.701 46.249)">
        <path id="Path_1035640" data-name="Path 1035640" d="M327.987,299.136a.877.877,0,0,1-.431-1.64l9.348-5.266a.876.876,0,0,1,.86,1.527l-9.348,5.266A.873.873,0,0,1,327.987,299.136Z" transform="translate(-327.109 -292.117)" fill="#46572a"/>
      </g>
      <g id="Group_1175151" data-name="Group 1175151" transform="translate(88.817 47.365)">
        <path id="Path_1035641" data-name="Path 1035641" d="M358.892,307.09a.88.88,0,0,1-.221-.028l-2.459-.64a.876.876,0,0,1-.625-1.08l.657-2.395a.876.876,0,1,1,1.69.464l-.422,1.538,1.6.416a.877.877,0,0,1-.22,1.725Z" transform="translate(-355.556 -302.302)" fill="#46572a"/>
      </g>
      <g id="Group_1175152" data-name="Group 1175152" transform="translate(91.933 45.61)">
        <path id="Path_1035642" data-name="Path 1035642" d="M387.336,291.067a.88.88,0,0,1-.221-.028l-2.459-.64a.876.876,0,0,1-.625-1.08l.657-2.395a.876.876,0,1,1,1.69.464l-.422,1.538,1.6.416a.877.877,0,0,1-.22,1.725Z" transform="translate(-384 -286.279)" fill="#46572a"/>
      </g>
      <path id="Path_1035643" data-name="Path 1035643" d="M384.764,452.382H376V448h4.382A4.382,4.382,0,0,1,384.764,452.382Z" transform="translate(-284.943 -384.674)" fill="#b98c59"/>
      <path id="Path_1035644" data-name="Path 1035644" d="M200,452.382h8.764V448h-4.382A4.382,4.382,0,0,0,200,452.382Z" transform="translate(-128.225 -384.674)" fill="#b98c59"/>
      <g id="Group_1175153" data-name="Group 1175153" transform="translate(84.922 30.023)">
        <path id="Path_1035645" data-name="Path 1035645" d="M320.876,176.427a.876.876,0,0,1-.876-.876V144.876a.876.876,0,1,1,1.753,0v30.675A.876.876,0,0,1,320.876,176.427Z" transform="translate(-320 -144)" fill="#46572a"/>
      </g>
      <path id="Path_1035646" data-name="Path 1035646" d="M253.034,431.011H232l.37-.74a11.345,11.345,0,0,1,20.294,0Z" transform="translate(-156.719 -363.303)" fill="#d6a267"/>
      <path id="Path_1035647" data-name="Path 1035647" d="M296.764,31.888c0,4.356-4.382,7.888-4.382,7.888S288,36.244,288,31.888,292.382,24,292.382,24,296.764,27.531,296.764,31.888Z" transform="translate(-206.584 -7.124)" fill="#9dc45e"/>
      <g id="Group_1175154" data-name="Group 1175154" transform="translate(84.922 20.382)">
        <path id="Path_1035648" data-name="Path 1035648" d="M320.876,68.27a.876.876,0,0,1-.876-.876V56.876a.876.876,0,1,1,1.753,0V67.393A.876.876,0,0,1,320.876,68.27Z" transform="translate(-320 -56)" fill="#46572a"/>
      </g>
      <g id="Group_1175155" data-name="Group 1175155" transform="translate(83.169 23.011)">
        <path id="Path_1035649" data-name="Path 1035649" d="M306.628,82.628a.876.876,0,0,1-.392-.093l-1.753-.876a.876.876,0,0,1,.784-1.568l1.361.681,1.361-.68a.876.876,0,0,1,.784,1.568l-1.753.876A.878.878,0,0,1,306.628,82.628Z" transform="translate(-303.999 -79.998)" fill="#46572a"/>
      </g>
      <g id="Group_1175156" data-name="Group 1175156" transform="translate(83.169 25.64)">
        <path id="Path_1035650" data-name="Path 1035650" d="M306.628,106.628a.877.877,0,0,1-.392-.093l-1.753-.876a.876.876,0,0,1,.784-1.568l1.361.681,1.361-.68a.876.876,0,0,1,.784,1.568l-1.753.876A.878.878,0,0,1,306.628,106.628Z" transform="translate(-303.999 -103.998)" fill="#46572a"/>
      </g>
      <path id="Path_1035651" data-name="Path 1035651" d="M64,24H75.393V74.832H64Z" transform="translate(-7.124 -7.124)" fill="#71b6eb"/>
      <g id="Group_1175157" data-name="Group 1175157" transform="translate(64.764 19.506)">
        <path id="Path_1035652" data-name="Path 1035652" d="M139.506,48v1.753h-2.629a.876.876,0,1,1,0-1.753Z" transform="translate(-136 -48)" fill="#2a4357"/>
      </g>
      <g id="Group_1175158" data-name="Group 1175158" transform="translate(64.764 23.011)">
        <path id="Path_1035653" data-name="Path 1035653" d="M139.506,80v1.753h-2.629a.876.876,0,1,1,0-1.753Z" transform="translate(-136 -80)" fill="#2a4357"/>
      </g>
      <g id="Group_1175159" data-name="Group 1175159" transform="translate(62.135 26.517)">
        <path id="Path_1035654" data-name="Path 1035654" d="M118.135,112v1.753h-5.258a.876.876,0,0,1,0-1.753Z" transform="translate(-112 -112)" fill="#2a4357"/>
      </g>
      <g id="Group_1175160" data-name="Group 1175160" transform="translate(64.764 30.023)">
        <path id="Path_1035655" data-name="Path 1035655" d="M139.506,144v1.753h-2.629a.876.876,0,1,1,0-1.753Z" transform="translate(-136 -144)" fill="#2a4357"/>
      </g>
      <g id="Group_1175161" data-name="Group 1175161" transform="translate(64.764 33.528)">
        <path id="Path_1035656" data-name="Path 1035656" d="M139.506,176v1.753h-2.629a.876.876,0,1,1,0-1.753Z" transform="translate(-136 -176)" fill="#2a4357"/>
      </g>
      <g id="Group_1175162" data-name="Group 1175162" transform="translate(62.135 37.034)">
        <path id="Path_1035657" data-name="Path 1035657" d="M118.135,208v1.753h-5.258a.876.876,0,1,1,0-1.753Z" transform="translate(-112 -208)" fill="#2a4357"/>
      </g>
      <g id="Group_1175163" data-name="Group 1175163" transform="translate(64.764 40.54)">
        <path id="Path_1035658" data-name="Path 1035658" d="M139.506,240v1.753h-2.629a.876.876,0,1,1,0-1.753Z" transform="translate(-136 -240)" fill="#2a4357"/>
      </g>
      <g id="Group_1175164" data-name="Group 1175164" transform="translate(64.764 44.045)">
        <path id="Path_1035659" data-name="Path 1035659" d="M139.506,272v1.753h-2.629a.876.876,0,1,1,0-1.753Z" transform="translate(-136 -272)" fill="#2a4357"/>
      </g>
      <g id="Group_1175165" data-name="Group 1175165" transform="translate(62.135 47.551)">
        <path id="Path_1035660" data-name="Path 1035660" d="M118.135,304v1.753h-5.258a.876.876,0,1,1,0-1.753Z" transform="translate(-112 -304)" fill="#2a4357"/>
      </g>
      <g id="Group_1175166" data-name="Group 1175166" transform="translate(64.764 51.057)">
        <path id="Path_1035661" data-name="Path 1035661" d="M139.506,336v1.753h-2.629a.876.876,0,1,1,0-1.753Z" transform="translate(-136 -336)" fill="#2a4357"/>
      </g>
      <g id="Group_1175167" data-name="Group 1175167" transform="translate(64.764 54.562)">
        <path id="Path_1035662" data-name="Path 1035662" d="M139.506,368v1.753h-2.629a.876.876,0,1,1,0-1.753Z" transform="translate(-136 -368)" fill="#2a4357"/>
      </g>
      <g id="Group_1175168" data-name="Group 1175168" transform="translate(62.135 58.068)">
        <path id="Path_1035663" data-name="Path 1035663" d="M118.135,400v1.753h-5.258a.876.876,0,1,1,0-1.753Z" transform="translate(-112 -400)" fill="#2a4357"/>
      </g>
      <path id="Path_1035664" data-name="Path 1035664" d="M64,24h3.506V74.832H64Z" transform="translate(-7.124 -7.124)" fill="#5d95c1"/>
      <g id="Group_1175169" data-name="Group 1175169" transform="translate(56 16)">
        <path id="Path_1035665" data-name="Path 1035665" d="M216.538,62.451h-2.07a12.179,12.179,0,0,0-6.694-2.6V54.014a17.454,17.454,0,0,0,2.193.426,14.611,14.611,0,0,0,1.847.121,9.69,9.69,0,0,0,4.778-1.123,10.3,10.3,0,0,0,4.208-5.111,15.4,15.4,0,0,0,.986-3.258.876.876,0,0,0-.557-.958,16.425,16.425,0,0,0-3.377-.789,10.719,10.719,0,0,0-6.625,1,9.44,9.44,0,0,0-3.452,3.591v-6.2a17.455,17.455,0,0,0,2.193.426,14.611,14.611,0,0,0,1.847.121,9.69,9.69,0,0,0,4.778-1.123,10.3,10.3,0,0,0,4.208-5.111,15.4,15.4,0,0,0,.986-3.258.876.876,0,0,0-.557-.958,16.425,16.425,0,0,0-3.377-.789,10.72,10.72,0,0,0-6.625,1,9.44,9.44,0,0,0-3.452,3.591V33.055c1.074-.961,4.382-4.249,4.382-8.29,0-4.721-4.516-8.415-4.709-8.57a.876.876,0,0,0-1.1,0c-.192.155-4.709,3.849-4.709,8.57,0,4.041,3.308,7.329,4.382,8.29v2.561a9.44,9.44,0,0,0-3.452-3.591,10.721,10.721,0,0,0-6.625-1,16.425,16.425,0,0,0-3.377.789.876.876,0,0,0-.557.958,15.4,15.4,0,0,0,.986,3.258,10.3,10.3,0,0,0,4.208,5.111,9.69,9.69,0,0,0,4.778,1.123,14.63,14.63,0,0,0,1.847-.121,17.461,17.461,0,0,0,2.193-.426v6.2a9.44,9.44,0,0,0-3.452-3.591,10.72,10.72,0,0,0-6.625-1,16.425,16.425,0,0,0-3.377.789.876.876,0,0,0-.557.958,15.4,15.4,0,0,0,.986,3.258,10.3,10.3,0,0,0,4.208,5.111,9.69,9.69,0,0,0,4.778,1.123,14.63,14.63,0,0,0,1.847-.121,17.463,17.463,0,0,0,2.193-.426v5.839a12.179,12.179,0,0,0-6.694,2.6h-2.07A5.264,5.264,0,0,0,192,67.71a.876.876,0,0,0,.876.876H220.92a.876.876,0,0,0,.876-.876,5.264,5.264,0,0,0-5.258-5.258Zm-4.452-16.6c2.68-1.509,6.29-.753,7.808-.325-.379,1.5-1.5,4.886-4.162,6.384-2.089,1.177-4.743.976-6.531.628l1.713-.965,2.117.551a.876.876,0,0,0,.441-1.7l-.358-.093.917-.516,2.117.55a.876.876,0,0,0,.441-1.7l-.358-.093,1.225-.69a.876.876,0,0,0-.86-1.527l-1.285.724.1-.368a.876.876,0,1,0-1.69-.464l-.56,2.042-.967.544.1-.368a.876.876,0,1,0-1.69-.464l-.56,2.042-1.765.994a9.386,9.386,0,0,1,3.806-5.195Zm0-12.3c2.68-1.509,6.29-.753,7.808-.325-.379,1.5-1.5,4.886-4.162,6.384-2.089,1.177-4.743.976-6.531.628l1.713-.965,2.117.551a.876.876,0,1,0,.441-1.7l-.358-.093.917-.516,2.117.55a.876.876,0,0,0,.441-1.7l-.358-.093,1.225-.69a.876.876,0,0,0-.86-1.527l-1.285.724.1-.368a.876.876,0,1,0-1.69-.464L213.16,36l-.967.544.1-.368a.876.876,0,1,0-1.69-.464l-.56,2.042-1.765.994a9.386,9.386,0,0,1,3.806-5.195ZM201.5,36.174l.1.368L200.634,36l-.56-2.042a.876.876,0,1,0-1.69.464l.1.368-1.285-.724a.876.876,0,0,0-.86,1.527l1.225.69-.358.093a.876.876,0,1,0,.441,1.7l2.117-.55.917.516-.358.093a.876.876,0,1,0,.441,1.7l2.117-.551,1.713.965c-1.788.348-4.442.549-6.531-.628-2.66-1.5-3.783-4.888-4.162-6.384,1.518-.428,5.128-1.184,7.808.325a9.385,9.385,0,0,1,3.806,5.195l-1.765-.994-.56-2.042a.876.876,0,1,0-1.69.464Zm0,12.3.1.368-.967-.544-.56-2.042a.876.876,0,1,0-1.69.464l.1.368-1.285-.724a.876.876,0,0,0-.86,1.527l1.225.69-.358.093a.876.876,0,1,0,.441,1.7l2.117-.55.917.516-.358.093a.876.876,0,1,0,.441,1.7l2.117-.551,1.713.965c-1.788.348-4.442.549-6.531-.628-2.66-1.5-3.783-4.888-4.162-6.384,1.518-.428,5.128-1.184,7.808.325a9.385,9.385,0,0,1,3.806,5.195l-1.765-.994-.56-2.042a.876.876,0,1,0-1.69.464Zm1.892-23.709c0-3,2.4-5.645,3.507-6.71,1.109,1.062,3.5,3.7,3.5,6.71a9.36,9.36,0,0,1-2.629,5.792V27.936l1.268-.634a.876.876,0,0,0-.784-1.568l-.484.242v-.669l1.268-.634a.876.876,0,0,0-.784-1.568l-.484.242V21.26a.876.876,0,0,0-1.753,0v2.088l-.484-.242a.876.876,0,0,0-.784,1.568l1.268.634v.669l-.484-.242a.876.876,0,0,0-.784,1.568l1.268.634v2.626A9.339,9.339,0,0,1,203.391,24.765Zm-7.425,41.812-.128.256h-1.977a3.512,3.512,0,0,1,3.395-2.629h.266a12.217,12.217,0,0,0-1.557,2.374Zm18.094.256H197.817a10.469,10.469,0,0,1,18.161,0Zm3.9,0-.128-.256a12.217,12.217,0,0,0-1.557-2.374h.266a3.512,3.512,0,0,1,3.395,2.629Z" transform="translate(-177.099 -16.001)"/>
        <path id="Path_1035666" data-name="Path 1035666" d="M68.27,16H56.876a.876.876,0,0,0-.876.876V67.709a.876.876,0,0,0,.876.876H68.27a.876.876,0,0,0,.876-.876V16.876A.876.876,0,0,0,68.27,16ZM59.506,66.832H57.753V17.753h1.753Zm7.888-47.326H65.641a.876.876,0,1,0,0,1.753h1.753v1.753H65.641a.876.876,0,1,0,0,1.753h1.753v1.753H63.011a.876.876,0,0,0,0,1.753h4.382v1.753H65.641a.876.876,0,1,0,0,1.753h1.753v1.753H65.641a.876.876,0,1,0,0,1.753h1.753v1.753H63.011a.876.876,0,1,0,0,1.753h4.382V40.54H65.641a.876.876,0,1,0,0,1.753h1.753v1.753H65.641a.876.876,0,1,0,0,1.753h1.753v1.753H63.011a.876.876,0,1,0,0,1.753h4.382v1.753H65.641a.876.876,0,1,0,0,1.753h1.753v1.753H65.641a.876.876,0,0,0,0,1.753h1.753v1.753H63.011a.876.876,0,1,0,0,1.753h4.382v7.011H61.258V17.753h6.135Z" transform="translate(-56 -16)"/>
      </g>
    </g>
  </g>
</svg>
