<svg xmlns="http://www.w3.org/2000/svg" xmlns:xlink="http://www.w3.org/1999/xlink" width="113" height="113" viewBox="0 0 113 113">
  <defs>
    <filter id="Path_982547" x="0" y="0" width="113" height="113" filterUnits="userSpaceOnUse">
      <feOffset dy="3" input="SourceAlpha"/>
      <feGaussianBlur stdDeviation="3" result="blur"/>
      <feFlood flood-opacity="0.161"/>
      <feComposite operator="in" in2="blur"/>
      <feComposite in="SourceGraphic"/>
    </filter>
  </defs>
  <g id="Group_1175441" data-name="Group 1175441" transform="translate(-1216.75 -8920.061)">
    <g id="Group_1175119" data-name="Group 1175119" transform="translate(944.75 7915.008)">
      <g id="Group_1174859" data-name="Group 1174859" transform="translate(281 1011.053)">
        <g id="Group_1167343" data-name="Group 1167343" transform="translate(0)">
          <g id="Group_1166777" data-name="Group 1166777" transform="translate(0)">
            <g id="Group_1164305" data-name="Group 1164305">
              <g id="Group_1163948" data-name="Group 1163948">
                <g id="Group_1158168" data-name="Group 1158168">
                  <g id="Group_1152576" data-name="Group 1152576">
                    <g id="Group_1148633" data-name="Group 1148633">
                      <g id="Group_1148525" data-name="Group 1148525">
                        <g transform="matrix(1, 0, 0, 1, -9, -6)" filter="url(#Path_982547)">
                          <g id="Path_982547-2" data-name="Path 982547" transform="translate(9 6)" fill="#f4f9ff">
                            <path d="M 47.5 93.5 C 41.28937149047852 93.5 35.26533508300781 92.28397369384766 29.59518623352051 89.88570404052734 C 24.11771965026855 87.56893157958984 19.19813346862793 84.25196075439453 14.97309303283691 80.02691650390625 C 10.74804019927979 75.80186462402344 7.431066513061523 70.88229370117188 5.114293098449707 65.40481567382812 C 2.716026782989502 59.73468017578125 1.5 53.71062850952148 1.5 47.5 C 1.5 41.28937149047852 2.716026782989502 35.26533508300781 5.114293098449707 29.59518623352051 C 7.431066513061523 24.11771965026855 10.74804019927979 19.19813346862793 14.97309303283691 14.97309303283691 C 19.19813346862793 10.74804019927979 24.11771965026855 7.431066513061523 29.59518623352051 5.114293098449707 C 35.26533508300781 2.716026782989502 41.28937149047852 1.5 47.5 1.5 C 53.71062850952148 1.5 59.73468017578125 2.716026782989502 65.40481567382812 5.114293098449707 C 70.88229370117188 7.431066513061523 75.80186462402344 10.74804019927979 80.02691650390625 14.97309303283691 C 84.25196075439453 19.19813346862793 87.56893157958984 24.11771965026855 89.88570404052734 29.59518623352051 C 92.28397369384766 35.26533508300781 93.5 41.28937149047852 93.5 47.5 C 93.5 53.71062850952148 92.28397369384766 59.73468017578125 89.88570404052734 65.40481567382812 C 87.56893157958984 70.88229370117188 84.25196075439453 75.80186462402344 80.02691650390625 80.02691650390625 C 75.80186462402344 84.25196075439453 70.88229370117188 87.56893157958984 65.40481567382812 89.88570404052734 C 59.73468017578125 92.28397369384766 53.71062850952148 93.5 47.5 93.5 Z" stroke="none"/>
                            <path d="M 47.5 3 C 41.49121475219727 3 35.66376876831055 4.176155090332031 30.17950439453125 6.495796203613281 C 24.88084411621094 8.736953735351562 20.12152099609375 11.94598388671875 16.03375244140625 16.03375244140625 C 11.94598388671875 20.12152099609375 8.736953735351562 24.88084411621094 6.495796203613281 30.17950439453125 C 4.176155090332031 35.66376876831055 3 41.49121475219727 3 47.5 C 3 53.50878524780273 4.176155090332031 59.33624649047852 6.495796203613281 64.82049560546875 C 8.736953735351562 70.11917114257812 11.94598388671875 74.87849426269531 16.03375244140625 78.96626281738281 C 20.12152099609375 83.05403137207031 24.88084411621094 86.2630615234375 30.17950439453125 88.50419616699219 C 35.66376876831055 90.82384490966797 41.49121475219727 92 47.5 92 C 53.50878524780273 92 59.33624649047852 90.82384490966797 64.82049560546875 88.50419616699219 C 70.11917114257812 86.2630615234375 74.87849426269531 83.05403137207031 78.96626281738281 78.96626281738281 C 83.05403137207031 74.87849426269531 86.2630615234375 70.11917114257812 88.50419616699219 64.82049560546875 C 90.82384490966797 59.33624649047852 92 53.50878524780273 92 47.5 C 92 41.49121475219727 90.82384490966797 35.66376876831055 88.50419616699219 30.17950439453125 C 86.2630615234375 24.88084411621094 83.05403137207031 20.12152099609375 78.96626281738281 16.03375244140625 C 74.87849426269531 11.94598388671875 70.11917114257812 8.736953735351562 64.82049560546875 6.495796203613281 C 59.33624649047852 4.176155090332031 53.50878524780273 3 47.5 3 M 47.5 0 C 73.73353576660156 0 95 21.2664794921875 95 47.5 C 95 73.73353576660156 73.73353576660156 95 47.5 95 C 21.2664794921875 95 0 73.73353576660156 0 47.5 C 0 21.2664794921875 21.2664794921875 0 47.5 0 Z" stroke="none" fill="#719acc"/>
                          </g>
                        </g>
                      </g>
                    </g>
                  </g>
                </g>
              </g>
            </g>
          </g>
        </g>
      </g>
    </g>
    <g id="Analysis" transform="translate(1241.283 8941.57)">
      <path id="Path_1036101" data-name="Path 1036101" d="M59.75,59.75a4.008,4.008,0,0,1-5.66,0L37.83,43.49l5.66-5.66L59.75,54.09A4.008,4.008,0,0,1,59.75,59.75Z" fill="#c0ab91"/>
      <path id="Path_1036102" data-name="Path 1036102" d="M42.08,39.25l-2.83,2.83-.01-.01-5.3-5.3a18.93,18.93,0,0,0,2.83-2.83Z" fill="#c6c5ca"/>
      <path id="Path_1036103" data-name="Path 1036103" d="M41,22A19.018,19.018,0,1,1,36.14,9.32,19.018,19.018,0,0,1,41,22Z" fill="#00d7df"/>
      <path id="Path_1036104" data-name="Path 1036104" d="M41,22A18.994,18.994,0,0,1,6.72,33.28,18.992,18.992,0,0,0,33.29,6.73a18.423,18.423,0,0,1,2.85,2.59A18.916,18.916,0,0,1,41,22Z" fill="#00b6bd"/>
      <path id="Path_1036105" data-name="Path 1036105" d="M32.5,26.62s.09,4.81-2.62,6.72-5.95,1.97-7.21.16-.1-4.82,2.62-6.72S32.5,26.62,32.5,26.62Z" fill="#ccfc5c"/>
      <path id="Path_1036106" data-name="Path 1036106" d="M32.5,17.28s.09,4.82-2.62,6.72-5.95,1.98-7.21.17-.1-4.82,2.62-6.72S32.5,17.28,32.5,17.28Z" fill="#ccfc5c"/>
      <path id="Path_1036107" data-name="Path 1036107" d="M3,45H29V61H3Z" fill="#57a4ff"/>
      <path id="Path_1036108" data-name="Path 1036108" d="M59.75,59.75a4.008,4.008,0,0,1-5.66,0l-4-4a4,4,0,0,0,5.66-5.66l4,4a4.008,4.008,0,0,1,0,5.66Z" fill="#b39a7c"/>
      <path id="Path_1036109" data-name="Path 1036109" d="M42.08,39.25l-2.83,2.83-.01-.01-3.99-3.99,2.83-2.83Z" fill="#acabb1"/>
      <path id="Path_1036110" data-name="Path 1036110" d="M29,45V61H3V57H21a4,4,0,0,0,4-4V45Z" fill="#2488ff"/>
      <g id="Group_1175440" data-name="Group 1175440">
        <path id="Path_1036111" data-name="Path 1036111" d="M26,12.83c0,3.32-1.79,6-4,6s-4-2.68-4-6,4-6,4-6S26,9.52,26,12.83Z" fill="#ccfc5c"/>
        <path id="Path_1036112" data-name="Path 1036112" d="M18.71,17.45c2.72,1.9,3.89,4.91,2.62,6.72S16.84,25.9,14.12,24s-2.62-6.72-2.62-6.72S16,15.55,18.71,17.45Z" fill="#ccfc5c"/>
        <path id="Path_1036113" data-name="Path 1036113" d="M18.71,26.78c2.72,1.9,3.89,4.91,2.62,6.72s-4.49,1.74-7.21-.16-2.62-6.72-2.62-6.72S16,24.88,18.71,26.78Z" fill="#ccfc5c"/>
      </g>
      <path id="Path_1036114" data-name="Path 1036114" d="M60.46,53.38,44.19,37.12a1,1,0,0,0-1.41,0l-.71.71-3.99-3.99a19.874,19.874,0,0,0-.43-24.26L40.28,8H48V6H40a1,1,0,0,0-.51.14L36.3,8.05a20.01,20.01,0,1,0-2.46,30.03l3.99,3.99-.71.71a1,1,0,0,0,0,1.41L53.38,60.46a5.006,5.006,0,1,0,7.08-7.08ZM21,27.49a10.053,10.053,0,0,0-1.25-1.18A4.8,4.8,0,0,0,21,25.78Zm-2.86.11c2.22,1.56,3.31,3.99,2.37,5.33a2.577,2.577,0,0,1-2.22.88,6.784,6.784,0,0,1-3.59-1.29c-1.69-1.19-2.08-3.9-2.17-5.18,1.24-.36,3.92-.92,5.61.26ZM12.53,18c1.24-.35,3.92-.91,5.61.27a6.694,6.694,0,0,1,2.44,2.94,2.575,2.575,0,0,1-.07,2.38c-.93,1.34-3.59,1.15-5.81-.41C13.01,22,12.62,19.29,12.53,18ZM19,12.83c0-2.06,2-3.94,3-4.75,1.17.94,3,2.83,3,4.75,0,2.71-1.37,5-3,5S19,15.54,19,12.83ZM25.86,27.6c1.69-1.18,4.38-.62,5.62-.26-.11,1.49-.6,4.07-2.18,5.18a6.784,6.784,0,0,1-3.59,1.29,2.615,2.615,0,0,1-2.22-.88c-.94-1.34.15-3.77,2.37-5.33ZM23,27.49V25.78a4.8,4.8,0,0,0,1.25.53A10.053,10.053,0,0,0,23,27.49Zm6.3-4.31c-2.22,1.56-4.88,1.74-5.81.41a2.575,2.575,0,0,1-.07-2.38,6.694,6.694,0,0,1,2.44-2.94,4.656,4.656,0,0,1,2.69-.72,11.2,11.2,0,0,1,2.92.45c-.09,1.29-.48,4-2.17,5.18ZM23,39.95V35.14a4.929,4.929,0,0,0,2.6.67h.15a8.684,8.684,0,0,0,4.7-1.66c3.11-2.18,3.05-7.33,3.05-7.55a1.011,1.011,0,0,0-.64-.92,14.3,14.3,0,0,0-2.73-.67c.11-.07.22-.12.32-.19,3.11-2.18,3.05-7.34,3.05-7.56a1.008,1.008,0,0,0-.64-.91,11.8,11.8,0,0,0-6.32-.54A9.746,9.746,0,0,0,27,12.83c0-3.8-4.26-6.71-4.44-6.83a1.033,1.033,0,0,0-1.12,0C21.26,6.12,17,9.03,17,12.83a9.746,9.746,0,0,0,.46,2.98,11.908,11.908,0,0,0-6.32.54,1.008,1.008,0,0,0-.64.91c0,.22-.06,5.38,3.05,7.56.1.07.21.12.32.19a14.3,14.3,0,0,0-2.73.67,1.011,1.011,0,0,0-.64.92c0,.22-.06,5.37,3.05,7.55a8.684,8.684,0,0,0,4.7,1.66h.15a4.929,4.929,0,0,0,2.6-.67v4.81A17.988,17.988,0,1,1,34.54,9.11l-5.05,3.03,1.02,1.72,5.42-3.25A17.975,17.975,0,0,1,23,39.95Zm12.39-3.14a19.025,19.025,0,0,0,1.42-1.42l3.85,3.85-1.42,1.42ZM59.04,59.04a3.066,3.066,0,0,1-4.24,0L39.24,43.49l4.25-4.25L59.04,54.8a2.994,2.994,0,0,1,0,4.24Z"/>
      <path id="Path_1036115" data-name="Path 1036115" d="M50,2H62V4H50Z"/>
      <path id="Path_1036116" data-name="Path 1036116" d="M50,6H62V8H50Z"/>
      <path id="Path_1036117" data-name="Path 1036117" d="M50,10H62v2H50Z"/>
      <path id="Path_1036118" data-name="Path 1036118" d="M29,44H3a1,1,0,0,0-1,1V61a1,1,0,0,0,1,1H29a1,1,0,0,0,1-1V45A1,1,0,0,0,29,44ZM28,60H4V46H28Z"/>
      <path id="Path_1036119" data-name="Path 1036119" d="M60,18h2V32H60Z"/>
      <path id="Path_1036120" data-name="Path 1036120" d="M56,20h2V32H56Z"/>
      <path id="Path_1036121" data-name="Path 1036121" d="M52,22h2V32H52Z"/>
      <path id="Path_1036122" data-name="Path 1036122" d="M48,24h2v8H48Z"/>
      <path id="Path_1036123" data-name="Path 1036123" d="M44,26h2v6H44Z"/>
      <path id="Path_1036124" data-name="Path 1036124" d="M6,48H26v2H6Z"/>
      <path id="Path_1036125" data-name="Path 1036125" d="M6,52H26v2H6Z"/>
      <path id="Path_1036126" data-name="Path 1036126" d="M6,56H26v2H6Z"/>
    </g>
  </g>
</svg>
