<svg xmlns="http://www.w3.org/2000/svg" xmlns:xlink="http://www.w3.org/1999/xlink" width="113" height="113" viewBox="0 0 113 113">
  <defs>
    <filter id="Path_982547" x="0" y="0" width="113" height="113" filterUnits="userSpaceOnUse">
      <feOffset dy="3" input="SourceAlpha"/>
      <feGaussianBlur stdDeviation="3" result="blur"/>
      <feFlood flood-opacity="0.161"/>
      <feComposite operator="in" in2="blur"/>
      <feComposite in="SourceGraphic"/>
    </filter>
    <clipPath id="clip-path">
      <path id="path1869" d="M0-682.665H64.432v64.432H0Z" transform="translate(0 682.665)"/>
    </clipPath>
  </defs>
  <g id="Group_1175130" data-name="Group 1175130" transform="translate(-272.301 -914.212)">
    <g id="Group_1175059" data-name="Group 1175059" transform="translate(0.301 -90.841)">
      <g id="Group_1174859" data-name="Group 1174859" transform="translate(281 1011.053)">
        <g id="Group_1167343" data-name="Group 1167343" transform="translate(0)">
          <g id="Group_1166777" data-name="Group 1166777" transform="translate(0)">
            <g id="Group_1164305" data-name="Group 1164305">
              <g id="Group_1163948" data-name="Group 1163948">
                <g id="Group_1158168" data-name="Group 1158168">
                  <g id="Group_1152576" data-name="Group 1152576">
                    <g id="Group_1148633" data-name="Group 1148633">
                      <g id="Group_1148525" data-name="Group 1148525">
                        <g transform="matrix(1, 0, 0, 1, -9, -6)" filter="url(#Path_982547)">
                          <g id="Path_982547-2" data-name="Path 982547" transform="translate(9 6)" fill="#f4f9ff">
                            <path d="M 47.5 93.5 C 41.28937149047852 93.5 35.26533508300781 92.28397369384766 29.59518623352051 89.88570404052734 C 24.11771965026855 87.56893157958984 19.19813346862793 84.25196075439453 14.97309303283691 80.02691650390625 C 10.74804019927979 75.80186462402344 7.431066513061523 70.88229370117188 5.114293098449707 65.40481567382812 C 2.716026782989502 59.73468017578125 1.5 53.71062850952148 1.5 47.5 C 1.5 41.28937149047852 2.716026782989502 35.26533508300781 5.114293098449707 29.59518623352051 C 7.431066513061523 24.11771965026855 10.74804019927979 19.19813346862793 14.97309303283691 14.97309303283691 C 19.19813346862793 10.74804019927979 24.11771965026855 7.431066513061523 29.59518623352051 5.114293098449707 C 35.26533508300781 2.716026782989502 41.28937149047852 1.5 47.5 1.5 C 53.71062850952148 1.5 59.73468017578125 2.716026782989502 65.40481567382812 5.114293098449707 C 70.88229370117188 7.431066513061523 75.80186462402344 10.74804019927979 80.02691650390625 14.97309303283691 C 84.25196075439453 19.19813346862793 87.56893157958984 24.11771965026855 89.88570404052734 29.59518623352051 C 92.28397369384766 35.26533508300781 93.5 41.28937149047852 93.5 47.5 C 93.5 53.71062850952148 92.28397369384766 59.73468017578125 89.88570404052734 65.40481567382812 C 87.56893157958984 70.88229370117188 84.25196075439453 75.80186462402344 80.02691650390625 80.02691650390625 C 75.80186462402344 84.25196075439453 70.88229370117188 87.56893157958984 65.40481567382812 89.88570404052734 C 59.73468017578125 92.28397369384766 53.71062850952148 93.5 47.5 93.5 Z" stroke="none"/>
                            <path d="M 47.5 3 C 41.49121475219727 3 35.66376876831055 4.176155090332031 30.17950439453125 6.495796203613281 C 24.88084411621094 8.736953735351562 20.12152099609375 11.94598388671875 16.03375244140625 16.03375244140625 C 11.94598388671875 20.12152099609375 8.736953735351562 24.88084411621094 6.495796203613281 30.17950439453125 C 4.176155090332031 35.66376876831055 3 41.49121475219727 3 47.5 C 3 53.50878524780273 4.176155090332031 59.33624649047852 6.495796203613281 64.82049560546875 C 8.736953735351562 70.11917114257812 11.94598388671875 74.87849426269531 16.03375244140625 78.96626281738281 C 20.12152099609375 83.05403137207031 24.88084411621094 86.2630615234375 30.17950439453125 88.50419616699219 C 35.66376876831055 90.82384490966797 41.49121475219727 92 47.5 92 C 53.50878524780273 92 59.33624649047852 90.82384490966797 64.82049560546875 88.50419616699219 C 70.11917114257812 86.2630615234375 74.87849426269531 83.05403137207031 78.96626281738281 78.96626281738281 C 83.05403137207031 74.87849426269531 86.2630615234375 70.11917114257812 88.50419616699219 64.82049560546875 C 90.82384490966797 59.33624649047852 92 53.50878524780273 92 47.5 C 92 41.49121475219727 90.82384490966797 35.66376876831055 88.50419616699219 30.17950439453125 C 86.2630615234375 24.88084411621094 83.05403137207031 20.12152099609375 78.96626281738281 16.03375244140625 C 74.87849426269531 11.94598388671875 70.11917114257812 8.736953735351562 64.82049560546875 6.495796203613281 C 59.33624649047852 4.176155090332031 53.50878524780273 3 47.5 3 M 47.5 0 C 73.73353576660156 0 95 21.2664794921875 95 47.5 C 95 73.73353576660156 73.73353576660156 95 47.5 95 C 21.2664794921875 95 0 73.73353576660156 0 47.5 C 0 21.2664794921875 21.2664794921875 0 47.5 0 Z" stroke="none" fill="#719acc"/>
                          </g>
                        </g>
                      </g>
                    </g>
                  </g>
                </g>
              </g>
            </g>
          </g>
        </g>
      </g>
    </g>
    <g id="g1863" transform="translate(296.084 1620.161)">
      <g id="g1865" transform="translate(0 -682.665)">
        <g id="g1867" transform="translate(0 0)" clip-path="url(#clip-path)">
          <g id="g1873" transform="translate(46.395 18.34)">
            <path id="path1875" d="M-98.839-20.14h0a2.1,2.1,0,0,0-2.1-2.1h-6.11a2.1,2.1,0,0,0-2.1,2.1h0a2.1,2.1,0,0,0,2.1,2.1h6.11a2.1,2.1,0,0,0,2.1-2.1" transform="translate(109.14 22.239)" fill="#28e0d2"/>
          </g>
          <g id="g1877" transform="translate(46.395 27.038)">
            <path id="path1879" d="M-74.689-20.14h0a2.1,2.1,0,0,0-2.1-2.1h-3.593a2.1,2.1,0,0,0-2.1,2.1h0a2.1,2.1,0,0,0,2.1,2.1h3.593a2.1,2.1,0,0,0,2.1-2.1" transform="translate(82.473 22.239)" fill="#28e0d2"/>
          </g>
          <g id="g1881" transform="translate(46.395 0.944)">
            <path id="path1883" d="M-98.839-20.14h0a2.1,2.1,0,0,0-2.1-2.1h-6.11a2.1,2.1,0,0,0-2.1,2.1h0a2.1,2.1,0,0,0,2.1,2.1h6.11a2.1,2.1,0,0,0,2.1-2.1" transform="translate(109.14 22.239)" fill="#28e0d2"/>
          </g>
          <g id="g1885" transform="translate(46.395 9.642)">
            <path id="path1887" d="M-74.689-20.14h0a2.1,2.1,0,0,0-2.1-2.1h-3.593a2.1,2.1,0,0,0-2.1,2.1h0a2.1,2.1,0,0,0,2.1,2.1h3.593a2.1,2.1,0,0,0,2.1-2.1" transform="translate(82.473 22.239)" fill="#28e0d2"/>
          </g>
          <g id="g1889" transform="translate(7.495 9.642)">
            <path id="path1891" d="M-104.032-131.025a2.048,2.048,0,0,0-2.047,2.05,1.789,1.789,0,0,1-1.785,1.788H-109a1.789,1.789,0,0,1-1.785-1.788v-9.817A1.789,1.789,0,0,1-109-140.581h1.132a1.789,1.789,0,0,1,1.785,1.788,2.048,2.048,0,0,0,2.047,2.05,2.048,2.048,0,0,0,2.047-2.05,5.89,5.89,0,0,0-5.879-5.889H-109a5.89,5.89,0,0,0-5.879,5.889v9.817A5.89,5.89,0,0,0-109-123.087h1.132a5.89,5.89,0,0,0,5.879-5.888,2.048,2.048,0,0,0-2.047-2.05" transform="translate(114.874 144.681)" fill="#4e5660"/>
          </g>
          <g id="g1893" transform="translate(18.124 2.79)">
            <path id="path1895" d="M-39.275-19.67a2.048,2.048,0,0,1-2.047,2.05,2.048,2.048,0,0,1-2.047-2.05,2.048,2.048,0,0,1,2.047-2.05,2.048,2.048,0,0,1,2.047,2.05" transform="translate(43.368 21.72)" fill="#4e5660"/>
          </g>
          <g id="g1897" transform="translate(17.567 0.944)">
            <path id="path1899" d="M-295.979-451.877a15.445,15.445,0,0,1-12.874,15.24,15.558,15.558,0,0,1-2.668.21,15.411,15.411,0,0,1-15.305-15.449,15.433,15.433,0,0,1,5.73-12.018,6.328,6.328,0,0,0,2.308-5.231,173.156,173.156,0,0,1,.175-23.281,7.187,7.187,0,0,1,7.1-6.565h.214a7.134,7.134,0,0,1,2.433.44,7.207,7.207,0,0,1,4.671,6.125,172.992,172.992,0,0,1,.174,23.281,6.442,6.442,0,0,0,2.376,5.287,15.425,15.425,0,0,1,5.663,11.962" transform="translate(326.826 498.972)" fill="#daf2ec"/>
          </g>
          <g id="g1901" transform="translate(17.567 0.944)">
            <path id="path1903" d="M-172.453-598.1a15.56,15.56,0,0,1-2.668.21,15.411,15.411,0,0,1-15.305-15.449,15.433,15.433,0,0,1,5.73-12.018,6.328,6.328,0,0,0,2.308-5.231,173.143,173.143,0,0,1,.175-23.281,7.187,7.187,0,0,1,7.1-6.565h.214a7.132,7.132,0,0,1,2.433.44,7.447,7.447,0,0,0-4.977,6.178c-.405,4.549-.25,23.143-.25,23.143l5.93,14.315-13.561,3.02A15.414,15.414,0,0,0-172.453-598.1" transform="translate(190.426 660.438)" fill="#b3e0d3"/>
          </g>
          <g id="g1905" transform="translate(22.671 14.04)">
            <path id="path1907" d="M-124.8-159.889v-13.972a2.69,2.69,0,0,0-2.687-2.692h0a2.69,2.69,0,0,0-2.688,2.692v13.972a13.33,13.33,0,0,1-4.318,9.768,10.321,10.321,0,0,0-3.3,8.1,10.36,10.36,0,0,0,9.818,9.81,10.327,10.327,0,0,0,10.808-10.325,10.317,10.317,0,0,0-3.285-7.563,13.426,13.426,0,0,1-4.347-9.795" transform="translate(137.807 176.553)" fill="#ff6161"/>
          </g>
          <g id="g1909" transform="translate(45.452 17.396)">
            <path id="path1911" d="M-87.789-40.278H-93.9a1.155,1.155,0,0,1-1.152-1.155A1.155,1.155,0,0,1-93.9-42.588h6.11a1.155,1.155,0,0,1,1.152,1.155,1.155,1.155,0,0,1-1.152,1.155m0-4.2H-93.9a3.044,3.044,0,0,0-3.039,3.043A3.045,3.045,0,0,0-93.9-38.39h6.11a3.045,3.045,0,0,0,3.039-3.043,3.044,3.044,0,0,0-3.039-3.043" transform="translate(96.938 44.476)"/>
          </g>
          <g id="g1913" transform="translate(45.452 26.094)">
            <path id="path1915" d="M-63.639-40.278h-3.593a1.155,1.155,0,0,1-1.152-1.155,1.155,1.155,0,0,1,1.152-1.155h3.593a1.155,1.155,0,0,1,1.152,1.155,1.155,1.155,0,0,1-1.152,1.155m0-4.2h-3.593a3.045,3.045,0,0,0-3.039,3.043,3.044,3.044,0,0,0,3.039,3.043h3.593A3.044,3.044,0,0,0-60.6-41.433a3.045,3.045,0,0,0-3.039-3.043" transform="translate(70.272 44.476)"/>
          </g>
          <g id="g1917" transform="translate(45.452 0)">
            <path id="path1919" d="M-29.162-18.112h6.11A1.155,1.155,0,0,1-21.9-16.957,1.155,1.155,0,0,1-23.052-15.8h-6.11a1.155,1.155,0,0,1-1.152-1.155,1.155,1.155,0,0,1,1.152-1.155m0,4.2h6.11a3.044,3.044,0,0,0,3.039-3.043A3.045,3.045,0,0,0-23.052-20h-6.11A3.045,3.045,0,0,0-32.2-16.957a3.044,3.044,0,0,0,3.039,3.043" transform="translate(32.201 20)"/>
          </g>
          <g id="g1921" transform="translate(45.452 8.698)">
            <path id="path1923" d="M-29.162-18.112h3.593a1.155,1.155,0,0,1,1.152,1.155A1.155,1.155,0,0,1-25.569-15.8h-3.593a1.155,1.155,0,0,1-1.152-1.155,1.155,1.155,0,0,1,1.152-1.155m0,4.2h3.593a3.044,3.044,0,0,0,3.039-3.043A3.045,3.045,0,0,0-25.569-20h-3.593A3.045,3.045,0,0,0-32.2-16.957a3.044,3.044,0,0,0,3.039,3.043" transform="translate(32.201 20)"/>
          </g>
          <g id="g1925" transform="translate(6.551 8.698)">
            <path id="path1927" d="M-141.782-159.752a3,3,0,0,0-2.99-2.994,3,3,0,0,0-2.99,2.994.844.844,0,0,1-.842.845h-1.132a.844.844,0,0,1-.842-.845v-9.817a.844.844,0,0,1,.842-.845h1.132a.844.844,0,0,1,.842.845,3,3,0,0,0,2.99,2.994,3,3,0,0,0,2.99-2.994A6.835,6.835,0,0,0-148.6-176.4h-1.132a6.835,6.835,0,0,0-6.823,6.832v.841a.944.944,0,0,0,.944.944.944.944,0,0,0,.944-.944v-.841a4.945,4.945,0,0,1,4.935-4.945h1.132a4.945,4.945,0,0,1,4.935,4.945,1.106,1.106,0,0,1-1.1,1.106,1.106,1.106,0,0,1-1.1-1.106A2.734,2.734,0,0,0-148.6-172.3h-1.132a2.734,2.734,0,0,0-2.729,2.732v9.817a2.734,2.734,0,0,0,2.729,2.732h1.132a2.734,2.734,0,0,0,2.729-2.732,1.106,1.106,0,0,1,1.1-1.106,1.106,1.106,0,0,1,1.1,1.106,4.945,4.945,0,0,1-4.935,4.945h-1.132a4.945,4.945,0,0,1-4.935-4.945v-4.505a.944.944,0,0,0-.944-.944.944.944,0,0,0-.944.944v4.505a6.835,6.835,0,0,0,6.823,6.832h1.132a6.835,6.835,0,0,0,6.822-6.832" transform="translate(156.558 176.401)"/>
          </g>
          <g id="g1929" transform="translate(17.18 1.847)">
            <path id="path1931" d="M-28.693-18.112a1.106,1.106,0,0,1,1.1,1.106,1.106,1.106,0,0,1-1.1,1.106,1.106,1.106,0,0,1-1.1-1.106,1.106,1.106,0,0,1,1.1-1.106m0,4.1a3,3,0,0,0,2.99-2.994A3,3,0,0,0-28.693-20a3,3,0,0,0-2.99,2.994,3,3,0,0,0,2.99,2.994" transform="translate(31.684 20)"/>
          </g>
          <g id="g1933" transform="translate(16.623 0)">
            <path id="path1935" d="M-256.445-339.155a5.527,5.527,0,0,1-2.032-4.511,174.269,174.269,0,0,0-.177-23.411,8.153,8.153,0,0,0-2.586-5.27,8.07,8.07,0,0,0-5.453-2.155h-.224a8.07,8.07,0,0,0-5.453,2.155,8.153,8.153,0,0,0-2.586,5.27c-.058.653-.112,1.338-.159,2.034a.944.944,0,0,0,.878,1.006.945.945,0,0,0,1.006-.877c.047-.683.1-1.354.156-1.995a6.214,6.214,0,0,1,6.168-5.7h.205a6.214,6.214,0,0,1,6.168,5.7,172.431,172.431,0,0,1,.172,23.152,7.422,7.422,0,0,0,2.72,6.062,14.472,14.472,0,0,1,5.317,11.233,14.417,14.417,0,0,1-4.289,10.3,14.369,14.369,0,0,1-10.19,4.2h-.112a14.531,14.531,0,0,1-14.369-14.5,14.463,14.463,0,0,1,5.38-11.285,7.3,7.3,0,0,0,2.657-6.01c-.309-6.418-.37-12.258-.182-17.359a.944.944,0,0,0-.908-.978.943.943,0,0,0-.978.908c-.191,5.154-.129,11.048.183,17.519a5.4,5.4,0,0,1-1.96,4.453,16.343,16.343,0,0,0-6.08,12.752,16.311,16.311,0,0,0,4.742,11.554,16.255,16.255,0,0,0,11.5,4.838h.126a16.243,16.243,0,0,0,11.52-4.749,16.292,16.292,0,0,0,4.847-11.645,16.353,16.353,0,0,0-6.008-12.692" transform="translate(283.171 374.502)"/>
          </g>
          <g id="g1937" transform="translate(21.727 13.096)">
            <path id="path1939" d="M-108.068,0A3.638,3.638,0,0,0-111.7,3.636V17.608a12.436,12.436,0,0,1-4.015,9.075,11.281,11.281,0,0,0-3.6,8.843,11.242,11.242,0,0,0,3.3,7.418,11.211,11.211,0,0,0,7.415,3.29q.27.012.538.012a11.174,11.174,0,0,0,4.032-.747.944.944,0,0,0,.542-1.22.944.944,0,0,0-1.22-.542,9.333,9.333,0,0,1-3.8.61,9.446,9.446,0,0,1-8.919-8.913,9.4,9.4,0,0,1,3-7.367,14.329,14.329,0,0,0,4.62-10.46V3.636a1.748,1.748,0,0,1,1.744-1.748,1.748,1.748,0,0,1,1.744,1.748V17.608a14.442,14.442,0,0,0,4.646,10.485,9.434,9.434,0,0,1,2.986,6.873,9.323,9.323,0,0,1-2.876,6.769.944.944,0,0,0-.025,1.335.944.944,0,0,0,1.335.025,11.2,11.2,0,0,0,3.454-8.128,11.328,11.328,0,0,0-3.585-8.253,12.548,12.548,0,0,1-4.047-9.1V3.636A3.638,3.638,0,0,0-108.068,0" transform="translate(119.331)"/>
          </g>
        </g>
      </g>
    </g>
  </g>
</svg>
