<svg xmlns="http://www.w3.org/2000/svg" xmlns:xlink="http://www.w3.org/1999/xlink" width="113" height="113" viewBox="0 0 113 113">
  <defs>
    <filter id="Path_982547" x="0" y="0" width="113" height="113" filterUnits="userSpaceOnUse">
      <feOffset dy="3" input="SourceAlpha"/>
      <feGaussianBlur stdDeviation="3" result="blur"/>
      <feFlood flood-opacity="0.161"/>
      <feComposite operator="in" in2="blur"/>
      <feComposite in="SourceGraphic"/>
    </filter>
  </defs>
  <g id="Group_1175135" data-name="Group 1175135" transform="translate(-586.25 -914.212)">
    <g id="Group_1175060" data-name="Group 1175060" transform="translate(314.25 -90.841)">
      <g id="Group_1174859" data-name="Group 1174859" transform="translate(281 1011.053)">
        <g id="Group_1167343" data-name="Group 1167343" transform="translate(0)">
          <g id="Group_1166777" data-name="Group 1166777" transform="translate(0)">
            <g id="Group_1164305" data-name="Group 1164305">
              <g id="Group_1163948" data-name="Group 1163948">
                <g id="Group_1158168" data-name="Group 1158168">
                  <g id="Group_1152576" data-name="Group 1152576">
                    <g id="Group_1148633" data-name="Group 1148633">
                      <g id="Group_1148525" data-name="Group 1148525">
                        <g transform="matrix(1, 0, 0, 1, -9, -6)" filter="url(#Path_982547)">
                          <g id="Path_982547-2" data-name="Path 982547" transform="translate(9 6)" fill="#f4f9ff">
                            <path d="M 47.5 93.5 C 41.28937149047852 93.5 35.26533508300781 92.28397369384766 29.59518623352051 89.88570404052734 C 24.11771965026855 87.56893157958984 19.19813346862793 84.25196075439453 14.97309303283691 80.02691650390625 C 10.74804019927979 75.80186462402344 7.431066513061523 70.88229370117188 5.114293098449707 65.40481567382812 C 2.716026782989502 59.73468017578125 1.5 53.71062850952148 1.5 47.5 C 1.5 41.28937149047852 2.716026782989502 35.26533508300781 5.114293098449707 29.59518623352051 C 7.431066513061523 24.11771965026855 10.74804019927979 19.19813346862793 14.97309303283691 14.97309303283691 C 19.19813346862793 10.74804019927979 24.11771965026855 7.431066513061523 29.59518623352051 5.114293098449707 C 35.26533508300781 2.716026782989502 41.28937149047852 1.5 47.5 1.5 C 53.71062850952148 1.5 59.73468017578125 2.716026782989502 65.40481567382812 5.114293098449707 C 70.88229370117188 7.431066513061523 75.80186462402344 10.74804019927979 80.02691650390625 14.97309303283691 C 84.25196075439453 19.19813346862793 87.56893157958984 24.11771965026855 89.88570404052734 29.59518623352051 C 92.28397369384766 35.26533508300781 93.5 41.28937149047852 93.5 47.5 C 93.5 53.71062850952148 92.28397369384766 59.73468017578125 89.88570404052734 65.40481567382812 C 87.56893157958984 70.88229370117188 84.25196075439453 75.80186462402344 80.02691650390625 80.02691650390625 C 75.80186462402344 84.25196075439453 70.88229370117188 87.56893157958984 65.40481567382812 89.88570404052734 C 59.73468017578125 92.28397369384766 53.71062850952148 93.5 47.5 93.5 Z" stroke="none"/>
                            <path d="M 47.5 3 C 41.49121475219727 3 35.66376876831055 4.176155090332031 30.17950439453125 6.495796203613281 C 24.88084411621094 8.736953735351562 20.12152099609375 11.94598388671875 16.03375244140625 16.03375244140625 C 11.94598388671875 20.12152099609375 8.736953735351562 24.88084411621094 6.495796203613281 30.17950439453125 C 4.176155090332031 35.66376876831055 3 41.49121475219727 3 47.5 C 3 53.50878524780273 4.176155090332031 59.33624649047852 6.495796203613281 64.82049560546875 C 8.736953735351562 70.11917114257812 11.94598388671875 74.87849426269531 16.03375244140625 78.96626281738281 C 20.12152099609375 83.05403137207031 24.88084411621094 86.2630615234375 30.17950439453125 88.50419616699219 C 35.66376876831055 90.82384490966797 41.49121475219727 92 47.5 92 C 53.50878524780273 92 59.33624649047852 90.82384490966797 64.82049560546875 88.50419616699219 C 70.11917114257812 86.2630615234375 74.87849426269531 83.05403137207031 78.96626281738281 78.96626281738281 C 83.05403137207031 74.87849426269531 86.2630615234375 70.11917114257812 88.50419616699219 64.82049560546875 C 90.82384490966797 59.33624649047852 92 53.50878524780273 92 47.5 C 92 41.49121475219727 90.82384490966797 35.66376876831055 88.50419616699219 30.17950439453125 C 86.2630615234375 24.88084411621094 83.05403137207031 20.12152099609375 78.96626281738281 16.03375244140625 C 74.87849426269531 11.94598388671875 70.11917114257812 8.736953735351562 64.82049560546875 6.495796203613281 C 59.33624649047852 4.176155090332031 53.50878524780273 3 47.5 3 M 47.5 0 C 73.73353576660156 0 95 21.2664794921875 95 47.5 C 95 73.73353576660156 73.73353576660156 95 47.5 95 C 21.2664794921875 95 0 73.73353576660156 0 47.5 C 0 21.2664794921875 21.2664794921875 0 47.5 0 Z" stroke="none" fill="#719acc"/>
                          </g>
                        </g>
                      </g>
                    </g>
                  </g>
                </g>
              </g>
            </g>
          </g>
        </g>
      </g>
    </g>
    <g id="humidity_5027747" transform="translate(596.076 936.468)">
      <g id="Group_1175131" data-name="Group 1175131" transform="translate(18.796 1.22)">
        <path id="Path_1035574" data-name="Path 1035574" d="M65.432,40.838l.005,0L50.86,12a3.637,3.637,0,0,0-6.491,0L29.792,40.836a20.8,20.8,0,0,0-2.214,9.547,20.04,20.04,0,1,0,37.855-9.544Z" transform="translate(-27.574 -10)" fill="#b2daff"/>
      </g>
      <g id="Group_1175132" data-name="Group 1175132" transform="translate(24.932 27.429)">
        <path id="Path_1035575" data-name="Path 1035575" d="M105.678,238.66a13.918,13.918,0,1,1-15.017-13.876q.548-.043,1.1-.043A13.918,13.918,0,0,1,105.678,238.66Z" transform="translate(-77.856 -224.742)" fill="#ff5c7d"/>
      </g>
      <g id="Group_1175133" data-name="Group 1175133" transform="translate(49.706 1.221)">
        <path id="Path_1035576" data-name="Path 1035576" d="M305.684,36.577A13.979,13.979,0,0,1,291.7,50.557a13.81,13.81,0,0,1-1.7-.105c0-.147.005-.3.005-.443a19.954,19.954,0,0,0-2.223-9.17l.005,0L280.837,27.08,288.458,12a3.637,3.637,0,0,1,6.492,0l9.187,18.178A14.294,14.294,0,0,1,305.684,36.577Z" transform="translate(-280.837 -10.003)" fill="#8cc8ff"/>
      </g>
      <g id="Group_1175134" data-name="Group 1175134" transform="translate(17.575 0)">
        <path id="Path_1035577" data-name="Path 1035577" d="M88.565,223.268a1.22,1.22,0,0,0-.923,2.26,12.7,12.7,0,0,1-4.711,24.456,12.83,12.83,0,0,1-12.786-12.609,12.646,12.646,0,0,1,7.878-11.839,1.22,1.22,0,0,0-.927-2.258A15.143,15.143,0,0,0,67.7,237.392a15.3,15.3,0,0,0,15.244,15.033,15.141,15.141,0,0,0,5.617-29.157Z" transform="translate(-61.585 -195.939)"/>
        <path id="Path_1035578" data-name="Path 1035578" d="M74.133,20.926q-.017-.041-.037-.081L64.908,2.667a4.857,4.857,0,0,0-8.67,0L49.7,15.594,43.171,2.666a4.857,4.857,0,0,0-8.67,0L19.924,31.506A21.267,21.267,0,0,0,38.836,62.488a21.261,21.261,0,0,0,21.187-19.5c.183.007.366.011.549.011a15.218,15.218,0,0,0,15.2-15.2,15.042,15.042,0,0,0-1.641-6.869ZM52.112,54.566a18.692,18.692,0,0,1-13.276,5.481A19.028,19.028,0,0,1,20.019,41.58c-.061-3.319.956-6.056,2.136-9.078L36.679,3.767a2.416,2.416,0,0,1,4.313,0L55.516,32.5a19.36,19.36,0,0,1,2.134,9.152,18.685,18.685,0,0,1-5.538,12.912Zm8.46-14.011q-.243,0-.487-.009A21.544,21.544,0,0,0,57.748,31.5L51.073,18.3l7.343-14.53a2.416,2.416,0,0,1,4.313,0l9.145,18.095a15.061,15.061,0,0,1,1.458,5.933A12.774,12.774,0,0,1,60.572,40.555Z" transform="translate(-17.575 0)"/>
        <path id="Path_1035579" data-name="Path 1035579" d="M145.834,289.674a1.22,1.22,0,0,0,1.692-.341l8.893-13.378a1.22,1.22,0,0,0-2.033-1.351l-8.893,13.378A1.221,1.221,0,0,0,145.834,289.674Z" transform="translate(-129.702 -240.611)"/>
        <path id="Path_1035580" data-name="Path 1035580" d="M122.235,273.055a3.852,3.852,0,1,0,3.844-4.1A3.984,3.984,0,0,0,122.235,273.055Zm5.246,0a1.423,1.423,0,1,1-1.4-1.662A1.551,1.551,0,0,1,127.481,273.055Z" transform="translate(-109.462 -236.127)"/>
        <path id="Path_1035581" data-name="Path 1035581" d="M196.652,348a3.852,3.852,0,1,0,3.844-4.1,3.984,3.984,0,0,0-3.844,4.1Zm5.246,0a1.423,1.423,0,1,1-1.4-1.662A1.551,1.551,0,0,1,201.9,348Z" transform="translate(-174.796 -301.925)"/>
        <path id="Path_1035582" data-name="Path 1035582" d="M182.332,216.98a1.221,1.221,0,1,0-.46-1.454A1.23,1.23,0,0,0,182.332,216.98Z" transform="translate(-161.75 -188.536)"/>
      </g>
    </g>
  </g>
</svg>
