<svg xmlns="http://www.w3.org/2000/svg" xmlns:xlink="http://www.w3.org/1999/xlink" width="113" height="113" viewBox="0 0 113 113">
  <defs>
    <filter id="Path_982547" x="0" y="0" width="113" height="113" filterUnits="userSpaceOnUse">
      <feOffset dy="3" input="SourceAlpha"/>
      <feGaussianBlur stdDeviation="3" result="blur"/>
      <feFlood flood-opacity="0.161"/>
      <feComposite operator="in" in2="blur"/>
      <feComposite in="SourceGraphic"/>
    </filter>
  </defs>
  <g id="Group_1175439" data-name="Group 1175439" transform="translate(-901.75 -8920.061)">
    <g id="Group_1175118" data-name="Group 1175118" transform="translate(629.75 7915.008)">
      <g id="Group_1174859" data-name="Group 1174859" transform="translate(281 1011.053)">
        <g id="Group_1167343" data-name="Group 1167343" transform="translate(0)">
          <g id="Group_1166777" data-name="Group 1166777" transform="translate(0)">
            <g id="Group_1164305" data-name="Group 1164305">
              <g id="Group_1163948" data-name="Group 1163948">
                <g id="Group_1158168" data-name="Group 1158168">
                  <g id="Group_1152576" data-name="Group 1152576">
                    <g id="Group_1148633" data-name="Group 1148633">
                      <g id="Group_1148525" data-name="Group 1148525">
                        <g transform="matrix(1, 0, 0, 1, -9, -6)" filter="url(#Path_982547)">
                          <g id="Path_982547-2" data-name="Path 982547" transform="translate(9 6)" fill="#f4f9ff">
                            <path d="M 47.5 93.5 C 41.28937149047852 93.5 35.26533508300781 92.28397369384766 29.59518623352051 89.88570404052734 C 24.11771965026855 87.56893157958984 19.19813346862793 84.25196075439453 14.97309303283691 80.02691650390625 C 10.74804019927979 75.80186462402344 7.431066513061523 70.88229370117188 5.114293098449707 65.40481567382812 C 2.716026782989502 59.73468017578125 1.5 53.71062850952148 1.5 47.5 C 1.5 41.28937149047852 2.716026782989502 35.26533508300781 5.114293098449707 29.59518623352051 C 7.431066513061523 24.11771965026855 10.74804019927979 19.19813346862793 14.97309303283691 14.97309303283691 C 19.19813346862793 10.74804019927979 24.11771965026855 7.431066513061523 29.59518623352051 5.114293098449707 C 35.26533508300781 2.716026782989502 41.28937149047852 1.5 47.5 1.5 C 53.71062850952148 1.5 59.73468017578125 2.716026782989502 65.40481567382812 5.114293098449707 C 70.88229370117188 7.431066513061523 75.80186462402344 10.74804019927979 80.02691650390625 14.97309303283691 C 84.25196075439453 19.19813346862793 87.56893157958984 24.11771965026855 89.88570404052734 29.59518623352051 C 92.28397369384766 35.26533508300781 93.5 41.28937149047852 93.5 47.5 C 93.5 53.71062850952148 92.28397369384766 59.73468017578125 89.88570404052734 65.40481567382812 C 87.56893157958984 70.88229370117188 84.25196075439453 75.80186462402344 80.02691650390625 80.02691650390625 C 75.80186462402344 84.25196075439453 70.88229370117188 87.56893157958984 65.40481567382812 89.88570404052734 C 59.73468017578125 92.28397369384766 53.71062850952148 93.5 47.5 93.5 Z" stroke="none"/>
                            <path d="M 47.5 3 C 41.49121475219727 3 35.66376876831055 4.176155090332031 30.17950439453125 6.495796203613281 C 24.88084411621094 8.736953735351562 20.12152099609375 11.94598388671875 16.03375244140625 16.03375244140625 C 11.94598388671875 20.12152099609375 8.736953735351562 24.88084411621094 6.495796203613281 30.17950439453125 C 4.176155090332031 35.66376876831055 3 41.49121475219727 3 47.5 C 3 53.50878524780273 4.176155090332031 59.33624649047852 6.495796203613281 64.82049560546875 C 8.736953735351562 70.11917114257812 11.94598388671875 74.87849426269531 16.03375244140625 78.96626281738281 C 20.12152099609375 83.05403137207031 24.88084411621094 86.2630615234375 30.17950439453125 88.50419616699219 C 35.66376876831055 90.82384490966797 41.49121475219727 92 47.5 92 C 53.50878524780273 92 59.33624649047852 90.82384490966797 64.82049560546875 88.50419616699219 C 70.11917114257812 86.2630615234375 74.87849426269531 83.05403137207031 78.96626281738281 78.96626281738281 C 83.05403137207031 74.87849426269531 86.2630615234375 70.11917114257812 88.50419616699219 64.82049560546875 C 90.82384490966797 59.33624649047852 92 53.50878524780273 92 47.5 C 92 41.49121475219727 90.82384490966797 35.66376876831055 88.50419616699219 30.17950439453125 C 86.2630615234375 24.88084411621094 83.05403137207031 20.12152099609375 78.96626281738281 16.03375244140625 C 74.87849426269531 11.94598388671875 70.11917114257812 8.736953735351562 64.82049560546875 6.495796203613281 C 59.33624649047852 4.176155090332031 53.50878524780273 3 47.5 3 M 47.5 0 C 73.73353576660156 0 95 21.2664794921875 95 47.5 C 95 73.73353576660156 73.73353576660156 95 47.5 95 C 21.2664794921875 95 0 73.73353576660156 0 47.5 C 0 21.2664794921875 21.2664794921875 0 47.5 0 Z" stroke="none" fill="#719acc"/>
                          </g>
                        </g>
                      </g>
                    </g>
                  </g>
                </g>
              </g>
            </g>
          </g>
        </g>
      </g>
    </g>
    <g id="Earth_Weather" data-name="Earth Weather" transform="translate(927.123 8941.177)">
      <path id="path4723" d="M44.408,25.784A19.624,19.624,0,1,1,24.784,6.16,19.6,19.6,0,0,1,44.408,25.784Z" transform="translate(3.035 5.451)" fill="#a4d0ef"/>
      <path id="path1109-2-0-3-0" d="M33.148,30.894H20.3a3.4,3.4,0,0,1,0-6.795h2.954a3.4,3.4,0,1,0,0-6.795H15.887a3.4,3.4,0,0,1,0-6.795H32.768Z" transform="translate(11.172 10.28)" fill="#dbf194"/>
      <path id="rect2035-20-2" d="M10.689,19.768h3.967a2.469,2.469,0,0,0,0-4.938H10.689a2.469,2.469,0,0,0,0,4.938Z" transform="translate(6.432 15.075)" fill="#dbf194"/>
      <path id="path3505-3" d="M16.961,14.7A6.33,6.33,0,1,1,4.3,14.7c0-3.482,6.33-10.973,6.33-10.973S16.961,11.221,16.961,14.7Z" transform="translate(2.081 2.753)" fill="#6e6fcf"/>
      <path id="path1723-6-7" d="M29.974,27.326a3.777,3.777,0,1,1-3.756-3.756A3.777,3.777,0,0,1,29.974,27.326Z" transform="translate(22.196 24.777)" fill="#e7bd78"/>
      <path id="path3568-5" d="M11.73,19.35a4.389,4.389,0,0,0-4.347,4.389H7.045a3.777,3.777,0,1,0,0,7.533H17.427a3.777,3.777,0,0,0,0-7.533H16.14a4.389,4.389,0,0,0-4.368-4.389Z" transform="translate(0.622 20.093)" fill="#e6e0f7"/>
      <path id="circle4725" d="M16.68,6.166a18.991,18.991,0,0,0-4.22.464,19.624,19.624,0,0,1,0,38.319,20.341,20.341,0,0,0,4.22.443,19.624,19.624,0,1,0,0-39.227Z" transform="translate(11.139 5.445)" fill="#6e6fcf"/>
      <path id="path4727" d="M18.33,10.51A19.6,19.6,0,0,1,18.6,30.894h8.44A19.6,19.6,0,0,0,26.77,10.51Z" transform="translate(17.655 10.28)" fill="#92d277"/>
      <g id="Group_1175438" data-name="Group 1175438" transform="translate(2.426 1.25)">
        <path id="Path_1036086" data-name="Path 1036086" d="M11.521,22.183h3.967a4.051,4.051,0,1,0,0-8.1H11.521a4.051,4.051,0,1,0,0,8.1Zm0-4.938h3.967a.886.886,0,1,1,0,1.772H11.521a.886.886,0,1,1,0-1.772Z" transform="translate(3.174 12.993)" fill="#12263f"/>
        <path id="Path_1036087" data-name="Path 1036087" d="M32.4,28.181a5.36,5.36,0,1,0-5.339,5.339A5.36,5.36,0,0,0,32.4,28.181Zm-5.339,2.11a.88.88,0,1,1,0,.063Z" transform="translate(18.948 22.673)" fill="#12263f"/>
        <path id="Path_1036088" data-name="Path 1036088" d="M26.671,23.263v-1.73a1.6,1.6,0,0,0-1.583-1.583c-2.11,0-1.477,2.806-1.583,3.313a1.583,1.583,0,0,0,3.165,0Z" transform="translate(20.963 19.509)" fill="#12263f"/>
        <path id="Path_1036089" data-name="Path 1036089" d="M23.48,30.013v1.73a1.6,1.6,0,1,0,3.207,0v-1.73a1.583,1.583,0,1,0-3.165,0Z" transform="translate(20.947 28.923)" fill="#12263f"/>
        <path id="Path_1036090" data-name="Path 1036090" d="M27.31,26.183a1.6,1.6,0,0,0,1.583,1.583h1.73a1.583,1.583,0,1,0,0-3.165h-1.73a1.6,1.6,0,0,0-1.583,1.583Z" transform="translate(25.198 24.671)" fill="#12263f"/>
        <path id="Path_1036091" data-name="Path 1036091" d="M23.7,26.183A1.583,1.583,0,0,0,22.122,24.6H20.413a1.583,1.583,0,0,0,0,3.165h1.709A1.583,1.583,0,0,0,23.7,26.183Z" transform="translate(15.785 24.671)" fill="#12263f"/>
        <path id="Path_1036092" data-name="Path 1036092" d="M28.884,25.174l1.224-1.224a1.583,1.583,0,0,0-2.216-2.237l-1.224,1.224a1.561,1.561,0,0,0,0,2.237,1.54,1.54,0,0,0,1.118.464,1.561,1.561,0,0,0,1.1-.464Z" transform="translate(23.962 21.079)" fill="#12263f"/>
        <path id="Path_1036093" data-name="Path 1036093" d="M21.761,31.639a1.667,1.667,0,0,0,1.118-.464L24.1,29.951a1.583,1.583,0,0,0-2.216-2.237l-1.224,1.224a1.583,1.583,0,0,0,0,2.237,1.625,1.625,0,0,0,1.1.464Z" transform="translate(17.306 27.74)" fill="#12263f"/>
        <path id="Path_1036094" data-name="Path 1036094" d="M7.668,51.014H18.049A5.275,5.275,0,0,0,21.932,49.3a20.552,20.552,0,0,0,5.845.886,20.89,20.89,0,1,0-8.926-39.733,51.782,51.782,0,0,0-4.9-6.942,1.667,1.667,0,0,0-2.427,0C10.411,4.845,4.84,11.639,4.84,15.522A7.871,7.871,0,0,0,8.259,22a20.173,20.173,0,0,0,.3,15.34,6.1,6.1,0,0,0-1.941,3.081,5.339,5.339,0,0,0,1.055,10.55Zm26.756-26.9H27.06a1.815,1.815,0,0,1,0-3.629H43.117A17.788,17.788,0,0,1,45.5,29.343a17.472,17.472,0,0,1-2.11,8.44H31.47a1.815,1.815,0,0,1,0-3.629h2.954a4.98,4.98,0,1,0,0-9.96ZM12.732,7.061c2.258,2.912,4.727,6.752,4.727,8.44a4.727,4.727,0,0,1-4.727,4.727A4.473,4.473,0,0,1,10.9,19.89a4.706,4.706,0,0,1-2.891-4.368C8.005,13.834,10.474,9.994,12.732,7.061ZM9.968,29.3a17.556,17.556,0,0,1,1.1-6.056,7.744,7.744,0,0,0,1.583.169,7.892,7.892,0,0,0,7.892-7.892,6.879,6.879,0,0,0-.443-2.11,17.809,17.809,0,0,1,7.6-1.751,17.6,17.6,0,0,1,12.977,5.7H27.06a4.98,4.98,0,1,0,0,9.96h7.364a1.815,1.815,0,1,1,0,3.629H31.47a4.98,4.98,0,1,0,0,9.96h9.749a17.535,17.535,0,0,1-17.894,5.613v-.781A5.339,5.339,0,0,0,18.07,40.4a5.782,5.782,0,0,0-1.54-2.638,5.929,5.929,0,0,0-4.22-1.751,6.6,6.6,0,0,0-.907,0A17.429,17.429,0,0,1,9.968,29.3Zm-2.3,14.18h.338A1.583,1.583,0,0,0,9.588,41.9a2.806,2.806,0,1,1,5.592,0,1.583,1.583,0,0,0,1.583,1.583h1.287a2.184,2.184,0,0,1,0,4.368H7.668a2.184,2.184,0,0,1,0-4.368Z" transform="translate(-2.426 0.683)" fill="#12263f"/>
        <path id="Path_1036095" data-name="Path 1036095" d="M5.43,28.243v2.11a1.583,1.583,0,1,0,3.165,0v-2.11a1.583,1.583,0,0,0-3.165,0Z" transform="translate(0.909 26.958)" fill="#12263f"/>
        <path id="Path_1036096" data-name="Path 1036096" d="M7.8,28.243v2.11a1.583,1.583,0,1,0,3.165,0v-2.11a1.583,1.583,0,0,0-3.165,0Z" transform="translate(3.54 26.958)" fill="#12263f"/>
        <path id="Path_1036097" data-name="Path 1036097" d="M11.753,26.66a1.6,1.6,0,0,0-1.583,1.583v2.11a1.583,1.583,0,1,0,3.165,0v-2.11a1.6,1.6,0,0,0-1.583-1.583Z" transform="translate(6.171 26.958)" fill="#12263f"/>
        <path id="Path_1036098" data-name="Path 1036098" d="M3.07,28.243v2.11a1.583,1.583,0,1,0,3.165,0v-2.11a1.583,1.583,0,0,0-3.165,0Z" transform="translate(-1.711 26.958)" fill="#12263f"/>
        <path id="Path_1036099" data-name="Path 1036099" d="M27.892,31.234a1.583,1.583,0,0,0,1.118.464,1.667,1.667,0,0,0,1.118-.464,1.583,1.583,0,0,0,0-2.237L28.9,27.773a1.583,1.583,0,0,0-2.237,0,1.561,1.561,0,0,0,0,2.237Z" transform="translate(23.962 27.68)" fill="#12263f"/>
        <path id="Path_1036100" data-name="Path 1036100" d="M22.283,11h2.764L23.084,12.94a1.625,1.625,0,0,0,0,2.258,1.667,1.667,0,0,0,1.118.464,1.625,1.625,0,0,0,1.118-.464l1.962-1.962V16a1.583,1.583,0,1,0,3.165,0V13.235L32.39,15.2a1.667,1.667,0,0,0,1.118.464,1.6,1.6,0,0,0,1.118-2.722L32.685,11H35.45a1.583,1.583,0,0,0,0-3.165H32.685l1.941-1.962a1.561,1.561,0,0,0,0-2.237,1.583,1.583,0,0,0-2.237,0L30.449,5.6V2.833a1.583,1.583,0,0,0-3.165,0V5.6L25.321,3.634a1.583,1.583,0,0,0-2.237,2.237l1.962,1.962H22.283a1.583,1.583,0,0,0,0,3.165Z" transform="translate(17.861 -1.25)" fill="#12263f"/>
      </g>
    </g>
  </g>
</svg>
