<svg xmlns="http://www.w3.org/2000/svg" xmlns:xlink="http://www.w3.org/1999/xlink" width="113" height="113" viewBox="0 0 113 113">
  <defs>
    <filter id="Path_982547" x="0" y="0" width="113" height="113" filterUnits="userSpaceOnUse">
      <feOffset dy="3" input="SourceAlpha"/>
      <feGaussianBlur stdDeviation="3" result="blur"/>
      <feFlood flood-opacity="0.161"/>
      <feComposite operator="in" in2="blur"/>
      <feComposite in="SourceGraphic"/>
    </filter>
  </defs>
  <g id="Group_1175138" data-name="Group 1175138" transform="translate(-901.75 -914.212)">
    <g id="Group_1175061" data-name="Group 1175061" transform="translate(629.75 -90.841)">
      <g id="Group_1174859" data-name="Group 1174859" transform="translate(281 1011.053)">
        <g id="Group_1167343" data-name="Group 1167343" transform="translate(0)">
          <g id="Group_1166777" data-name="Group 1166777" transform="translate(0)">
            <g id="Group_1164305" data-name="Group 1164305">
              <g id="Group_1163948" data-name="Group 1163948">
                <g id="Group_1158168" data-name="Group 1158168">
                  <g id="Group_1152576" data-name="Group 1152576">
                    <g id="Group_1148633" data-name="Group 1148633">
                      <g id="Group_1148525" data-name="Group 1148525">
                        <g transform="matrix(1, 0, 0, 1, -9, -6)" filter="url(#Path_982547)">
                          <g id="Path_982547-2" data-name="Path 982547" transform="translate(9 6)" fill="#f4f9ff">
                            <path d="M 47.5 93.5 C 41.28937149047852 93.5 35.26533508300781 92.28397369384766 29.59518623352051 89.88570404052734 C 24.11771965026855 87.56893157958984 19.19813346862793 84.25196075439453 14.97309303283691 80.02691650390625 C 10.74804019927979 75.80186462402344 7.431066513061523 70.88229370117188 5.114293098449707 65.40481567382812 C 2.716026782989502 59.73468017578125 1.5 53.71062850952148 1.5 47.5 C 1.5 41.28937149047852 2.716026782989502 35.26533508300781 5.114293098449707 29.59518623352051 C 7.431066513061523 24.11771965026855 10.74804019927979 19.19813346862793 14.97309303283691 14.97309303283691 C 19.19813346862793 10.74804019927979 24.11771965026855 7.431066513061523 29.59518623352051 5.114293098449707 C 35.26533508300781 2.716026782989502 41.28937149047852 1.5 47.5 1.5 C 53.71062850952148 1.5 59.73468017578125 2.716026782989502 65.40481567382812 5.114293098449707 C 70.88229370117188 7.431066513061523 75.80186462402344 10.74804019927979 80.02691650390625 14.97309303283691 C 84.25196075439453 19.19813346862793 87.56893157958984 24.11771965026855 89.88570404052734 29.59518623352051 C 92.28397369384766 35.26533508300781 93.5 41.28937149047852 93.5 47.5 C 93.5 53.71062850952148 92.28397369384766 59.73468017578125 89.88570404052734 65.40481567382812 C 87.56893157958984 70.88229370117188 84.25196075439453 75.80186462402344 80.02691650390625 80.02691650390625 C 75.80186462402344 84.25196075439453 70.88229370117188 87.56893157958984 65.40481567382812 89.88570404052734 C 59.73468017578125 92.28397369384766 53.71062850952148 93.5 47.5 93.5 Z" stroke="none"/>
                            <path d="M 47.5 3 C 41.49121475219727 3 35.66376876831055 4.176155090332031 30.17950439453125 6.495796203613281 C 24.88084411621094 8.736953735351562 20.12152099609375 11.94598388671875 16.03375244140625 16.03375244140625 C 11.94598388671875 20.12152099609375 8.736953735351562 24.88084411621094 6.495796203613281 30.17950439453125 C 4.176155090332031 35.66376876831055 3 41.49121475219727 3 47.5 C 3 53.50878524780273 4.176155090332031 59.33624649047852 6.495796203613281 64.82049560546875 C 8.736953735351562 70.11917114257812 11.94598388671875 74.87849426269531 16.03375244140625 78.96626281738281 C 20.12152099609375 83.05403137207031 24.88084411621094 86.2630615234375 30.17950439453125 88.50419616699219 C 35.66376876831055 90.82384490966797 41.49121475219727 92 47.5 92 C 53.50878524780273 92 59.33624649047852 90.82384490966797 64.82049560546875 88.50419616699219 C 70.11917114257812 86.2630615234375 74.87849426269531 83.05403137207031 78.96626281738281 78.96626281738281 C 83.05403137207031 74.87849426269531 86.2630615234375 70.11917114257812 88.50419616699219 64.82049560546875 C 90.82384490966797 59.33624649047852 92 53.50878524780273 92 47.5 C 92 41.49121475219727 90.82384490966797 35.66376876831055 88.50419616699219 30.17950439453125 C 86.2630615234375 24.88084411621094 83.05403137207031 20.12152099609375 78.96626281738281 16.03375244140625 C 74.87849426269531 11.94598388671875 70.11917114257812 8.736953735351562 64.82049560546875 6.495796203613281 C 59.33624649047852 4.176155090332031 53.50878524780273 3 47.5 3 M 47.5 0 C 73.73353576660156 0 95 21.2664794921875 95 47.5 C 95 73.73353576660156 73.73353576660156 95 47.5 95 C 21.2664794921875 95 0 73.73353576660156 0 47.5 C 0 21.2664794921875 21.2664794921875 0 47.5 0 Z" stroke="none" fill="#719acc"/>
                          </g>
                        </g>
                      </g>
                    </g>
                  </g>
                </g>
              </g>
            </g>
          </g>
        </g>
      </g>
    </g>
    <g id="_x31_58_x2C__Garden_x2C__Growth_x2C__Plant_x2C__Rain" transform="translate(902.426 912.388)">
      <g id="Group_1175137" data-name="Group 1175137" transform="translate(25 25)">
        <path id="Path_1035583" data-name="Path 1035583" d="M432.581,65A2.581,2.581,0,1,1,430,67.581,2.58,2.58,0,0,1,432.581,65Z" transform="translate(-377.739 -59.838)" fill="#f0a65f"/>
        <g id="Group_1175136" data-name="Group 1175136" transform="translate(10.142 42.583)">
          <path id="Path_1035584" data-name="Path 1035584" d="M424.607,411.62a10.294,10.294,0,0,1-8.207,8.207A10.3,10.3,0,0,1,424.607,411.62Z" transform="translate(-376.037 -404.314)" fill="#86bc31"/>
          <path id="Path_1035585" data-name="Path 1035585" d="M424.607,355a10.294,10.294,0,0,1-8.207,8.207A10.294,10.294,0,0,1,424.607,355Z" transform="translate(-376.037 -355)" fill="#86bc31"/>
          <path id="Path_1035586" data-name="Path 1035586" d="M269.607,411.62a10.294,10.294,0,0,1-8.207,8.207A10.3,10.3,0,0,1,269.607,411.62Z" transform="translate(-241.038 -404.314)" fill="#86bc31"/>
          <path id="Path_1035587" data-name="Path 1035587" d="M111.807,411.62a10.3,10.3,0,0,1-8.207,8.207A10.293,10.293,0,0,1,111.807,411.62Z" transform="translate(-103.6 -404.314)" fill="#86bc31"/>
          <path id="Path_1035588" data-name="Path 1035588" d="M111.807,355a10.3,10.3,0,0,1-8.207,8.207A10.292,10.292,0,0,1,111.807,355Z" transform="translate(-103.6 -355)" fill="#86bc31"/>
        </g>
        <path id="Path_1035589" data-name="Path 1035589" d="M361.006,408.207A10.3,10.3,0,0,1,352.8,400,10.293,10.293,0,0,1,361.006,408.207Z" transform="translate(-310.5 -351.61)" fill="#aeef66"/>
        <path id="Path_1035590" data-name="Path 1035590" d="M361.006,338.207A10.3,10.3,0,0,1,352.8,330,10.293,10.293,0,0,1,361.006,338.207Z" transform="translate(-310.5 -290.643)" fill="#aeef66"/>
        <path id="Path_1035591" data-name="Path 1035591" d="M206.006,383.207A10.3,10.3,0,0,1,197.8,375,10.292,10.292,0,0,1,206.006,383.207Z" transform="translate(-175.501 -329.836)" fill="#aeef66"/>
        <path id="Path_1035592" data-name="Path 1035592" d="M48.207,408.207A10.294,10.294,0,0,1,40,400,10.294,10.294,0,0,1,48.207,408.207Z" transform="translate(-38.064 -351.61)" fill="#aeef66"/>
        <path id="Path_1035593" data-name="Path 1035593" d="M48.207,338.207A10.294,10.294,0,0,1,40,330,10.294,10.294,0,0,1,48.207,338.207Z" transform="translate(-38.064 -290.643)" fill="#aeef66"/>
        <path id="Path_1035594" data-name="Path 1035594" d="M48.226,70A3.226,3.226,0,1,1,45,73.226,3.226,3.226,0,0,1,48.226,70Z" transform="translate(-42.419 -64.193)" fill="#f0a65f"/>
        <path id="Path_1035595" data-name="Path 1035595" d="M93.553,57.022a7.006,7.006,0,0,1-.054-14,9.511,9.511,0,1,1,17.9-6.417A7.008,7.008,0,0,1,122.775,43.1a7.008,7.008,0,1,1,1.085,13.931l-14.406,0Z" transform="translate(-78.843 -29.355)" fill="#c3fff9"/>
        <circle id="Ellipse_11636" data-name="Ellipse 11636" cx="1" cy="1" r="1" transform="translate(54.324 13.324)"/>
        <circle id="Ellipse_11637" data-name="Ellipse 11637" cx="1" cy="1" r="1" transform="translate(54.324 25.324)"/>
        <ellipse id="Ellipse_11638" data-name="Ellipse 11638" cx="0.5" cy="1" rx="0.5" ry="1" transform="translate(44.324 2.324)"/>
        <circle id="Ellipse_11639" data-name="Ellipse 11639" cx="1" cy="1" r="1" transform="translate(36.324 40.324)"/>
        <circle id="Ellipse_11640" data-name="Ellipse 11640" cx="1" cy="1" r="1" transform="translate(25.324 40.324)"/>
        <circle id="Ellipse_11641" data-name="Ellipse 11641" cx="1" cy="1" r="1" transform="translate(22.324 54.324)"/>
        <circle id="Ellipse_11642" data-name="Ellipse 11642" cx="1" cy="1" r="1" transform="translate(7.324 31.324)"/>
        <circle id="Ellipse_11643" data-name="Ellipse 11643" cx="1" cy="1" r="1" transform="translate(2.324 20.324)"/>
        <path id="Path_1035596" data-name="Path 1035596" d="M412.045,360a.645.645,0,0,1-.645-.645V340.645a.645.645,0,0,1,1.29,0v18.711A.645.645,0,0,1,412.045,360Z" transform="translate(-361.539 -299.353)"/>
        <path id="Path_1035597" data-name="Path 1035597" d="M412.045,416.117a.645.645,0,0,1-.634-.765,10.946,10.946,0,0,1,8.721-8.722.645.645,0,0,1,.754.753,10.946,10.946,0,0,1-8.722,8.722A.65.65,0,0,1,412.045,416.117Zm7.33-7.976a9.667,9.667,0,0,0-6.454,6.454,9.668,9.668,0,0,0,6.454-6.454Z" transform="translate(-361.539 -357.376)"/>
        <path id="Path_1035598" data-name="Path 1035598" d="M356.651,404.5a.646.646,0,0,1-.119-.011,10.946,10.946,0,0,1-8.722-8.722.645.645,0,0,1,.753-.754,10.942,10.942,0,0,1,8.71,8.663.646.646,0,0,1-.619.823Zm-7.33-7.976a9.665,9.665,0,0,0,6.454,6.454,9.663,9.663,0,0,0-6.454-6.454Z" transform="translate(-306.145 -347.256)"/>
        <path id="Path_1035599" data-name="Path 1035599" d="M412.045,359.5a.645.645,0,0,1-.634-.765,10.946,10.946,0,0,1,8.721-8.722.645.645,0,0,1,.754.754,10.946,10.946,0,0,1-8.722,8.722A.654.654,0,0,1,412.045,359.5Zm7.33-7.976a9.668,9.668,0,0,0-6.454,6.454,9.666,9.666,0,0,0,6.454-6.454Z" transform="translate(-361.539 -308.063)"/>
        <path id="Path_1035600" data-name="Path 1035600" d="M356.651,334.5a.646.646,0,0,1-.119-.011,10.946,10.946,0,0,1-8.722-8.722.645.645,0,0,1,.753-.754,10.942,10.942,0,0,1,8.71,8.663.646.646,0,0,1-.619.823Zm-7.33-7.976a9.665,9.665,0,0,0,6.454,6.454,9.663,9.663,0,0,0-6.454-6.454Z" transform="translate(-306.145 -286.288)"/>
        <path id="Path_1035601" data-name="Path 1035601" d="M119.506,53.319,89.2,53.313h-.025a7.652,7.652,0,0,1-.908-15.2,10.157,10.157,0,0,1,19.084-6.883,7.653,7.653,0,0,1,11.8,6.432q0,.182-.009.364a7.653,7.653,0,1,1,.365,15.3Zm-30.295-1.3,30.295.006a6.362,6.362,0,0,0,0-12.725,6.542,6.542,0,0,0-.988.076.645.645,0,0,1-.735-.738,6.363,6.363,0,0,0-10.333-5.894.645.645,0,0,1-1.025-.3A8.866,8.866,0,1,0,89.744,38.43a.645.645,0,0,1-.57.883,6.361,6.361,0,0,0,.037,12.71Z" transform="translate(-74.488 -25)"/>
        <path id="Path_1035602" data-name="Path 1035602" d="M154.955,56.711a.645.645,0,0,1-.645-.645,6.433,6.433,0,0,1,6.425-6.426.645.645,0,0,1,0,1.29,5.141,5.141,0,0,0-5.134,5.136A.645.645,0,0,1,154.955,56.711Z" transform="translate(-137.624 -46.46)"/>
        <path id="Path_1035603" data-name="Path 1035603" d="M257.045,360a.645.645,0,0,1-.645-.645V340.645a.645.645,0,0,1,1.29,0v18.711A.645.645,0,0,1,257.045,360Z" transform="translate(-226.54 -299.353)"/>
        <path id="Path_1035604" data-name="Path 1035604" d="M257.045,416.117a.645.645,0,0,1-.634-.765,10.946,10.946,0,0,1,8.721-8.722.645.645,0,0,1,.754.753,10.946,10.946,0,0,1-8.722,8.722A.65.65,0,0,1,257.045,416.117Zm7.33-7.976a9.667,9.667,0,0,0-6.454,6.454,9.668,9.668,0,0,0,6.454-6.454Z" transform="translate(-226.54 -357.376)"/>
        <path id="Path_1035605" data-name="Path 1035605" d="M201.652,379.5a.646.646,0,0,1-.119-.011,10.946,10.946,0,0,1-8.721-8.721.645.645,0,0,1,.753-.754,10.942,10.942,0,0,1,8.71,8.663.646.646,0,0,1-.619.823Zm-7.33-7.976a9.665,9.665,0,0,0,6.454,6.454,9.662,9.662,0,0,0-6.454-6.454Z" transform="translate(-171.147 -325.482)"/>
        <path id="Path_1035606" data-name="Path 1035606" d="M99.245,360a.645.645,0,0,1-.645-.645V340.645a.645.645,0,0,1,1.29,0v18.711A.645.645,0,0,1,99.245,360Z" transform="translate(-89.103 -299.353)"/>
        <path id="Path_1035607" data-name="Path 1035607" d="M99.245,416.118a.645.645,0,0,1-.634-.764,10.942,10.942,0,0,1,8.722-8.722.645.645,0,0,1,.753.753,10.946,10.946,0,0,1-8.722,8.722A.649.649,0,0,1,99.245,416.118Zm7.33-7.976a9.662,9.662,0,0,0-6.455,6.454,9.668,9.668,0,0,0,6.455-6.454Z" transform="translate(-89.103 -357.377)"/>
        <path id="Path_1035608" data-name="Path 1035608" d="M43.852,404.5a.643.643,0,0,1-.119-.011,10.946,10.946,0,0,1-8.722-8.722.645.645,0,0,1,.753-.753,10.946,10.946,0,0,1,8.71,8.662.646.646,0,0,1-.619.824Zm-7.331-7.976a9.669,9.669,0,0,0,6.455,6.454,9.667,9.667,0,0,0-6.455-6.454Z" transform="translate(-33.71 -347.256)"/>
        <path id="Path_1035609" data-name="Path 1035609" d="M99.245,359.5a.645.645,0,0,1-.634-.764,10.942,10.942,0,0,1,8.722-8.722.645.645,0,0,1,.753.754,10.946,10.946,0,0,1-8.722,8.722.659.659,0,0,1-.119.011Zm7.33-7.976a9.662,9.662,0,0,0-6.454,6.454,9.665,9.665,0,0,0,6.454-6.454Z" transform="translate(-89.103 -308.062)"/>
        <path id="Path_1035610" data-name="Path 1035610" d="M43.852,334.5a.643.643,0,0,1-.119-.011,10.946,10.946,0,0,1-8.722-8.722.645.645,0,0,1,.753-.753,10.946,10.946,0,0,1,8.71,8.662.646.646,0,0,1-.619.824Zm-7.331-7.976a9.669,9.669,0,0,0,6.455,6.454,9.667,9.667,0,0,0-6.455-6.454Z" transform="translate(-33.71 -286.289)"/>
        <path id="Path_1035611" data-name="Path 1035611" d="M85,486.29H25.645a.645.645,0,0,1,0-1.29H85a.645.645,0,0,1,0,1.29Z" transform="translate(-25 -425.642)"/>
        <path id="Path_1035612" data-name="Path 1035612" d="M340.644,199.353a.646.646,0,0,1-.6-.885l3.226-8.065a.645.645,0,0,1,1.2.479l-3.226,8.065A.646.646,0,0,1,340.644,199.353Z" transform="translate(-299.352 -168.706)"/>
        <path id="Path_1035613" data-name="Path 1035613" d="M285.644,207.419a.645.645,0,0,1-.6-.885L291.5,190.4a.645.645,0,1,1,1.2.479l-6.452,16.13A.646.646,0,0,1,285.644,207.419Z" transform="translate(-251.449 -168.707)"/>
        <path id="Path_1035614" data-name="Path 1035614" d="M265.644,204.193a.645.645,0,0,1-.6-.885l5.162-12.9a.645.645,0,0,1,1.2.479l-5.162,12.9A.646.646,0,0,1,265.644,204.193Z" transform="translate(-234.03 -168.707)"/>
        <path id="Path_1035615" data-name="Path 1035615" d="M235.644,173.71a.645.645,0,0,1-.6-.885l6.968-17.42a.645.645,0,1,1,1.2.479l-6.968,17.42A.646.646,0,0,1,235.644,173.71Z" transform="translate(-207.901 -138.224)"/>
        <path id="Path_1035616" data-name="Path 1035616" d="M195.645,229.193a.645.645,0,0,1-.6-.885l5.162-12.9a.645.645,0,1,1,1.2.479l-5.162,12.9A.646.646,0,0,1,195.645,229.193Z" transform="translate(-173.063 -190.481)"/>
        <path id="Path_1035617" data-name="Path 1035617" d="M175.645,204.194a.645.645,0,0,1-.6-.885l5.162-12.9a.645.645,0,0,1,1.2.479l-5.162,12.9A.645.645,0,0,1,175.645,204.194Z" transform="translate(-155.644 -168.708)"/>
        <path id="Path_1035618" data-name="Path 1035618" d="M145.645,204.194a.645.645,0,0,1-.6-.885l5.162-12.9a.645.645,0,0,1,1.2.479l-5.162,12.9A.645.645,0,0,1,145.645,204.194Z" transform="translate(-129.515 -168.708)"/>
        <path id="Path_1035619" data-name="Path 1035619" d="M428.226,66.452a3.226,3.226,0,1,1,3.226-3.226A3.23,3.23,0,0,1,428.226,66.452Zm0-5.162a1.936,1.936,0,1,0,1.936,1.936A1.938,1.938,0,0,0,428.226,61.29Z" transform="translate(-373.384 -55.484)"/>
        <path id="Path_1035620" data-name="Path 1035620" d="M43.871,72.742a3.871,3.871,0,1,1,3.871-3.871A3.876,3.876,0,0,1,43.871,72.742Zm0-6.452a2.581,2.581,0,1,0,2.581,2.581A2.584,2.584,0,0,0,43.871,66.29Z" transform="translate(-38.064 -59.838)"/>
      </g>
    </g>
  </g>
</svg>
