<svg xmlns="http://www.w3.org/2000/svg" xmlns:xlink="http://www.w3.org/1999/xlink" width="113" height="113" viewBox="0 0 113 113">
  <defs>
    <filter id="Path_982547" x="0" y="0" width="113" height="113" filterUnits="userSpaceOnUse">
      <feOffset dy="3" input="SourceAlpha"/>
      <feGaussianBlur stdDeviation="3" result="blur"/>
      <feFlood flood-opacity="0.161"/>
      <feComposite operator="in" in2="blur"/>
      <feComposite in="SourceGraphic"/>
    </filter>
  </defs>
  <g id="Group_1175140" data-name="Group 1175140" transform="translate(-1216.75 -914.212)">
    <g id="Group_1175062" data-name="Group 1175062" transform="translate(944.75 -90.841)">
      <g id="Group_1174859" data-name="Group 1174859" transform="translate(281 1011.053)">
        <g id="Group_1167343" data-name="Group 1167343" transform="translate(0)">
          <g id="Group_1166777" data-name="Group 1166777" transform="translate(0)">
            <g id="Group_1164305" data-name="Group 1164305">
              <g id="Group_1163948" data-name="Group 1163948">
                <g id="Group_1158168" data-name="Group 1158168">
                  <g id="Group_1152576" data-name="Group 1152576">
                    <g id="Group_1148633" data-name="Group 1148633">
                      <g id="Group_1148525" data-name="Group 1148525">
                        <g transform="matrix(1, 0, 0, 1, -9, -6)" filter="url(#Path_982547)">
                          <g id="Path_982547-2" data-name="Path 982547" transform="translate(9 6)" fill="#f4f9ff">
                            <path d="M 47.5 93.5 C 41.28937149047852 93.5 35.26533508300781 92.28397369384766 29.59518623352051 89.88570404052734 C 24.11771965026855 87.56893157958984 19.19813346862793 84.25196075439453 14.97309303283691 80.02691650390625 C 10.74804019927979 75.80186462402344 7.431066513061523 70.88229370117188 5.114293098449707 65.40481567382812 C 2.716026782989502 59.73468017578125 1.5 53.71062850952148 1.5 47.5 C 1.5 41.28937149047852 2.716026782989502 35.26533508300781 5.114293098449707 29.59518623352051 C 7.431066513061523 24.11771965026855 10.74804019927979 19.19813346862793 14.97309303283691 14.97309303283691 C 19.19813346862793 10.74804019927979 24.11771965026855 7.431066513061523 29.59518623352051 5.114293098449707 C 35.26533508300781 2.716026782989502 41.28937149047852 1.5 47.5 1.5 C 53.71062850952148 1.5 59.73468017578125 2.716026782989502 65.40481567382812 5.114293098449707 C 70.88229370117188 7.431066513061523 75.80186462402344 10.74804019927979 80.02691650390625 14.97309303283691 C 84.25196075439453 19.19813346862793 87.56893157958984 24.11771965026855 89.88570404052734 29.59518623352051 C 92.28397369384766 35.26533508300781 93.5 41.28937149047852 93.5 47.5 C 93.5 53.71062850952148 92.28397369384766 59.73468017578125 89.88570404052734 65.40481567382812 C 87.56893157958984 70.88229370117188 84.25196075439453 75.80186462402344 80.02691650390625 80.02691650390625 C 75.80186462402344 84.25196075439453 70.88229370117188 87.56893157958984 65.40481567382812 89.88570404052734 C 59.73468017578125 92.28397369384766 53.71062850952148 93.5 47.5 93.5 Z" stroke="none"/>
                            <path d="M 47.5 3 C 41.49121475219727 3 35.66376876831055 4.176155090332031 30.17950439453125 6.495796203613281 C 24.88084411621094 8.736953735351562 20.12152099609375 11.94598388671875 16.03375244140625 16.03375244140625 C 11.94598388671875 20.12152099609375 8.736953735351562 24.88084411621094 6.495796203613281 30.17950439453125 C 4.176155090332031 35.66376876831055 3 41.49121475219727 3 47.5 C 3 53.50878524780273 4.176155090332031 59.33624649047852 6.495796203613281 64.82049560546875 C 8.736953735351562 70.11917114257812 11.94598388671875 74.87849426269531 16.03375244140625 78.96626281738281 C 20.12152099609375 83.05403137207031 24.88084411621094 86.2630615234375 30.17950439453125 88.50419616699219 C 35.66376876831055 90.82384490966797 41.49121475219727 92 47.5 92 C 53.50878524780273 92 59.33624649047852 90.82384490966797 64.82049560546875 88.50419616699219 C 70.11917114257812 86.2630615234375 74.87849426269531 83.05403137207031 78.96626281738281 78.96626281738281 C 83.05403137207031 74.87849426269531 86.2630615234375 70.11917114257812 88.50419616699219 64.82049560546875 C 90.82384490966797 59.33624649047852 92 53.50878524780273 92 47.5 C 92 41.49121475219727 90.82384490966797 35.66376876831055 88.50419616699219 30.17950439453125 C 86.2630615234375 24.88084411621094 83.05403137207031 20.12152099609375 78.96626281738281 16.03375244140625 C 74.87849426269531 11.94598388671875 70.11917114257812 8.736953735351562 64.82049560546875 6.495796203613281 C 59.33624649047852 4.176155090332031 53.50878524780273 3 47.5 3 M 47.5 0 C 73.73353576660156 0 95 21.2664794921875 95 47.5 C 95 73.73353576660156 73.73353576660156 95 47.5 95 C 21.2664794921875 95 0 73.73353576660156 0 47.5 C 0 21.2664794921875 21.2664794921875 0 47.5 0 Z" stroke="none" fill="#719acc"/>
                          </g>
                        </g>
                      </g>
                    </g>
                  </g>
                </g>
              </g>
            </g>
          </g>
        </g>
      </g>
    </g>
    <g id="wind_391526" transform="translate(1237.451 913.148)">
      <g id="Group_1175139" data-name="Group 1175139" transform="translate(33.166 27.181)">
        <path id="Path_1035621" data-name="Path 1035621" d="M270.136,232.138c-.045,0-.091,0-.137-.006a1.443,1.443,0,0,1-1.3-1.571,12.859,12.859,0,0,1,3.3-7.058,1.442,1.442,0,0,1,2.068,2.011,10.037,10.037,0,0,0-2.491,5.317A1.443,1.443,0,0,1,270.136,232.138Z" transform="translate(-268.691 -199.75)" fill="#7dbf63"/>
        <path id="Path_1035622" data-name="Path 1035622" d="M307.532,54.208c-5.68,5.68-14.489,6.573-18.245,6.684a1.748,1.748,0,0,1-1.8-1.8c.111-3.756,1-12.566,6.684-18.245s14.489-6.573,18.245-6.684a1.748,1.748,0,0,1,1.8,1.8C314.106,39.719,313.212,48.529,307.532,54.208Z" transform="translate(-285.168 -34.164)" fill="#7dbf63"/>
      </g>
      <circle id="Ellipse_11644" data-name="Ellipse 11644" cx="1.706" cy="1.706" r="1.706" transform="translate(50.441 42.135)" opacity="0.3"/>
      <path id="Path_1035623" data-name="Path 1035623" d="M290.485,103.024a1.748,1.748,0,0,1-1.8-1.8c.107-3.623.944-11.948,6.1-17.63-.208.189-.414.382-.615.583-5.68,5.68-6.573,14.489-6.684,18.245a1.748,1.748,0,0,0,1.8,1.8c3.756-.111,12.566-1,18.245-6.684.2-.2.394-.406.583-.615C302.433,102.08,294.108,102.917,290.485,103.024Z" transform="translate(-252.001 -50.313)" opacity="0.1"/>
      <path id="Path_1035624" data-name="Path 1035624" d="M470.056,34.164c-.549.016-1.207.05-1.946.112a5.553,5.553,0,0,0,2.977,8.1,36.6,36.6,0,0,0,.768-6.418A1.748,1.748,0,0,0,470.056,34.164Z" transform="translate(-409.639 -6.982)" fill="#fff" opacity="0.2"/>
      <path id="Path_1035625" data-name="Path 1035625" d="M352.677,109.248a.984.984,0,0,1-.7-1.679l8.912-8.912a.983.983,0,0,1,1.391,1.391l-8.912,8.912A.98.98,0,0,1,352.677,109.248Z" transform="translate(-308.281 -63.263)" opacity="0.2"/>
      <path id="Path_1035626" data-name="Path 1035626" d="M40.279,67.4H31.95a.984.984,0,0,0,0,1.967h8.329a.984.984,0,0,0,0-1.967ZM39.4,47.227a.984.984,0,0,0,1.391-1.391l-.678-.678a.983.983,0,1,0-1.391,1.391Zm14.74-14.74A.984.984,0,0,0,55.533,31.1l-.678-.678a.984.984,0,0,0-1.391,1.391Zm-1.2,29.93H4.831a.984.984,0,1,0,0,1.967H52.942a8.289,8.289,0,1,1-8.289,8.289.984.984,0,1,0-1.967,0A10.256,10.256,0,1,0,52.942,62.417Zm-.8-15.888a2.688,2.688,0,0,0,1.9-4.589h0a2.689,2.689,0,1,0-1.9,4.589Zm-.511-3.2a.722.722,0,1,1,0,1.021A.72.72,0,0,1,51.636,43.331Zm1.306,26.038a.984.984,0,0,0,0-1.967,5.271,5.271,0,1,0,5.271,5.271.984.984,0,1,0-1.967,0,3.3,3.3,0,1,1-3.3-3.3ZM34.381,60.542c.076.007.153.011.23.011a2.415,2.415,0,0,0,2.413-2.2,8.063,8.063,0,0,1,1.3-3.506c4.174-.244,12.422-1.447,17.9-6.927,5.965-5.966,6.863-15.213,6.971-18.912A2.731,2.731,0,0,0,60.387,26.2c-3.7.109-12.946,1.006-18.912,6.971C35.648,39,34.657,47.957,34.513,51.816a13.1,13.1,0,0,0-2.32,6.084A2.428,2.428,0,0,0,34.381,60.542Zm8.486-25.981c5.467-5.467,14.114-6.294,17.579-6.4h.023a.764.764,0,0,1,.763.787c-.1,3.464-.929,12.112-6.4,17.579s-14.115,6.295-17.579,6.4a.764.764,0,0,1-.787-.787C36.572,48.675,37.4,40.028,42.867,34.561Zm-7.484,19.6a2.73,2.73,0,0,0,.773.5,9.484,9.484,0,0,0-1.09,3.5.462.462,0,0,1-.455.416l-.045,0a.46.46,0,0,1-.414-.5A10.439,10.439,0,0,1,35.383,54.166ZM26.765,67.4H8.363a.984.984,0,0,0,0,1.967h18.4a.984.984,0,0,0,0-1.967ZM22.605,45.555a3.62,3.62,0,0,1,3.616,3.616.984.984,0,1,0,1.967,0,5.583,5.583,0,1,0-5.583,5.583.984.984,0,0,0,0-1.967,3.616,3.616,0,0,1,0-7.232Zm9.609,3.616a9.609,9.609,0,0,0-19.218,0,.984.984,0,0,0,1.967,0,7.642,7.642,0,1,1,7.642,7.642H.984a.984.984,0,1,0,0,1.967H22.606A9.62,9.62,0,0,0,32.214,49.171Zm8.064,7.642a.984.984,0,1,0,0,1.967H54.8a.984.984,0,0,0,0-1.967Z" transform="translate(0 0)"/>
    </g>
  </g>
</svg>
