<svg xmlns="http://www.w3.org/2000/svg" xmlns:xlink="http://www.w3.org/1999/xlink" width="86.423" height="86.423" viewBox="0 0 86.423 86.423">
  <defs>
    <filter id="Path_874925" x="0" y="0" width="86.423" height="86.423" filterUnits="userSpaceOnUse">
      <feOffset dy="3" input="SourceAlpha"/>
      <feGaussianBlur stdDeviation="3" result="blur"/>
      <feFlood flood-opacity="0.161"/>
      <feComposite operator="in" in2="blur"/>
      <feComposite in="SourceGraphic"/>
    </filter>
  </defs>
  <g id="Group_1175456" data-name="Group 1175456" transform="translate(-187.577 -7538.56)">
    <g id="Group_1111542" data-name="Group 1111542" transform="translate(196.577 7521.56)">
      <g id="Group_1109835" data-name="Group 1109835" transform="translate(0 23)">
        <g id="Group_1107913" data-name="Group 1107913" transform="translate(0 0)">
          <g transform="matrix(1, 0, 0, 1, -9, -6)" filter="url(#Path_874925)">
            <g id="Path_874925-2" data-name="Path 874925" transform="translate(9 6)" fill="#f3d82a">
              <path d="M 34.21131896972656 66.92303466796875 C 29.79465866088867 66.92303466796875 25.51090812683105 66.05836486816406 21.47905921936035 64.35303497314453 C 17.58399963378906 62.70556640625 14.08555889129639 60.34674835205078 11.08091926574707 57.34211730957031 C 8.076289176940918 54.33747863769531 5.717468738555908 50.83903884887695 4.069998741149902 46.94397735595703 C 2.36466908454895 42.91212844848633 1.499998927116394 38.62837600708008 1.499998927116394 34.21171569824219 C 1.499998927116394 29.79465675354004 2.36466908454895 25.51090812683105 4.069998741149902 21.47905731201172 C 5.717468738555908 17.58399772644043 8.076289176940918 14.08555698394775 11.08091926574707 11.08091735839844 C 14.08555889129639 8.076287269592285 17.58399963378906 5.717467308044434 21.47905921936035 4.069997310638428 C 25.51090812683105 2.364667415618896 29.79465866088867 1.49999737739563 34.21131896972656 1.49999737739563 C 38.62797927856445 1.49999737739563 42.91172790527344 2.364667415618896 46.94358062744141 4.069997310638428 C 50.83863830566406 5.717467308044434 54.33707809448242 8.076287269592285 57.34172058105469 11.08091735839844 C 60.34634780883789 14.08555698394775 62.70516967773438 17.58399772644043 64.35263824462891 21.47905731201172 C 66.05796813964844 25.51090812683105 66.92263793945312 29.79465675354004 66.92263793945312 34.21131896972656 C 66.92263793945312 38.62837600708008 66.05796813964844 42.91212844848633 64.35263824462891 46.94397735595703 C 62.70516967773438 50.83903884887695 60.34634780883789 54.33747863769531 57.34172058105469 57.34211730957031 C 54.33707809448242 60.34674835205078 50.83863830566406 62.70556640625 46.94358062744141 64.35303497314453 C 42.91172790527344 66.05836486816406 38.62797927856445 66.92303466796875 34.21131896972656 66.92303466796875 Z" stroke="none"/>
              <path d="M 34.21131896972656 3 C 29.99649429321289 3 25.90934371948242 3.824813842773438 22.06338882446289 5.451503753662109 C 18.34711837768555 7.023353576660156 15.00894165039062 9.274223327636719 12.1415901184082 12.14158630371094 C 9.274223327636719 15.00894165039062 7.023353576660156 18.34711837768555 5.451507568359375 22.06338882446289 C 3.824813842773438 25.90933990478516 3 29.99649429321289 3 34.21171569824219 C 3 38.42654037475586 3.824813842773438 42.51369476318359 5.451507568359375 46.35964584350586 C 7.023353576660156 50.07592010498047 9.274223327636719 53.41409301757812 12.1415901184082 56.28144836425781 C 15.00894165039062 59.14881134033203 18.34711837768555 61.39968109130859 22.06338882446289 62.97152709960938 C 25.90934371948242 64.59822082519531 29.99649429321289 65.42303466796875 34.21131896972656 65.42303466796875 C 38.42613983154297 65.42303466796875 42.51329803466797 64.59822082519531 46.35924911499023 62.97152709960938 C 50.07551956176758 61.39968109130859 53.4136962890625 59.14881134033203 56.28104782104492 56.28144836425781 C 59.14841461181641 53.41409301757812 61.39928436279297 50.07592010498047 62.97113037109375 46.35964584350586 C 64.59782409667969 42.51369476318359 65.42263793945312 38.42654037475586 65.42263793945312 34.21131896972656 C 65.42263793945312 29.99649429321289 64.59782409667969 25.90933990478516 62.97113037109375 22.06338882446289 C 61.39928436279297 18.34711837768555 59.14841461181641 15.00894165039062 56.28104782104492 12.14158630371094 C 53.4136962890625 9.274223327636719 50.07551956176758 7.023353576660156 46.35924911499023 5.451503753662109 C 42.51329803466797 3.824813842773438 38.42613983154297 3 34.21131896972656 3 M 34.21131896972656 0 C 53.10570526123047 0 68.42263793945312 15.31692886352539 68.42263793945312 34.21131896972656 L 68.42263793945312 34.21171569824219 C 68.42263793945312 53.10610580444336 53.10570526123047 68.42303466796875 34.21131896972656 68.42303466796875 C 15.31692886352539 68.42303466796875 0 53.10610580444336 0 34.21171569824219 L 0 34.21131896972656 C 0 15.31692886352539 15.31692886352539 0 34.21131896972656 0 Z" stroke="none" fill="#fff"/>
            </g>
          </g>
          <g id="Path_874923" data-name="Path 874923" fill="none">
            <path d="M34.211,0A34.211,34.211,0,0,1,68.423,34.211h0A34.211,34.211,0,0,1,0,34.212H0A34.211,34.211,0,0,1,34.211,0Z" stroke="none"/>
            <path d="M 34.21131896972656 3 C 29.99649429321289 3 25.90934371948242 3.824813842773438 22.06338882446289 5.451503753662109 C 18.34711837768555 7.023353576660156 15.00894165039062 9.274223327636719 12.1415901184082 12.14158630371094 C 9.274223327636719 15.00894165039062 7.023353576660156 18.34711837768555 5.451507568359375 22.06338882446289 C 3.824813842773438 25.90933990478516 3 29.99649429321289 3 34.21171569824219 C 3 38.42654037475586 3.824813842773438 42.51369476318359 5.451507568359375 46.35964584350586 C 7.023353576660156 50.07592010498047 9.274223327636719 53.41409301757812 12.1415901184082 56.28144836425781 C 15.00894165039062 59.14881134033203 18.34711837768555 61.39968109130859 22.06338882446289 62.97152709960938 C 25.90934371948242 64.59822082519531 29.99649429321289 65.42303466796875 34.21131896972656 65.42303466796875 C 38.42613983154297 65.42303466796875 42.51329803466797 64.59822082519531 46.35924911499023 62.97152709960938 C 50.07551956176758 61.39968109130859 53.4136962890625 59.14881134033203 56.28104782104492 56.28144836425781 C 59.14841461181641 53.41409301757812 61.39928436279297 50.07592010498047 62.97113037109375 46.35964584350586 C 64.59782409667969 42.51369476318359 65.42263793945312 38.42654037475586 65.42263793945312 34.21131896972656 C 65.42263793945312 29.99649429321289 64.59782409667969 25.90933990478516 62.97113037109375 22.06338882446289 C 61.39928436279297 18.34711837768555 59.14841461181641 15.00894165039062 56.28104782104492 12.14158630371094 C 53.4136962890625 9.274223327636719 50.07551956176758 7.023353576660156 46.35924911499023 5.451503753662109 C 42.51329803466797 3.824813842773438 38.42613983154297 3 34.21131896972656 3 M 34.21131896972656 0 C 53.10570526123047 0 68.42263793945312 15.31692886352539 68.42263793945312 34.21131896972656 L 68.42263793945312 34.21171569824219 C 68.42263793945312 53.10610580444336 53.10570526123047 68.42303466796875 34.21131896972656 68.42303466796875 C 15.31692886352539 68.42303466796875 0 53.10610580444336 0 34.21171569824219 L 0 34.21131896972656 C 0 15.31692886352539 15.31692886352539 0 34.21131896972656 0 Z" stroke="none" fill="#fff"/>
          </g>
        </g>
      </g>
    </g>
    <g id="Page-1" transform="translate(212.222 7561.172)">
      <g id="_020---Nitrogen" data-name="020---Nitrogen">
        <g id="Icons" transform="translate(0.256 0.255)">
          <path id="Rectangle" d="M8.442,0H28.7a8.442,8.442,0,0,1,8.442,8.442V28.7A8.442,8.442,0,0,1,28.7,37.146H8.442A8.442,8.442,0,0,1,0,28.7V8.442A8.442,8.442,0,0,1,8.442,0Z" transform="translate(0 0)" fill="#518428"/>
          <path id="Path" d="M9.021,4H7.766A3.766,3.766,0,0,0,4,7.766v23.85a3.766,3.766,0,0,0,3.766,3.766h23.85a3.766,3.766,0,0,0,3.766-3.766V7.766A3.766,3.766,0,0,0,31.615,4Z" transform="translate(-1.117 -1.117)" fill="#65a532" fill-rule="evenodd"/>
          <path id="Path-2" data-name="Path" d="M46.883,4H45a3.766,3.766,0,0,1,3.766,3.766v23.85A3.766,3.766,0,0,1,45,35.381h1.883a3.766,3.766,0,0,0,3.766-3.766V7.766A3.766,3.766,0,0,0,46.883,4Z" transform="translate(-16.385 -1.117)" fill="#3d631e" fill-rule="evenodd"/>
          <g id="Group_1175458" data-name="Group 1175458" transform="translate(13.552 4.766)">
            <path id="Path-3" data-name="Path" d="M25.628,8.255H29.08L26.3,14.917a.628.628,0,0,0,.338.821.619.619,0,0,0,.242.048.628.628,0,0,0,.579-.386L30.6,7.869A.628.628,0,0,0,30.021,7H25.628a.628.628,0,1,0,0,1.255Z" transform="translate(-22.49 -7)" fill="#f5f5f5" fill-rule="evenodd"/>
            <path id="Path-4" data-name="Path" d="M21.628,40.318h1.255a.628.628,0,0,0,.628-.628V29.649l4.236,10.28a.613.613,0,0,0,.577.389h2.09a.628.628,0,0,0,.628-.628V24.628A.628.628,0,0,0,30.414,24H29.159a.628.628,0,0,0-.628.628V34.67L24.364,24.559l-.069-.169A.613.613,0,0,0,23.718,24h-2.09a.628.628,0,0,0-.628.628V39.69A.628.628,0,0,0,21.628,40.318Z" transform="translate(-21 -13.33)" fill="#f5f5f5" fill-rule="evenodd"/>
          </g>
        </g>
        <g id="Icons_copy">
          <path id="Shape" d="M30.753,0H6.9A6.912,6.912,0,0,0,0,6.9v23.85a6.912,6.912,0,0,0,6.9,6.9h23.85a6.912,6.912,0,0,0,6.9-6.9V6.9A6.912,6.912,0,0,0,30.753,0ZM36.4,30.753A5.655,5.655,0,0,1,30.753,36.4H6.9a5.655,5.655,0,0,1-5.649-5.649V6.9A5.655,5.655,0,0,1,6.9,1.255h23.85A5.655,5.655,0,0,1,36.4,6.9Z"/>
          <path id="Path-5" data-name="Path" d="M37.456,4H18.628a.628.628,0,0,0,0,1.255H37.456a3.142,3.142,0,0,1,3.138,3.138v23.85a3.142,3.142,0,0,1-3.138,3.138H36.2a.628.628,0,1,0,0,1.255h1.255a4.4,4.4,0,0,0,4.393-4.393V8.393A4.4,4.4,0,0,0,37.456,4Z" transform="translate(-6.703 -1.49)" fill-rule="evenodd"/>
          <path id="Path-6" data-name="Path" d="M27.222,35.381H8.393a3.142,3.142,0,0,1-3.138-3.138V8.393A3.142,3.142,0,0,1,8.393,5.255H9.649A.628.628,0,0,0,9.649,4H8.393A4.4,4.4,0,0,0,4,8.393v23.85a4.4,4.4,0,0,0,4.393,4.393H27.222a.628.628,0,1,0,0-1.255Z" transform="translate(-1.49 -1.49)" fill-rule="evenodd"/>
          <path id="Path-7" data-name="Path" d="M27.641,16.738a.619.619,0,0,0,.242.048.628.628,0,0,0,.579-.386L31.6,8.869A.628.628,0,0,0,31.021,8H26.628a.628.628,0,1,0,0,1.255H30.08L27.3,15.917a.628.628,0,0,0,.338.821Z" transform="translate(-9.682 -2.979)" fill-rule="evenodd"/>
          <path id="Shape-2" data-name="Shape" d="M21,25.255V40.318a1.255,1.255,0,0,0,1.255,1.255H23.51a1.255,1.255,0,0,0,1.255-1.255V33.449L27.791,40.8a1.255,1.255,0,0,0,1.161.777h2.09A1.255,1.255,0,0,0,32.3,40.318V25.255A1.255,1.255,0,0,0,31.042,24H29.787a1.255,1.255,0,0,0-1.255,1.255v6.869l-3.025-7.348A1.255,1.255,0,0,0,24.345,24h-2.09A1.255,1.255,0,0,0,21,25.255Zm7.579,10.281a.628.628,0,0,0,1.208-.239V25.255h1.255V40.318h-2.09L24.719,30.037a.628.628,0,0,0-1.208.239V40.318H22.255V25.255h2.09Z" transform="translate(-7.82 -8.937)"/>
        </g>
      </g>
    </g>
  </g>
</svg>
