<svg xmlns="http://www.w3.org/2000/svg" xmlns:xlink="http://www.w3.org/1999/xlink" width="86.423" height="86.423" viewBox="0 0 86.423 86.423">
  <defs>
    <filter id="Path_874925" x="0" y="0" width="86.423" height="86.423" filterUnits="userSpaceOnUse">
      <feOffset dy="3" input="SourceAlpha"/>
      <feGaussianBlur stdDeviation="3" result="blur"/>
      <feFlood flood-opacity="0.161"/>
      <feComposite operator="in" in2="blur"/>
      <feComposite in="SourceGraphic"/>
    </filter>
  </defs>
  <g id="Group_1175457" data-name="Group 1175457" transform="translate(-817.577 -7538.56)">
    <g id="Group_1175104" data-name="Group 1175104" transform="translate(826.577 7521.56)">
      <g id="Group_1109835" data-name="Group 1109835" transform="translate(0 23)">
        <g id="Group_1107913" data-name="Group 1107913" transform="translate(0 0)">
          <g transform="matrix(1, 0, 0, 1, -9, -6)" filter="url(#Path_874925)">
            <g id="Path_874925-2" data-name="Path 874925" transform="translate(9 6)" fill="#f3d82a">
              <path d="M 34.21131896972656 66.92303466796875 C 29.79465866088867 66.92303466796875 25.51090812683105 66.05836486816406 21.47905921936035 64.35303497314453 C 17.58399963378906 62.70556640625 14.08555889129639 60.34674835205078 11.08091926574707 57.34211730957031 C 8.076289176940918 54.33747863769531 5.717468738555908 50.83903884887695 4.069998741149902 46.94397735595703 C 2.36466908454895 42.91212844848633 1.499998927116394 38.62837600708008 1.499998927116394 34.21171569824219 C 1.499998927116394 29.79465675354004 2.36466908454895 25.51090812683105 4.069998741149902 21.47905731201172 C 5.717468738555908 17.58399772644043 8.076289176940918 14.08555698394775 11.08091926574707 11.08091735839844 C 14.08555889129639 8.076287269592285 17.58399963378906 5.717467308044434 21.47905921936035 4.069997310638428 C 25.51090812683105 2.364667415618896 29.79465866088867 1.49999737739563 34.21131896972656 1.49999737739563 C 38.62797927856445 1.49999737739563 42.91172790527344 2.364667415618896 46.94358062744141 4.069997310638428 C 50.83863830566406 5.717467308044434 54.33707809448242 8.076287269592285 57.34172058105469 11.08091735839844 C 60.34634780883789 14.08555698394775 62.70516967773438 17.58399772644043 64.35263824462891 21.47905731201172 C 66.05796813964844 25.51090812683105 66.92263793945312 29.79465675354004 66.92263793945312 34.21131896972656 C 66.92263793945312 38.62837600708008 66.05796813964844 42.91212844848633 64.35263824462891 46.94397735595703 C 62.70516967773438 50.83903884887695 60.34634780883789 54.33747863769531 57.34172058105469 57.34211730957031 C 54.33707809448242 60.34674835205078 50.83863830566406 62.70556640625 46.94358062744141 64.35303497314453 C 42.91172790527344 66.05836486816406 38.62797927856445 66.92303466796875 34.21131896972656 66.92303466796875 Z" stroke="none"/>
              <path d="M 34.21131896972656 3 C 29.99649429321289 3 25.90934371948242 3.824813842773438 22.06338882446289 5.451503753662109 C 18.34711837768555 7.023353576660156 15.00894165039062 9.274223327636719 12.1415901184082 12.14158630371094 C 9.274223327636719 15.00894165039062 7.023353576660156 18.34711837768555 5.451507568359375 22.06338882446289 C 3.824813842773438 25.90933990478516 3 29.99649429321289 3 34.21171569824219 C 3 38.42654037475586 3.824813842773438 42.51369476318359 5.451507568359375 46.35964584350586 C 7.023353576660156 50.07592010498047 9.274223327636719 53.41409301757812 12.1415901184082 56.28144836425781 C 15.00894165039062 59.14881134033203 18.34711837768555 61.39968109130859 22.06338882446289 62.97152709960938 C 25.90934371948242 64.59822082519531 29.99649429321289 65.42303466796875 34.21131896972656 65.42303466796875 C 38.42613983154297 65.42303466796875 42.51329803466797 64.59822082519531 46.35924911499023 62.97152709960938 C 50.07551956176758 61.39968109130859 53.4136962890625 59.14881134033203 56.28104782104492 56.28144836425781 C 59.14841461181641 53.41409301757812 61.39928436279297 50.07592010498047 62.97113037109375 46.35964584350586 C 64.59782409667969 42.51369476318359 65.42263793945312 38.42654037475586 65.42263793945312 34.21131896972656 C 65.42263793945312 29.99649429321289 64.59782409667969 25.90933990478516 62.97113037109375 22.06338882446289 C 61.39928436279297 18.34711837768555 59.14841461181641 15.00894165039062 56.28104782104492 12.14158630371094 C 53.4136962890625 9.274223327636719 50.07551956176758 7.023353576660156 46.35924911499023 5.451503753662109 C 42.51329803466797 3.824813842773438 38.42613983154297 3 34.21131896972656 3 M 34.21131896972656 0 C 53.10570526123047 0 68.42263793945312 15.31692886352539 68.42263793945312 34.21131896972656 L 68.42263793945312 34.21171569824219 C 68.42263793945312 53.10610580444336 53.10570526123047 68.42303466796875 34.21131896972656 68.42303466796875 C 15.31692886352539 68.42303466796875 0 53.10610580444336 0 34.21171569824219 L 0 34.21131896972656 C 0 15.31692886352539 15.31692886352539 0 34.21131896972656 0 Z" stroke="none" fill="#fff"/>
            </g>
          </g>
          <g id="Path_874923" data-name="Path 874923" fill="none">
            <path d="M34.211,0A34.211,34.211,0,0,1,68.423,34.211h0A34.211,34.211,0,0,1,0,34.212H0A34.211,34.211,0,0,1,34.211,0Z" stroke="none"/>
            <path d="M 34.21131896972656 3 C 29.99649429321289 3 25.90934371948242 3.824813842773438 22.06338882446289 5.451503753662109 C 18.34711837768555 7.023353576660156 15.00894165039062 9.274223327636719 12.1415901184082 12.14158630371094 C 9.274223327636719 15.00894165039062 7.023353576660156 18.34711837768555 5.451507568359375 22.06338882446289 C 3.824813842773438 25.90933990478516 3 29.99649429321289 3 34.21171569824219 C 3 38.42654037475586 3.824813842773438 42.51369476318359 5.451507568359375 46.35964584350586 C 7.023353576660156 50.07592010498047 9.274223327636719 53.41409301757812 12.1415901184082 56.28144836425781 C 15.00894165039062 59.14881134033203 18.34711837768555 61.39968109130859 22.06338882446289 62.97152709960938 C 25.90934371948242 64.59822082519531 29.99649429321289 65.42303466796875 34.21131896972656 65.42303466796875 C 38.42613983154297 65.42303466796875 42.51329803466797 64.59822082519531 46.35924911499023 62.97152709960938 C 50.07551956176758 61.39968109130859 53.4136962890625 59.14881134033203 56.28104782104492 56.28144836425781 C 59.14841461181641 53.41409301757812 61.39928436279297 50.07592010498047 62.97113037109375 46.35964584350586 C 64.59782409667969 42.51369476318359 65.42263793945312 38.42654037475586 65.42263793945312 34.21131896972656 C 65.42263793945312 29.99649429321289 64.59782409667969 25.90933990478516 62.97113037109375 22.06338882446289 C 61.39928436279297 18.34711837768555 59.14841461181641 15.00894165039062 56.28104782104492 12.14158630371094 C 53.4136962890625 9.274223327636719 50.07551956176758 7.023353576660156 46.35924911499023 5.451503753662109 C 42.51329803466797 3.824813842773438 38.42613983154297 3 34.21131896972656 3 M 34.21131896972656 0 C 53.10570526123047 0 68.42263793945312 15.31692886352539 68.42263793945312 34.21131896972656 L 68.42263793945312 34.21171569824219 C 68.42263793945312 53.10610580444336 53.10570526123047 68.42303466796875 34.21131896972656 68.42303466796875 C 15.31692886352539 68.42303466796875 0 53.10610580444336 0 34.21171569824219 L 0 34.21131896972656 C 0 15.31692886352539 15.31692886352539 0 34.21131896972656 0 Z" stroke="none" fill="#fff"/>
          </g>
        </g>
      </g>
    </g>
    <g id="zinc_10008836" transform="translate(835.45 7553.433)">
      <path id="Path_1036141" data-name="Path 1036141" d="M39.588,43.177h-28.5A3.589,3.589,0,0,1,7.5,39.588v-28.5A3.589,3.589,0,0,1,11.089,7.5h28.5a3.589,3.589,0,0,1,3.589,3.589v28.5A3.589,3.589,0,0,1,39.588,43.177Z" transform="translate(0 0)" fill="#02c7dd"/>
      <path id="Path_1036142" data-name="Path 1036142" d="M48.867,7.5a3.573,3.573,0,0,1,.718,2.154V37.005a4.736,4.736,0,0,1-4.736,4.736H17.5a3.584,3.584,0,0,0,2.872,1.436h28.5a3.589,3.589,0,0,0,3.589-3.589v-28.5A3.589,3.589,0,0,0,48.867,7.5Z" transform="translate(-9.279 0)" fill="#07b2cd"/>
      <path id="Path_1036143" data-name="Path 1036143" d="M79.253,162.812H71.3a1.672,1.672,0,0,0-1.672,1.672h0a1.672,1.672,0,0,0,1.672,1.672h6.416a.179.179,0,0,1,.155.269L69.98,180.037a2.636,2.636,0,0,0-.355,1.322h0A2.636,2.636,0,0,0,72.261,184h7.955a1.672,1.672,0,0,0,1.672-1.672h0a1.672,1.672,0,0,0-1.672-1.672H73.8a.18.18,0,0,1-.155-.27l7.888-13.611a2.637,2.637,0,0,0,.355-1.322h0A2.636,2.636,0,0,0,79.253,162.812Z" transform="translate(-57.665 -144.163)" fill="#ffc344"/>
      <path id="Path_1036144" data-name="Path 1036144" d="M277.663,287.062h0a6.105,6.105,0,0,0-2.764.657.356.356,0,0,1-.431-.079,1.669,1.669,0,0,0-1.25-.578,1.709,1.709,0,0,0-1.687,1.713v8.839a1.7,1.7,0,0,0,1.611,1.711,1.672,1.672,0,0,0,1.733-1.671v-4.46a2.787,2.787,0,0,1,2.787-2.787h0a2.787,2.787,0,0,1,2.787,2.787v4.42a1.7,1.7,0,0,0,1.611,1.711,1.672,1.672,0,0,0,1.733-1.671v-4.46A6.132,6.132,0,0,0,277.663,287.062Z" transform="translate(-245.078 -259.494)" fill="#ffc344"/>
      <path id="Path_1036145" data-name="Path 1036145" d="M7.5,12.2V11.089A3.589,3.589,0,0,1,11.089,7.5h28.5a3.589,3.589,0,0,1,3.589,3.589v28.5a3.589,3.589,0,0,1-3.589,3.589h-28.5A3.589,3.589,0,0,1,7.5,39.588V14.714" transform="translate(0 0)" fill="none" stroke="#000" stroke-linecap="round" stroke-linejoin="round" stroke-miterlimit="10" stroke-width="1.5"/>
      <path id="Path_1036146" data-name="Path 1036146" d="M69.625,55.488h0a1.394,1.394,0,0,1,1.394-1.394h0a1.394,1.394,0,0,1,1.394,1.394h0a1.394,1.394,0,0,1-.937,1.317.081.081,0,0,0,0,.153,1.394,1.394,0,0,1,.937,1.317h0a1.394,1.394,0,0,1-1.394,1.394h0a1.394,1.394,0,0,1-1.394-1.394h0" transform="translate(-57.665 -43.249)" fill="none" stroke="#000" stroke-linecap="round" stroke-linejoin="round" stroke-miterlimit="10" stroke-width="1.5"/>
      <path id="Path_1036147" data-name="Path 1036147" d="M139.516,55.488v2.787a1.394,1.394,0,0,0,1.394,1.394h0a1.394,1.394,0,0,0,1.394-1.394V55.488a1.394,1.394,0,0,0-1.394-1.394h0A1.394,1.394,0,0,0,139.516,55.488Z" transform="translate(-122.539 -43.249)" fill="none" stroke="#000" stroke-linecap="round" stroke-linejoin="round" stroke-miterlimit="10" stroke-width="1.5"/>
      <path id="Path_1036148" data-name="Path 1036148" d="M74.435,166.156h3.278a.179.179,0,0,1,.155.269L69.98,180.036a2.636,2.636,0,0,0-.355,1.322h0a2.636,2.636,0,0,0,2.636,2.636h7.955a1.672,1.672,0,0,0,1.672-1.672h0a1.672,1.672,0,0,0-1.672-1.672H73.8a.179.179,0,0,1-.155-.269l7.888-13.611a2.636,2.636,0,0,0,.355-1.322h0a2.636,2.636,0,0,0-2.636-2.636H71.3a1.672,1.672,0,0,0-1.672,1.672h0a1.672,1.672,0,0,0,1.672,1.672h.625" transform="translate(-57.665 -144.162)" fill="none" stroke="#000" stroke-linecap="round" stroke-linejoin="round" stroke-miterlimit="10" stroke-width="1.5"/>
      <path id="Path_1036149" data-name="Path 1036149" d="M271.531,296.264v1.35a1.7,1.7,0,0,0,1.611,1.711,1.672,1.672,0,0,0,1.733-1.671v-4.46a2.787,2.787,0,0,1,2.787-2.787h0a2.787,2.787,0,0,1,2.787,2.787v4.42a1.7,1.7,0,0,0,1.611,1.711,1.672,1.672,0,0,0,1.733-1.671v-4.46a6.132,6.132,0,0,0-6.132-6.132h0a6.105,6.105,0,0,0-2.764.657.356.356,0,0,1-.431-.079,1.669,1.669,0,0,0-1.25-.578,1.709,1.709,0,0,0-1.687,1.713v4.976" transform="translate(-245.078 -259.494)" fill="none" stroke="#000" stroke-linecap="round" stroke-linejoin="round" stroke-miterlimit="10" stroke-width="1.5"/>
    </g>
  </g>
</svg>
